G04*
G04 #@! TF.GenerationSoftware,Altium Limited,Altium Designer,24.7.2 (38)*
G04*
G04 Layer_Physical_Order=1*
G04 Layer_Color=255*
%FSLAX44Y44*%
%MOMM*%
G71*
G04*
G04 #@! TF.SameCoordinates,FD71C0C7-8574-4FF8-A0B1-75ED19D4754F*
G04*
G04*
G04 #@! TF.FilePolarity,Positive*
G04*
G01*
G75*
%ADD17R,0.7000X0.7000*%
%ADD18O,2.0000X0.3000*%
%ADD19R,0.7000X0.7000*%
%ADD20R,0.7500X0.8500*%
G04:AMPARAMS|DCode=21|XSize=0.55mm|YSize=0.8mm|CornerRadius=0.0495mm|HoleSize=0mm|Usage=FLASHONLY|Rotation=270.000|XOffset=0mm|YOffset=0mm|HoleType=Round|Shape=RoundedRectangle|*
%AMROUNDEDRECTD21*
21,1,0.5500,0.7010,0,0,270.0*
21,1,0.4510,0.8000,0,0,270.0*
1,1,0.0990,-0.3505,-0.2255*
1,1,0.0990,-0.3505,0.2255*
1,1,0.0990,0.3505,0.2255*
1,1,0.0990,0.3505,-0.2255*
%
%ADD21ROUNDEDRECTD21*%
%ADD22R,0.7500X1.0000*%
G04:AMPARAMS|DCode=23|XSize=1.0043mm|YSize=3.1821mm|CornerRadius=0.4369mm|HoleSize=0mm|Usage=FLASHONLY|Rotation=270.000|XOffset=0mm|YOffset=0mm|HoleType=Round|Shape=RoundedRectangle|*
%AMROUNDEDRECTD23*
21,1,1.0043,2.3084,0,0,270.0*
21,1,0.1306,3.1821,0,0,270.0*
1,1,0.8737,-1.1542,-0.0653*
1,1,0.8737,-1.1542,0.0653*
1,1,0.8737,1.1542,0.0653*
1,1,0.8737,1.1542,-0.0653*
%
%ADD23ROUNDEDRECTD23*%
G04:AMPARAMS|DCode=24|XSize=1.0043mm|YSize=0.8721mm|CornerRadius=0.4361mm|HoleSize=0mm|Usage=FLASHONLY|Rotation=270.000|XOffset=0mm|YOffset=0mm|HoleType=Round|Shape=RoundedRectangle|*
%AMROUNDEDRECTD24*
21,1,1.0043,0.0000,0,0,270.0*
21,1,0.1322,0.8721,0,0,270.0*
1,1,0.8721,0.0000,-0.0661*
1,1,0.8721,0.0000,0.0661*
1,1,0.8721,0.0000,0.0661*
1,1,0.8721,0.0000,-0.0661*
%
%ADD24ROUNDEDRECTD24*%
%ADD25R,0.8721X1.0043*%
%ADD26R,1.1000X0.8500*%
G04:AMPARAMS|DCode=27|XSize=0.55mm|YSize=0.8mm|CornerRadius=0.0495mm|HoleSize=0mm|Usage=FLASHONLY|Rotation=180.000|XOffset=0mm|YOffset=0mm|HoleType=Round|Shape=RoundedRectangle|*
%AMROUNDEDRECTD27*
21,1,0.5500,0.7010,0,0,180.0*
21,1,0.4510,0.8000,0,0,180.0*
1,1,0.0990,-0.2255,0.3505*
1,1,0.0990,0.2255,0.3505*
1,1,0.0990,0.2255,-0.3505*
1,1,0.0990,-0.2255,-0.3505*
%
%ADD27ROUNDEDRECTD27*%
%ADD28R,0.8500X0.7500*%
%ADD29R,1.0000X0.7500*%
%ADD30R,0.8500X0.9500*%
%ADD31O,1.8650X0.6300*%
%ADD32R,1.4500X0.4500*%
%ADD33R,3.5500X1.9000*%
%ADD34R,1.3000X1.6500*%
%ADD35R,1.9000X1.8000*%
%ADD36R,1.9000X1.0000*%
%ADD37R,1.5500X1.4250*%
%ADD38R,1.3800X0.4500*%
%ADD39R,1.3000X1.1500*%
%ADD40R,0.4500X1.4500*%
%ADD41P,1.2021X4X270.0*%
%ADD42R,0.8500X0.8500*%
%ADD43P,1.2021X4X180.0*%
%ADD44R,0.9500X0.8500*%
%ADD45R,1.0500X1.6500*%
%ADD46R,1.2000X1.6500*%
%ADD78O,1.0160X1.2700*%
%ADD79O,1.2700X1.0160*%
%ADD80R,1.6510X1.6510*%
%ADD81R,1.6510X1.6510*%
%ADD82R,3.8100X3.8100*%
%ADD83C,0.2540*%
%ADD84C,0.3810*%
%ADD85C,0.5080*%
%ADD86C,0.6350*%
%ADD87C,1.2700*%
%ADD88C,0.1778*%
%ADD89C,2.5400*%
%ADD90C,0.1270*%
%ADD91C,0.7620*%
%ADD92C,1.7780*%
%ADD93O,1.5240X1.1430*%
%ADD94R,1.7000X1.7000*%
%ADD95C,1.7000*%
%ADD96C,1.0160*%
%ADD97C,1.2700*%
%ADD98C,0.6350*%
G36*
X1676400Y280689D02*
X792480D01*
Y561290D01*
X854710D01*
X855701Y561487D01*
X856541Y562049D01*
X857103Y562889D01*
X857300Y563880D01*
Y588010D01*
X863600D01*
Y588645D01*
X870588D01*
Y573950D01*
X870933Y572215D01*
X871916Y570745D01*
X891658Y551003D01*
Y446980D01*
X892003Y445246D01*
X892985Y443776D01*
X908353Y428408D01*
Y388865D01*
X908698Y387131D01*
X909680Y385660D01*
X977235Y318105D01*
X977235Y318105D01*
X978706Y317123D01*
X980440Y316778D01*
X1154490D01*
Y313770D01*
X1167070D01*
Y314953D01*
X1249628D01*
X1259175Y305405D01*
X1260646Y304423D01*
X1262380Y304078D01*
X1303880D01*
Y302320D01*
X1318960D01*
Y314900D01*
X1319548Y316180D01*
X1337292D01*
X1337424Y315891D01*
X1337880Y314740D01*
Y302320D01*
X1352960D01*
Y314560D01*
X1355920D01*
Y310860D01*
Y298860D01*
X1369500D01*
Y304268D01*
X1369952Y304570D01*
X1374792Y309410D01*
X1375354Y310250D01*
X1375551Y311241D01*
X1375354Y312232D01*
X1374903Y312906D01*
Y329760D01*
X1385160D01*
Y337457D01*
X1385521Y337699D01*
X1453441Y405619D01*
X1454003Y406459D01*
X1454200Y407450D01*
Y480257D01*
X1468023Y494080D01*
X1508861D01*
X1509379Y492556D01*
X1507533Y491139D01*
X1500036Y483643D01*
X1497797Y480725D01*
X1496390Y477327D01*
X1495909Y473680D01*
Y441960D01*
X1496390Y438313D01*
X1497797Y434915D01*
X1500036Y431996D01*
X1502955Y429757D01*
X1506353Y428350D01*
X1510000Y427869D01*
X1513647Y428350D01*
X1517045Y429757D01*
X1519964Y431996D01*
X1522203Y434915D01*
X1523610Y438313D01*
X1524091Y441960D01*
Y467844D01*
X1527460Y471213D01*
X1529699Y474131D01*
X1531106Y477529D01*
X1531587Y481176D01*
X1531106Y484823D01*
X1529699Y488221D01*
X1527460Y491139D01*
X1524541Y493379D01*
X1524204Y493518D01*
Y495168D01*
X1525965Y495897D01*
X1527454Y497039D01*
X1533207D01*
X1536853Y497520D01*
X1540252Y498927D01*
X1543170Y501166D01*
X1551353Y509350D01*
X1551353Y509350D01*
X1553593Y512268D01*
X1555000Y515667D01*
X1555481Y519313D01*
X1555481Y519314D01*
Y527670D01*
X1557005Y528536D01*
X1559723Y527410D01*
X1563370Y526929D01*
X1567017Y527410D01*
X1570415Y528817D01*
X1573333Y531057D01*
X1588257Y545979D01*
X1617980D01*
Y538480D01*
X1661160D01*
Y581660D01*
X1617980D01*
Y574160D01*
X1582420D01*
X1578773Y573680D01*
X1575375Y572273D01*
X1572457Y570033D01*
X1563964Y561541D01*
X1562292Y562025D01*
X1539361Y584957D01*
Y585470D01*
X1538880Y589117D01*
X1537473Y592515D01*
X1535233Y595434D01*
X1535233Y595434D01*
X1528884Y601783D01*
X1525965Y604023D01*
X1522773Y605345D01*
X1522645Y605952D01*
X1522790Y606927D01*
X1523181Y607032D01*
X1525699Y608486D01*
X1527754Y610541D01*
X1529208Y613059D01*
X1529960Y615867D01*
Y618773D01*
X1529835Y619241D01*
X1529981Y620350D01*
X1529500Y623997D01*
X1528093Y627395D01*
X1525898Y630256D01*
X1525981Y630801D01*
X1526313Y631780D01*
X1529960D01*
Y653860D01*
X1507880D01*
Y639022D01*
X1506472Y638438D01*
X1495284Y649626D01*
Y729100D01*
X1496808Y729403D01*
X1497797Y727015D01*
X1500036Y724097D01*
X1502955Y721857D01*
X1506353Y720450D01*
X1510000Y719969D01*
X1513647Y720450D01*
X1517045Y721857D01*
X1519964Y724097D01*
X1522203Y727015D01*
X1523610Y730413D01*
X1524091Y734060D01*
Y757403D01*
X1528884Y762197D01*
X1531123Y765115D01*
X1532530Y768513D01*
X1533011Y772160D01*
X1532530Y775807D01*
X1531123Y779205D01*
X1528884Y782123D01*
X1525965Y784363D01*
X1525910Y784386D01*
X1526214Y785910D01*
X1530177D01*
X1533824Y786390D01*
X1537222Y787797D01*
X1540140Y790036D01*
X1585997Y835893D01*
X1594533Y844429D01*
X1617980D01*
Y836930D01*
X1661160D01*
Y880110D01*
X1617980D01*
Y872610D01*
X1588697D01*
X1588697Y872611D01*
X1585050Y872130D01*
X1581651Y870723D01*
X1578733Y868484D01*
X1570197Y859947D01*
X1562820D01*
X1528884Y893884D01*
X1525965Y896123D01*
X1522773Y897445D01*
X1522645Y898052D01*
X1522790Y899027D01*
X1523181Y899132D01*
X1525699Y900586D01*
X1527754Y902641D01*
X1529208Y905159D01*
X1529960Y907967D01*
Y910873D01*
X1529835Y911341D01*
X1529981Y912450D01*
X1529500Y916097D01*
X1528093Y919495D01*
X1525898Y922356D01*
X1525981Y922901D01*
X1526313Y923880D01*
X1529960D01*
Y945960D01*
X1507880D01*
Y931122D01*
X1506472Y930538D01*
X1495284Y941727D01*
Y1008500D01*
X1496808Y1008803D01*
X1497797Y1006415D01*
X1500036Y1003496D01*
X1502955Y1001257D01*
X1506353Y999850D01*
X1510000Y999370D01*
X1513647Y999850D01*
X1517045Y1001257D01*
X1519964Y1003496D01*
X1522203Y1006415D01*
X1523610Y1009813D01*
X1524091Y1013460D01*
Y1036804D01*
X1528884Y1041597D01*
X1531123Y1044515D01*
X1532530Y1047913D01*
X1533011Y1051560D01*
X1532530Y1055207D01*
X1531123Y1058605D01*
X1528884Y1061524D01*
X1526717Y1063186D01*
X1525699Y1064204D01*
X1523878Y1065256D01*
X1524286Y1066779D01*
X1535530D01*
X1539177Y1067260D01*
X1542575Y1068667D01*
X1545493Y1070907D01*
X1565216Y1090629D01*
X1565216Y1090629D01*
X1567455Y1093547D01*
X1568863Y1096945D01*
X1569343Y1100592D01*
X1569343Y1100592D01*
Y1104780D01*
X1617980D01*
Y1097280D01*
X1661160D01*
Y1140460D01*
X1617980D01*
Y1132961D01*
X1569207D01*
X1565216Y1136951D01*
X1565216Y1136951D01*
X1539043Y1163123D01*
X1536125Y1165363D01*
X1532727Y1166770D01*
X1531120Y1166982D01*
X1529228Y1168874D01*
X1529208Y1168951D01*
X1527754Y1171469D01*
X1525699Y1173524D01*
X1523181Y1174978D01*
X1520373Y1175730D01*
X1517467D01*
X1514659Y1174978D01*
X1512141Y1173524D01*
X1510086Y1171469D01*
X1508632Y1168951D01*
X1507880Y1166143D01*
Y1163237D01*
X1508632Y1160429D01*
X1510086Y1157911D01*
X1512141Y1155856D01*
X1514659Y1154402D01*
X1514736Y1154382D01*
X1515102Y1154016D01*
X1514989Y1153160D01*
X1515470Y1149513D01*
X1516877Y1146115D01*
X1519117Y1143196D01*
X1541162Y1121151D01*
Y1106429D01*
X1531484Y1096751D01*
X1529960Y1097382D01*
Y1117410D01*
X1507880D01*
Y1095330D01*
X1513342D01*
X1513645Y1093806D01*
X1511875Y1093073D01*
X1508956Y1090834D01*
X1506717Y1087915D01*
X1505310Y1084517D01*
X1504830Y1080870D01*
X1505310Y1077223D01*
X1506717Y1073825D01*
X1508956Y1070907D01*
X1511875Y1068667D01*
X1515067Y1067345D01*
X1515195Y1066738D01*
X1515050Y1065762D01*
X1514659Y1065658D01*
X1512141Y1064204D01*
X1511123Y1063186D01*
X1508956Y1061524D01*
X1500036Y1052604D01*
X1497797Y1049685D01*
X1496808Y1047297D01*
X1495284Y1047600D01*
Y1181062D01*
X1496651Y1181737D01*
X1497588Y1181017D01*
X1500986Y1179610D01*
X1504633Y1179129D01*
X1504634Y1179129D01*
X1515890D01*
X1516999Y1179275D01*
X1517467Y1179150D01*
X1520373D01*
X1523181Y1179902D01*
X1525699Y1181356D01*
X1527754Y1183411D01*
X1529208Y1185929D01*
X1529960Y1188737D01*
Y1191643D01*
X1529835Y1192111D01*
X1529981Y1193220D01*
X1529500Y1196867D01*
X1528093Y1200265D01*
X1525898Y1203126D01*
X1525981Y1203671D01*
X1526313Y1204650D01*
X1529960D01*
Y1226730D01*
X1507880D01*
Y1211892D01*
X1506472Y1211309D01*
X1491157Y1226624D01*
X1488239Y1228863D01*
X1484840Y1230270D01*
X1481193Y1230751D01*
X1172210D01*
Y1238250D01*
X1129030D01*
Y1195070D01*
X1136529D01*
Y1141556D01*
X1119967Y1124994D01*
X1117774Y1122136D01*
X1117623Y1122020D01*
X1104590D01*
Y1104349D01*
X1094433Y1094192D01*
X1070610D01*
X1068876Y1093847D01*
X1067405Y1092865D01*
X1067405Y1092865D01*
X961995Y987455D01*
X961013Y985984D01*
X960668Y984250D01*
Y814099D01*
X959741Y813564D01*
X958086Y811909D01*
X956916Y809881D01*
X956310Y807620D01*
Y805280D01*
X956916Y803019D01*
X958086Y800991D01*
X959741Y799336D01*
X961769Y798166D01*
X964030Y797560D01*
X966370D01*
X968631Y798166D01*
X970659Y799336D01*
X972314Y800991D01*
X973139Y802420D01*
X974663Y802012D01*
Y791210D01*
X974781Y790617D01*
X973802Y789093D01*
X952971D01*
X951865Y790073D01*
Y792347D01*
X950995Y794447D01*
X949387Y796055D01*
X947287Y796925D01*
X945013D01*
X942913Y796055D01*
X941305Y794447D01*
X940435Y792347D01*
Y790073D01*
X941305Y787973D01*
X942259Y787019D01*
X941628Y785495D01*
X941203D01*
X939103Y784625D01*
X937495Y783017D01*
X936625Y780917D01*
Y780603D01*
X935101Y779972D01*
X924221Y790852D01*
Y1040488D01*
X944315Y1060582D01*
X944792Y1061296D01*
X944960Y1062139D01*
Y1093779D01*
X944795Y1094607D01*
X944833Y1094647D01*
X946063Y1095450D01*
X947387Y1094434D01*
X949241Y1093666D01*
X951230Y1093404D01*
X953770D01*
X955759Y1093666D01*
X957613Y1094434D01*
X959177Y1095634D01*
X959308Y1095617D01*
X960701Y1095102D01*
Y1033400D01*
X960899Y1032409D01*
X961189Y1031708D01*
X961750Y1030867D01*
X962288Y1030331D01*
X963128Y1029769D01*
X963829Y1029479D01*
X964820Y1029281D01*
X984630D01*
X985621Y1029479D01*
X986322Y1029769D01*
X987162Y1030331D01*
X987699Y1030867D01*
X988261Y1031708D01*
X988551Y1032409D01*
X988749Y1033400D01*
Y1033780D01*
Y1168400D01*
Y1168780D01*
X988551Y1169771D01*
X988261Y1170472D01*
X987699Y1171312D01*
X987162Y1171849D01*
X986322Y1172411D01*
X985621Y1172701D01*
X984630Y1172899D01*
X818770D01*
X817779Y1172701D01*
X817078Y1172411D01*
X816237Y1171849D01*
X815701Y1171312D01*
X815139Y1170472D01*
X814849Y1169771D01*
X814651Y1168780D01*
Y1168400D01*
Y1013460D01*
Y1013080D01*
X814848Y1012089D01*
X815139Y1011388D01*
X815701Y1010547D01*
X816237Y1010011D01*
X817078Y1009449D01*
X817779Y1009159D01*
X818770Y1008961D01*
X890650D01*
X891641Y1009158D01*
X892342Y1009449D01*
X893182Y1010011D01*
X893719Y1010547D01*
X894281Y1011388D01*
X894571Y1012089D01*
X894769Y1013080D01*
Y1032890D01*
X894571Y1033881D01*
X894281Y1034582D01*
X893719Y1035423D01*
X893183Y1035959D01*
X892342Y1036521D01*
X891641Y1036811D01*
X890650Y1037009D01*
X842699D01*
Y1071048D01*
X844223Y1071800D01*
X844517Y1071574D01*
X846371Y1070806D01*
X848360Y1070544D01*
X850349Y1070806D01*
X852203Y1071574D01*
X853795Y1072795D01*
X855016Y1074387D01*
X855784Y1076241D01*
X855829Y1076582D01*
X856036Y1076615D01*
X857560Y1075316D01*
Y1074120D01*
X863600D01*
X869640D01*
Y1078890D01*
X869640Y1078890D01*
Y1079810D01*
X869640D01*
X869640Y1080414D01*
Y1091890D01*
X867288D01*
X866657Y1093414D01*
X870628Y1097385D01*
X873572D01*
X873858Y1097144D01*
X874499Y1096090D01*
X876860D01*
X876973Y1096014D01*
X878550Y1095700D01*
X887050D01*
Y1093940D01*
X878550D01*
X876973Y1093626D01*
X876860Y1093550D01*
X874684D01*
X874744Y1093244D01*
X875362Y1092320D01*
X874744Y1091396D01*
X874431Y1089820D01*
X874744Y1088244D01*
X875637Y1086907D01*
X876974Y1086014D01*
X878550Y1085701D01*
X895550D01*
X897126Y1086014D01*
X898463Y1086907D01*
X899332Y1086993D01*
X902039Y1084286D01*
Y1080514D01*
X899461Y1077936D01*
X899450Y1077920D01*
X895200D01*
Y1071880D01*
Y1065840D01*
X898816D01*
Y1063950D01*
X895200D01*
Y1057910D01*
Y1051870D01*
X898816D01*
Y1047163D01*
X898983Y1046321D01*
X899461Y1045607D01*
X902039Y1043028D01*
Y793115D01*
X900309D01*
X898209Y792245D01*
X896601Y790637D01*
X895731Y788537D01*
Y786263D01*
X896601Y784163D01*
X898209Y782555D01*
X900309Y781685D01*
X902583D01*
X904683Y782555D01*
X905816Y783688D01*
X907340Y783056D01*
Y767308D01*
X907327Y767213D01*
X906085Y765991D01*
X905647Y766078D01*
X905392D01*
X905142Y766128D01*
X904629D01*
X904240Y766179D01*
X903851Y766128D01*
X903338D01*
X903088Y766078D01*
X902833D01*
X901579Y765829D01*
X901186Y765777D01*
X900828Y765629D01*
X900578Y765579D01*
X898911Y764888D01*
X898699Y764747D01*
X898341Y764598D01*
X898026Y764357D01*
X896963Y763647D01*
X896783Y763466D01*
X896571Y763325D01*
X896208Y762962D01*
X895897Y762723D01*
X895658Y762412D01*
X895295Y762049D01*
X895154Y761837D01*
X894973Y761657D01*
X894263Y760594D01*
X894022Y760279D01*
X893873Y759921D01*
X893732Y759709D01*
X893041Y758042D01*
X892991Y757792D01*
X892843Y757434D01*
X892791Y757041D01*
X892542Y755787D01*
Y755532D01*
X892492Y755282D01*
Y754769D01*
X892441Y754380D01*
X892492Y753991D01*
Y753478D01*
X892542Y753228D01*
Y752973D01*
X892791Y751719D01*
X892843Y751326D01*
X892991Y750968D01*
X893041Y750718D01*
X893732Y749051D01*
X893873Y748839D01*
X894022Y748481D01*
X894263Y748166D01*
X894973Y747103D01*
X895062Y747014D01*
X895028Y746604D01*
X894830Y746103D01*
X894361Y745490D01*
X862330D01*
Y730040D01*
X861940Y729650D01*
Y713070D01*
X881330D01*
Y680523D01*
X878258Y677450D01*
X878023Y677216D01*
X876850Y677702D01*
Y678034D01*
Y683120D01*
X858499D01*
X856976Y684642D01*
Y706289D01*
X856730Y707528D01*
X856028Y708578D01*
X850020Y714586D01*
Y729650D01*
X831940D01*
Y713070D01*
X842681D01*
X843286Y712164D01*
X850502Y704948D01*
Y683302D01*
X850748Y682063D01*
X851450Y681013D01*
X856077Y676386D01*
X857127Y675684D01*
X857970Y675517D01*
Y667040D01*
Y660540D01*
X862330D01*
Y648970D01*
X875030D01*
Y633789D01*
X870555Y629315D01*
X869573Y627844D01*
X869228Y626110D01*
Y610235D01*
X863600D01*
Y612140D01*
X858520D01*
Y610235D01*
X847090D01*
Y612140D01*
X842010D01*
Y610235D01*
X841375D01*
Y599366D01*
Y590600D01*
X826820D01*
Y737820D01*
X854710D01*
X855701Y738017D01*
X856541Y738579D01*
X857103Y739419D01*
X857300Y740410D01*
Y764540D01*
X857103Y765531D01*
X856541Y766371D01*
X855701Y766933D01*
X854710Y767130D01*
X792480D01*
Y1258570D01*
X1676400D01*
Y280689D01*
D02*
G37*
G36*
X895270Y1143327D02*
X895044Y1143033D01*
X894276Y1141179D01*
X894014Y1139190D01*
Y1136650D01*
X894276Y1134661D01*
X895044Y1132807D01*
X896265Y1131215D01*
X897857Y1129994D01*
X899711Y1129226D01*
X901700Y1128964D01*
X903689Y1129226D01*
X905543Y1129994D01*
X906092Y1130415D01*
X921160Y1115347D01*
X920808Y1114499D01*
X920435Y1113916D01*
X918974Y1113626D01*
X917637Y1112733D01*
X916744Y1111396D01*
X916431Y1109820D01*
X916607Y1108934D01*
X915608Y1107410D01*
X910473D01*
X883577Y1134306D01*
X883724Y1134661D01*
X883986Y1136650D01*
D01*
X877570D01*
Y1129131D01*
X878289Y1129226D01*
X880143Y1129994D01*
X880381Y1130177D01*
X895094Y1115463D01*
X894463Y1113939D01*
X885857D01*
X885481Y1114502D01*
X879407Y1120576D01*
X878692Y1121054D01*
X877850Y1121221D01*
X869640D01*
Y1125060D01*
X857560D01*
Y1117080D01*
X857463Y1117026D01*
X856036Y1116689D01*
X855065Y1117955D01*
X853473Y1119176D01*
X851619Y1119944D01*
X849630Y1120206D01*
X847641Y1119944D01*
X845787Y1119176D01*
X844223Y1117976D01*
X844092Y1117993D01*
X842699Y1118508D01*
Y1144851D01*
X869118D01*
X869870Y1143327D01*
X869644Y1143033D01*
X868876Y1141179D01*
X868614Y1139190D01*
D01*
X876300D01*
X883986D01*
X883724Y1141179D01*
X882956Y1143033D01*
X882730Y1143327D01*
X883482Y1144851D01*
X894518D01*
X895270Y1143327D01*
D02*
G37*
G36*
X1333401Y1135775D02*
Y986840D01*
X1293450D01*
Y991540D01*
X1273471D01*
Y1105258D01*
X1283612Y1115399D01*
X1285579D01*
Y1109923D01*
X1284521Y1109784D01*
X1282667Y1109016D01*
X1281075Y1107795D01*
X1279854Y1106203D01*
X1279086Y1104349D01*
X1278824Y1102360D01*
X1279086Y1100371D01*
X1279854Y1098517D01*
X1281075Y1096925D01*
X1282667Y1095704D01*
X1284521Y1094936D01*
X1286510Y1094674D01*
X1289050D01*
X1291039Y1094936D01*
X1292893Y1095704D01*
X1294485Y1096925D01*
X1295706Y1098517D01*
X1296474Y1100371D01*
X1296736Y1102360D01*
X1296474Y1104349D01*
X1295706Y1106203D01*
X1294485Y1107795D01*
X1292893Y1109016D01*
X1291039Y1109784D01*
X1289981Y1109923D01*
Y1115399D01*
X1305021D01*
X1305443Y1114768D01*
X1307325Y1113510D01*
X1308397Y1113297D01*
Y1111743D01*
X1307325Y1111530D01*
X1305443Y1110272D01*
X1304185Y1108390D01*
X1303996Y1107440D01*
X1315720D01*
X1327444D01*
X1327255Y1108390D01*
X1325997Y1110272D01*
X1324115Y1111530D01*
X1323043Y1111743D01*
Y1113297D01*
X1324115Y1113510D01*
X1325997Y1114768D01*
X1327255Y1116650D01*
X1327697Y1118870D01*
X1327255Y1121090D01*
X1325997Y1122972D01*
X1324115Y1124230D01*
X1323043Y1124443D01*
Y1125997D01*
X1324115Y1126210D01*
X1325997Y1127468D01*
X1327255Y1129350D01*
X1327697Y1131570D01*
X1327255Y1133790D01*
X1325997Y1135672D01*
X1324115Y1136930D01*
X1323043Y1137143D01*
Y1138651D01*
X1323416Y1138771D01*
X1324115Y1138910D01*
X1324367Y1139079D01*
X1324404Y1139090D01*
X1330085D01*
X1333401Y1135775D01*
D02*
G37*
G36*
X960701Y1107077D02*
X959308Y1106563D01*
X959177Y1106546D01*
X957613Y1107746D01*
X955759Y1108514D01*
X953770Y1108776D01*
X951230D01*
X949241Y1108514D01*
X947387Y1107746D01*
X945795Y1106525D01*
X944574Y1104933D01*
X943806Y1103079D01*
X943720Y1102427D01*
X942163Y1102273D01*
X941979Y1102494D01*
X941416Y1103545D01*
X941416Y1103550D01*
X939240D01*
X939127Y1103626D01*
X937550Y1103940D01*
X929050D01*
Y1105700D01*
X937550D01*
X939127Y1106014D01*
X939240Y1106090D01*
X941416D01*
X941356Y1106396D01*
X940738Y1107320D01*
X941356Y1108244D01*
X941669Y1109820D01*
X941356Y1111396D01*
X940463Y1112733D01*
X939126Y1113626D01*
X937550Y1113939D01*
X928607D01*
X928231Y1114502D01*
X908816Y1133917D01*
X909124Y1134661D01*
X909386Y1136650D01*
Y1139190D01*
X909124Y1141179D01*
X908356Y1143033D01*
X908130Y1143327D01*
X908882Y1144851D01*
X960701D01*
Y1107077D01*
D02*
G37*
G36*
X1230778Y1002533D02*
X1233170Y1000141D01*
Y999590D01*
X1233776Y997329D01*
X1234946Y995301D01*
X1236601Y993646D01*
X1238629Y992476D01*
X1240890Y991870D01*
X1243230D01*
X1245491Y992476D01*
X1247519Y993646D01*
X1249174Y995301D01*
X1249583Y996010D01*
X1262719D01*
Y910232D01*
X1259309Y906822D01*
X1223075D01*
X1222558Y908346D01*
X1223365Y908965D01*
X1224586Y910557D01*
X1224924Y911374D01*
X1225447Y912412D01*
X1226820Y912433D01*
X1247140D01*
X1248379Y912679D01*
X1249429Y913381D01*
X1250131Y914431D01*
X1250377Y915670D01*
Y979170D01*
X1250131Y980409D01*
X1249429Y981459D01*
X1248379Y982161D01*
X1247140Y982407D01*
X1226820D01*
X1225581Y982161D01*
X1224531Y981459D01*
X1223829Y980409D01*
X1223583Y979170D01*
Y922650D01*
X1222059Y921803D01*
X1221401Y922212D01*
Y990010D01*
X1229030D01*
Y1002405D01*
X1230554Y1002868D01*
X1230778Y1002533D01*
D02*
G37*
G36*
X1285397Y842436D02*
X1285174Y840740D01*
X1285436Y838751D01*
X1286204Y836897D01*
X1287425Y835305D01*
X1289017Y834084D01*
X1290871Y833316D01*
X1292860Y833054D01*
X1295400D01*
X1297389Y833316D01*
X1299243Y834084D01*
X1300835Y835305D01*
X1302056Y836897D01*
X1302202Y837249D01*
X1304150Y837970D01*
X1304450Y837819D01*
X1304620Y836965D01*
X1305878Y835083D01*
X1307760Y833826D01*
X1309980Y833384D01*
X1314885D01*
Y839185D01*
X1317425D01*
Y833384D01*
X1322330D01*
X1324550Y833826D01*
X1326432Y835083D01*
X1326797Y835628D01*
X1328320Y835166D01*
Y821740D01*
X1291393D01*
X1281480Y831653D01*
Y843960D01*
X1284589D01*
X1285397Y842436D01*
D02*
G37*
G36*
X1192624Y856582D02*
X1193339Y856105D01*
X1194181Y855938D01*
X1208212D01*
X1208734Y854677D01*
X1209955Y853085D01*
X1211547Y851864D01*
X1213401Y851096D01*
X1215390Y850834D01*
X1217930D01*
X1219919Y851096D01*
X1221773Y851864D01*
X1223329Y853058D01*
X1223500Y853034D01*
X1224853Y852521D01*
Y809687D01*
X1194105D01*
X1193802Y811211D01*
X1193833Y811224D01*
X1195425Y812445D01*
X1196646Y814037D01*
X1197414Y815891D01*
X1197509Y816610D01*
X1188720D01*
Y819150D01*
X1197509D01*
X1197414Y819869D01*
X1196646Y821723D01*
X1195425Y823315D01*
X1193833Y824536D01*
X1192439Y825113D01*
Y826785D01*
X1192144Y828272D01*
X1191302Y829532D01*
X1182040Y838794D01*
Y841820D01*
X1172250D01*
Y844360D01*
X1182040D01*
Y851300D01*
Y857800D01*
Y865616D01*
X1183591D01*
X1192624Y856582D01*
D02*
G37*
G36*
X1467103Y935890D02*
Y643790D01*
X1467583Y640143D01*
X1468991Y636745D01*
X1471230Y633826D01*
X1494670Y610387D01*
X1494670Y610387D01*
X1497588Y608147D01*
X1500986Y606740D01*
X1504633Y606259D01*
X1504634Y606259D01*
X1513292D01*
X1513595Y604735D01*
X1511875Y604023D01*
X1508956Y601783D01*
X1506717Y598865D01*
X1505310Y595467D01*
X1504830Y591820D01*
X1505310Y588173D01*
X1506717Y584775D01*
X1508956Y581856D01*
X1511180Y579633D01*
Y579120D01*
X1511660Y575473D01*
X1513067Y572075D01*
X1515307Y569156D01*
X1532648Y551815D01*
X1531427Y550593D01*
X1529187Y547675D01*
X1527930Y544640D01*
X1507880D01*
Y522560D01*
X1511527D01*
X1511907Y521439D01*
X1511929Y521036D01*
X1508956Y518064D01*
X1506717Y515145D01*
X1505310Y511747D01*
X1504830Y508100D01*
X1505310Y504453D01*
X1506717Y501055D01*
X1507046Y500627D01*
X1506372Y499260D01*
X1466950D01*
X1465959Y499063D01*
X1465119Y498501D01*
X1451373Y484755D01*
X1449965Y485338D01*
Y792079D01*
X1451170Y793022D01*
X1451209Y792999D01*
X1453147Y792480D01*
X1455153D01*
X1457091Y792999D01*
X1458829Y794003D01*
X1460247Y795421D01*
X1461251Y797159D01*
X1461770Y799097D01*
Y801103D01*
X1461251Y803041D01*
X1460247Y804779D01*
X1458829Y806198D01*
X1457091Y807201D01*
X1455153Y807720D01*
X1455015D01*
X1454384Y809244D01*
X1455981Y810841D01*
X1456543Y811681D01*
X1456740Y812672D01*
Y1059605D01*
X1457091Y1059699D01*
X1458829Y1060703D01*
X1460247Y1062121D01*
X1461251Y1063859D01*
X1461770Y1065797D01*
Y1067803D01*
X1461251Y1069741D01*
X1460247Y1071479D01*
X1458829Y1072897D01*
X1457091Y1073901D01*
X1455153Y1074420D01*
X1453147D01*
X1451209Y1073901D01*
X1449471Y1072897D01*
X1448053Y1071479D01*
X1447049Y1069741D01*
X1446530Y1067803D01*
Y1065797D01*
X1447049Y1063859D01*
X1448053Y1062121D01*
X1449471Y1060703D01*
X1451209Y1059699D01*
X1451560Y1059605D01*
Y813745D01*
X1439098Y801283D01*
X1437690Y801866D01*
Y1008805D01*
X1438041Y1008899D01*
X1439779Y1009902D01*
X1441198Y1011321D01*
X1442201Y1013059D01*
X1442720Y1014997D01*
Y1017003D01*
X1442201Y1018941D01*
X1441198Y1020679D01*
X1439779Y1022097D01*
X1438041Y1023101D01*
X1436103Y1023620D01*
X1434097D01*
X1432159Y1023101D01*
X1430421Y1022097D01*
X1429003Y1020679D01*
X1427999Y1018941D01*
X1427480Y1017003D01*
Y1014997D01*
X1427999Y1013059D01*
X1429003Y1011321D01*
X1430421Y1009902D01*
X1432159Y1008899D01*
X1432510Y1008805D01*
Y794695D01*
X1418029Y780214D01*
X1417467Y779373D01*
X1417270Y778382D01*
Y511613D01*
X1408627Y502970D01*
X1344733D01*
X1304851Y542851D01*
X1304011Y543413D01*
X1303020Y543610D01*
X1176880D01*
Y550350D01*
X1152300D01*
Y542947D01*
X1151499Y542411D01*
X1139387Y530300D01*
X1121643D01*
X1121474Y531149D01*
X1121366Y531310D01*
X1120922Y532460D01*
X1121366Y533610D01*
X1121474Y533771D01*
X1121710Y534955D01*
Y535940D01*
X1115110D01*
X1108511D01*
Y534955D01*
X1108746Y533771D01*
X1108854Y533610D01*
X1109298Y532460D01*
X1108854Y531310D01*
X1108746Y531149D01*
X1108511Y529965D01*
Y525455D01*
X1108746Y524271D01*
X1109417Y523267D01*
X1110421Y522596D01*
X1111605Y522361D01*
X1118615D01*
X1119799Y522596D01*
X1120803Y523267D01*
X1121474Y524271D01*
X1121643Y525120D01*
X1139387D01*
X1148179Y516329D01*
X1149019Y515767D01*
X1150010Y515570D01*
X1152300D01*
Y511370D01*
X1176880D01*
Y518110D01*
X1307027D01*
X1336749Y488389D01*
X1337589Y487827D01*
X1338580Y487630D01*
X1407139D01*
X1414131Y480638D01*
X1414029Y480461D01*
X1413510Y478523D01*
Y476517D01*
X1414029Y474579D01*
X1415033Y472841D01*
X1416451Y471423D01*
X1418189Y470419D01*
X1420127Y469900D01*
X1420265D01*
X1420896Y468376D01*
X1400880Y448360D01*
X1061310D01*
Y452560D01*
X1051053D01*
Y457984D01*
X1051504Y458658D01*
X1051701Y459649D01*
X1051504Y460640D01*
X1050942Y461480D01*
X1029261Y483161D01*
X1028421Y483723D01*
X1028290Y483749D01*
Y488120D01*
X1029501Y488875D01*
X1033441D01*
X1037383Y484933D01*
X1038643Y484091D01*
X1040130Y483795D01*
X1066397D01*
X1067306Y482221D01*
X1068961Y480566D01*
X1070989Y479396D01*
X1073250Y478790D01*
X1075590D01*
X1077851Y479396D01*
X1079879Y480566D01*
X1081534Y482221D01*
X1082704Y484249D01*
X1083310Y486510D01*
Y488850D01*
X1082704Y491111D01*
X1081534Y493139D01*
X1079879Y494794D01*
X1078305Y495703D01*
Y497501D01*
X1092407Y511603D01*
X1093249Y512863D01*
X1093545Y514350D01*
Y522446D01*
X1094299Y522596D01*
X1095303Y523267D01*
X1095974Y524271D01*
X1096209Y525455D01*
Y529965D01*
X1095974Y531149D01*
X1095303Y532153D01*
X1094299Y532824D01*
X1093115Y533059D01*
X1086105D01*
X1084921Y532824D01*
X1083917Y532153D01*
X1083246Y531149D01*
X1083011Y529965D01*
Y525455D01*
X1083124Y524886D01*
X1081769Y523532D01*
X1080460Y524074D01*
Y524970D01*
X1080460Y525574D01*
Y529740D01*
X1074420D01*
X1068380D01*
Y525574D01*
X1068380Y524050D01*
X1068380Y523446D01*
Y511970D01*
X1079631D01*
X1080262Y510446D01*
X1071673Y501857D01*
X1070831Y500597D01*
X1070535Y499110D01*
Y495703D01*
X1068961Y494794D01*
X1067306Y493139D01*
X1066397Y491565D01*
X1041739D01*
X1037797Y495507D01*
X1036537Y496349D01*
X1035050Y496645D01*
X992333D01*
X990846Y496349D01*
X989586Y495507D01*
X977994Y483915D01*
X976470Y484546D01*
Y489910D01*
X964994D01*
X963470Y489910D01*
X962866Y489910D01*
X958700D01*
Y483870D01*
Y477830D01*
X962866D01*
X964390Y477830D01*
X964994Y477830D01*
X967875D01*
X968631Y476306D01*
X968366Y475909D01*
X968131Y474725D01*
Y467715D01*
X968366Y466531D01*
X968691Y466044D01*
X968010Y464520D01*
X961830D01*
Y468220D01*
X948250D01*
Y454478D01*
X946726Y453847D01*
X944236Y456337D01*
Y582433D01*
X948386Y586584D01*
X949910Y585952D01*
Y554990D01*
X950107Y553999D01*
X950669Y553159D01*
X963219Y540609D01*
X964059Y540047D01*
X965050Y539850D01*
X1039362D01*
X1040440Y538773D01*
X1040440Y535480D01*
X1040440Y534876D01*
Y523400D01*
X1043890D01*
Y521660D01*
X1036114D01*
X1034590Y521660D01*
X1033986Y521660D01*
X1029820D01*
Y515620D01*
Y509580D01*
X1033986D01*
X1035510Y509580D01*
X1036114Y509580D01*
X1047590D01*
Y517998D01*
X1048311Y518719D01*
X1048873Y519559D01*
X1049070Y520550D01*
Y523400D01*
X1052520D01*
Y534876D01*
X1052520Y536400D01*
X1052520Y537004D01*
Y544818D01*
X1055023Y547320D01*
X1058320D01*
Y543120D01*
X1082900D01*
X1083917Y542267D01*
X1084921Y541596D01*
X1086105Y541361D01*
X1093115D01*
X1094299Y541596D01*
X1095303Y542267D01*
X1095974Y543271D01*
X1096209Y544455D01*
Y548965D01*
X1095974Y550149D01*
X1095303Y551153D01*
X1094299Y551824D01*
X1093115Y552059D01*
X1086105D01*
X1085623Y551964D01*
X1084075Y552755D01*
X1083885Y552965D01*
X1083798Y553435D01*
X1090919Y560557D01*
X1091480Y561397D01*
X1091634Y562170D01*
X1108300D01*
Y566370D01*
X1111660D01*
Y562170D01*
X1112520D01*
Y552059D01*
X1111605D01*
X1110421Y551824D01*
X1109417Y551153D01*
X1108746Y550149D01*
X1108511Y548965D01*
Y544455D01*
X1108746Y543271D01*
X1108854Y543110D01*
X1109298Y541960D01*
X1108854Y540810D01*
X1108746Y540649D01*
X1108511Y539465D01*
Y538480D01*
X1115110D01*
X1121710D01*
Y539465D01*
X1121474Y540649D01*
X1121366Y540810D01*
X1120922Y541960D01*
X1121366Y543110D01*
X1121474Y543271D01*
X1121710Y544455D01*
Y548965D01*
X1121474Y550149D01*
X1120803Y551153D01*
X1119799Y551824D01*
X1118615Y552059D01*
X1117700D01*
Y562170D01*
X1128680D01*
Y568960D01*
Y575750D01*
X1111660D01*
Y571550D01*
X1108300D01*
Y575750D01*
X1083720D01*
Y562170D01*
X1083720D01*
X1084156Y561118D01*
X1079737Y556700D01*
X1058320D01*
Y552500D01*
X1053950D01*
X1052959Y552303D01*
X1052119Y551741D01*
X1048857Y548480D01*
X1040440D01*
Y545030D01*
X966123D01*
X955090Y556063D01*
Y560656D01*
X956589Y561487D01*
X957580Y561290D01*
X1014222D01*
X1015213Y561487D01*
X1016053Y562049D01*
X1016615Y562889D01*
X1016812Y563880D01*
Y588010D01*
Y740410D01*
Y764540D01*
X1016615Y765531D01*
X1016053Y766371D01*
X1015213Y766933D01*
X1014222Y767130D01*
X968938D01*
X967920Y768654D01*
X968375Y769753D01*
Y772027D01*
X968209Y772428D01*
X969231Y773769D01*
X1122680D01*
X1123522Y773936D01*
X1124237Y774414D01*
X1154865Y805042D01*
X1156273Y804458D01*
Y791210D01*
X1156519Y789971D01*
X1157221Y788921D01*
X1158271Y788219D01*
X1159510Y787973D01*
X1247140D01*
X1248379Y788219D01*
X1249429Y788921D01*
X1250131Y789971D01*
X1250377Y791210D01*
Y859790D01*
X1250131Y861029D01*
X1249429Y862079D01*
X1248379Y862781D01*
X1247140Y863027D01*
X1228126D01*
X1228051Y863105D01*
X1227384Y864441D01*
X1233232Y870289D01*
X1244958D01*
X1260179Y855068D01*
Y715950D01*
X1237660D01*
Y714366D01*
X1210395D01*
Y718566D01*
X1194315D01*
Y716955D01*
X1182910D01*
X1163427Y736439D01*
X1163595Y737715D01*
Y739037D01*
X1163358Y740838D01*
X1162663Y742517D01*
X1161557Y743958D01*
X1160115Y745064D01*
X1158436Y745760D01*
X1156635Y745997D01*
X1154834Y745760D01*
X1153155Y745064D01*
X1151713Y743958D01*
X1150607Y742517D01*
X1149912Y740838D01*
X1149675Y739037D01*
Y737715D01*
X1149707Y737470D01*
X1148506Y736270D01*
X1147384Y734589D01*
X1146989Y732607D01*
Y708660D01*
Y680097D01*
X1145093D01*
X1143289Y679860D01*
X1141609Y679163D01*
X1140166Y678056D01*
X1139058Y676613D01*
X1138782Y675945D01*
X1106201D01*
X1106201Y675945D01*
X1104467Y675600D01*
X1103449Y674920D01*
X1103251Y675034D01*
X1100990Y675640D01*
X1098650D01*
X1096389Y675034D01*
X1094361Y673864D01*
X1092706Y672209D01*
X1091536Y670181D01*
X1090930Y667920D01*
Y665580D01*
X1091536Y663319D01*
X1092706Y661291D01*
X1094361Y659636D01*
X1096389Y658466D01*
X1098650Y657860D01*
X1100990D01*
X1103251Y658466D01*
X1105279Y659636D01*
X1106934Y661291D01*
X1108104Y663319D01*
X1108710Y665580D01*
Y666881D01*
X1140186D01*
X1141609Y665788D01*
X1143289Y665092D01*
X1145093Y664855D01*
X1168177D01*
X1169980Y665092D01*
X1171661Y665788D01*
X1173104Y666896D01*
X1174212Y668339D01*
X1174908Y670020D01*
X1175145Y671823D01*
Y673129D01*
X1174908Y674932D01*
X1174212Y676613D01*
X1173104Y678056D01*
X1171661Y679163D01*
X1169980Y679860D01*
X1168177Y680097D01*
X1157348D01*
Y698781D01*
X1158872Y699395D01*
X1160505Y698452D01*
X1162766Y697846D01*
X1165107D01*
X1167368Y698452D01*
X1169395Y699622D01*
X1171050Y701278D01*
X1172221Y703305D01*
X1172826Y705566D01*
Y707907D01*
X1172221Y710168D01*
X1171302Y711759D01*
X1172521Y712695D01*
X1177103Y708113D01*
X1178783Y706991D01*
X1180765Y706596D01*
X1194315D01*
Y704986D01*
X1210395D01*
Y709186D01*
X1237660D01*
Y701370D01*
X1260179D01*
Y589280D01*
X1260346Y588438D01*
X1260824Y587724D01*
X1282698Y565849D01*
X1282698Y565849D01*
X1283039Y565508D01*
Y561283D01*
X1281981Y561144D01*
X1280127Y560376D01*
X1278535Y559155D01*
X1277314Y557563D01*
X1276546Y555709D01*
X1276284Y553720D01*
X1276546Y551731D01*
X1277314Y549877D01*
X1278535Y548285D01*
X1280127Y547064D01*
X1281981Y546296D01*
X1283970Y546034D01*
X1286510D01*
X1288499Y546296D01*
X1290353Y547064D01*
X1291945Y548285D01*
X1293166Y549877D01*
X1293922Y550106D01*
X1295060Y549346D01*
X1297280Y548904D01*
X1302185D01*
Y554706D01*
X1303455D01*
Y555975D01*
X1315179D01*
X1314990Y556926D01*
X1313732Y558808D01*
X1311850Y560065D01*
X1310778Y560279D01*
Y561833D01*
X1311850Y562046D01*
X1313732Y563303D01*
X1314990Y565185D01*
X1315431Y567406D01*
X1314990Y569626D01*
X1313732Y571508D01*
X1311850Y572765D01*
X1310778Y572979D01*
Y574533D01*
X1311850Y574746D01*
X1313732Y576003D01*
X1314990Y577885D01*
X1315431Y580106D01*
X1314990Y582326D01*
X1313732Y584208D01*
X1311850Y585465D01*
X1310778Y585679D01*
Y587233D01*
X1311850Y587446D01*
X1313732Y588703D01*
X1314990Y590585D01*
X1315431Y592805D01*
X1314990Y595026D01*
X1314440Y595849D01*
X1314498Y596139D01*
Y613273D01*
X1319659Y618434D01*
X1320782Y620115D01*
X1321176Y622097D01*
X1321176Y622097D01*
Y624170D01*
X1327540D01*
Y629836D01*
X1328889Y630737D01*
X1337162Y639011D01*
X1337249Y639140D01*
X1338323Y640052D01*
X1338323Y640052D01*
D01*
X1339460Y639706D01*
X1339460Y639397D01*
X1339460Y639397D01*
X1339460Y639388D01*
Y624170D01*
X1344383D01*
Y621798D01*
X1343305Y620720D01*
X1340660Y620720D01*
X1340056Y620720D01*
X1328580D01*
Y608640D01*
X1330735D01*
Y572920D01*
X1331031Y571433D01*
X1331873Y570173D01*
X1338373Y563673D01*
X1339633Y562831D01*
X1341120Y562535D01*
X1347977D01*
X1348710Y562046D01*
X1349782Y561833D01*
Y560279D01*
X1348710Y560065D01*
X1346828Y558808D01*
X1345570Y556926D01*
X1345128Y554706D01*
X1345570Y552485D01*
X1346828Y550603D01*
X1348710Y549346D01*
X1350930Y548904D01*
X1363280D01*
X1363997Y549047D01*
X1365175Y548080D01*
Y543368D01*
X1363722D01*
Y530788D01*
X1368410D01*
Y528745D01*
X1368706Y527258D01*
X1369548Y525998D01*
X1376090Y519456D01*
Y510870D01*
X1402670D01*
Y519456D01*
X1409151Y525937D01*
X1409993Y527197D01*
X1410289Y528684D01*
Y530788D01*
X1412802D01*
Y537411D01*
X1412904Y537589D01*
X1413510Y539850D01*
Y542190D01*
X1412904Y544451D01*
X1411734Y546479D01*
X1410079Y548134D01*
X1408051Y549304D01*
X1405790Y549910D01*
X1403450D01*
X1401189Y549304D01*
X1399161Y548134D01*
X1397506Y546479D01*
X1396336Y544451D01*
X1395730Y542190D01*
Y539850D01*
X1396336Y537589D01*
X1397506Y535561D01*
X1397722Y535346D01*
Y530788D01*
X1400859D01*
X1401490Y529264D01*
X1397676Y525450D01*
X1381084D01*
X1377270Y529264D01*
X1377901Y530788D01*
X1378802D01*
Y543368D01*
X1372945D01*
Y551120D01*
X1372649Y552606D01*
X1371807Y553867D01*
X1368454Y557219D01*
X1368435Y557232D01*
X1367382Y558808D01*
X1365500Y560065D01*
X1364428Y560279D01*
Y561833D01*
X1365500Y562046D01*
X1367382Y563303D01*
X1367527Y563521D01*
X1382594D01*
X1384081Y563817D01*
X1385341Y564659D01*
X1386335Y565652D01*
X1388210Y565150D01*
X1390550D01*
X1392811Y565756D01*
X1394839Y566926D01*
X1396494Y568581D01*
X1397664Y570609D01*
X1398270Y572870D01*
Y575210D01*
X1397664Y577471D01*
X1396494Y579499D01*
X1394839Y581154D01*
X1392811Y582324D01*
X1390550Y582930D01*
X1388210D01*
X1385949Y582324D01*
X1383921Y581154D01*
X1382266Y579499D01*
X1381096Y577471D01*
X1380490Y575210D01*
Y572870D01*
X1380589Y572499D01*
X1379662Y571290D01*
X1367527D01*
X1367382Y571508D01*
X1365500Y572765D01*
X1364428Y572979D01*
Y574533D01*
X1365500Y574746D01*
X1367382Y576003D01*
X1367527Y576221D01*
X1374050D01*
X1375536Y576517D01*
X1376797Y577359D01*
X1385627Y586189D01*
X1386469Y587449D01*
X1386765Y588936D01*
Y604850D01*
X1402670D01*
Y613436D01*
X1409127Y619893D01*
X1409969Y621153D01*
X1410265Y622640D01*
Y624900D01*
X1413920D01*
Y637480D01*
X1399465D01*
X1398227Y638750D01*
X1398270Y638910D01*
Y641250D01*
X1397664Y643511D01*
X1396494Y645539D01*
X1394839Y647194D01*
X1392811Y648364D01*
X1390550Y648970D01*
X1388210D01*
X1385949Y648364D01*
X1383921Y647194D01*
X1382266Y645539D01*
X1381096Y643511D01*
X1380490Y641250D01*
Y638910D01*
X1380533Y638750D01*
X1379295Y637480D01*
X1364840D01*
Y624900D01*
X1376996D01*
X1378995Y622901D01*
Y619430D01*
X1376090D01*
Y604850D01*
X1378995D01*
Y590545D01*
X1372441Y583990D01*
X1367527D01*
X1367382Y584208D01*
X1365500Y585465D01*
X1364428Y585679D01*
Y587233D01*
X1365500Y587446D01*
X1367382Y588703D01*
X1368640Y590585D01*
X1369081Y592805D01*
X1368640Y595026D01*
X1367382Y596908D01*
X1365500Y598165D01*
X1363280Y598607D01*
X1358479D01*
Y599439D01*
X1358475Y599454D01*
Y601982D01*
X1358229Y603221D01*
X1357527Y604271D01*
X1356897Y604901D01*
Y608640D01*
X1356651Y609879D01*
X1355949Y610929D01*
X1353660Y613218D01*
Y620720D01*
X1350857D01*
Y624170D01*
X1357540D01*
Y640750D01*
X1340552Y640750D01*
X1339851Y640750D01*
X1339071Y641417D01*
D01*
X1339071Y641417D01*
X1338680Y642876D01*
Y707390D01*
Y784860D01*
Y877286D01*
Y891621D01*
X1338700Y892138D01*
X1340248Y892690D01*
X1340895Y892042D01*
Y872515D01*
X1341191Y871028D01*
X1342033Y869768D01*
X1358175Y853626D01*
X1357828Y851886D01*
X1358270Y849665D01*
X1359528Y847783D01*
X1361410Y846526D01*
X1362482Y846312D01*
Y844759D01*
X1361410Y844545D01*
X1359528Y843288D01*
X1358270Y841406D01*
X1357828Y839185D01*
X1358270Y836965D01*
X1359528Y835083D01*
X1361410Y833826D01*
X1363630Y833384D01*
X1374925D01*
Y820360D01*
X1373730D01*
Y807780D01*
X1380415D01*
Y803760D01*
X1380711Y802273D01*
X1381553Y801013D01*
X1386250Y796316D01*
Y787730D01*
X1412830D01*
Y802310D01*
X1409925D01*
Y805781D01*
X1411924Y807780D01*
X1422810D01*
Y820360D01*
X1408079D01*
X1407824Y821311D01*
X1406654Y823339D01*
X1404999Y824994D01*
X1402971Y826164D01*
X1400710Y826770D01*
X1398370D01*
X1396109Y826164D01*
X1394081Y824994D01*
X1392426Y823339D01*
X1391256Y821311D01*
X1390650Y819050D01*
Y816710D01*
X1391256Y814449D01*
X1392426Y812421D01*
X1394081Y810766D01*
X1396109Y809596D01*
X1398370Y808990D01*
X1400710D01*
X1400932Y809049D01*
X1402241Y807822D01*
X1402155Y807390D01*
Y802310D01*
X1391244D01*
X1388185Y805369D01*
Y807780D01*
X1388810D01*
Y820360D01*
X1382695D01*
Y836025D01*
X1382399Y837512D01*
X1381667Y838608D01*
X1381781Y839185D01*
X1381340Y841406D01*
X1380082Y843288D01*
X1378200Y844545D01*
X1377128Y844759D01*
Y846312D01*
X1378200Y846526D01*
X1380082Y847783D01*
X1380228Y848001D01*
X1385285D01*
X1386772Y848297D01*
X1388032Y849139D01*
X1396614Y857720D01*
X1398370Y857250D01*
X1400710D01*
X1402971Y857856D01*
X1404999Y859026D01*
X1406654Y860681D01*
X1407824Y862709D01*
X1408430Y864970D01*
Y867310D01*
X1407824Y869571D01*
X1406654Y871599D01*
X1404999Y873254D01*
X1402971Y874424D01*
X1400710Y875030D01*
X1398370D01*
X1398273Y875004D01*
X1397484Y876370D01*
X1399747Y878633D01*
X1400589Y879893D01*
X1400885Y881380D01*
Y890600D01*
X1414100D01*
Y905180D01*
X1415280Y906011D01*
X1415671Y906116D01*
X1417699Y907286D01*
X1419354Y908941D01*
X1420340Y910650D01*
X1425350D01*
Y923230D01*
X1413634D01*
X1413410Y923290D01*
X1411070D01*
X1410846Y923230D01*
X1410270D01*
Y923076D01*
X1408809Y922684D01*
X1406781Y921514D01*
X1405126Y919859D01*
X1403956Y917831D01*
X1403350Y915570D01*
Y913230D01*
X1403956Y910969D01*
X1404484Y910054D01*
X1404254Y909710D01*
X1403958Y908223D01*
Y905180D01*
X1396485D01*
Y909400D01*
X1396189Y910887D01*
X1395347Y912147D01*
X1391350Y916144D01*
Y923230D01*
X1376270D01*
Y910650D01*
X1385856D01*
X1388715Y907791D01*
Y905180D01*
X1387520D01*
Y890600D01*
X1393115D01*
Y882989D01*
X1379322Y869196D01*
X1378200Y869945D01*
X1377128Y870159D01*
Y871712D01*
X1378200Y871926D01*
X1380082Y873183D01*
X1381340Y875065D01*
X1381781Y877286D01*
X1381340Y879506D01*
X1380082Y881388D01*
X1378200Y882645D01*
X1375980Y883087D01*
X1367445D01*
X1367250Y884070D01*
X1367217Y884119D01*
Y892960D01*
X1366971Y894199D01*
X1366269Y895249D01*
X1363820Y897698D01*
Y905200D01*
X1362679D01*
Y911190D01*
X1370240D01*
Y927770D01*
X1352160D01*
Y911190D01*
X1356205D01*
Y905200D01*
X1350820Y905200D01*
X1350216Y905200D01*
X1338740Y905200D01*
X1338680Y906699D01*
Y911190D01*
X1340240D01*
Y921945D01*
X1342242Y923948D01*
X1343365Y925628D01*
X1343759Y927610D01*
Y942340D01*
Y970280D01*
Y982980D01*
Y1137920D01*
X1343365Y1139902D01*
X1342242Y1141582D01*
X1335892Y1147933D01*
X1334212Y1149055D01*
X1332230Y1149449D01*
X1324385D01*
X1324115Y1149630D01*
X1321895Y1150071D01*
X1321497D01*
Y1159439D01*
X1328894Y1166836D01*
X1329596Y1167886D01*
X1329842Y1169125D01*
Y1172810D01*
X1340240D01*
Y1189390D01*
X1322160D01*
Y1172810D01*
X1323368D01*
Y1170466D01*
X1315971Y1163069D01*
X1315269Y1162019D01*
X1315023Y1160780D01*
Y1150071D01*
X1309545D01*
X1307325Y1149630D01*
X1305443Y1148372D01*
X1304185Y1146490D01*
X1303743Y1144270D01*
X1304185Y1142050D01*
X1305443Y1140168D01*
X1307325Y1138910D01*
X1308397Y1138697D01*
Y1137143D01*
X1307325Y1136930D01*
X1305443Y1135672D01*
X1304185Y1133790D01*
X1304181Y1133771D01*
X1289981D01*
Y1137977D01*
X1291039Y1138116D01*
X1292893Y1138884D01*
X1294485Y1140105D01*
X1295706Y1141697D01*
X1296474Y1143551D01*
X1296736Y1145540D01*
X1296474Y1147529D01*
X1295706Y1149383D01*
X1294485Y1150975D01*
X1292893Y1152196D01*
X1291039Y1152964D01*
X1289050Y1153226D01*
X1286510D01*
X1284521Y1152964D01*
X1282667Y1152196D01*
X1281075Y1150975D01*
X1279854Y1149383D01*
X1279086Y1147529D01*
X1278824Y1145540D01*
X1279086Y1143551D01*
X1279854Y1141697D01*
X1281075Y1140105D01*
X1282667Y1138884D01*
X1284521Y1138116D01*
X1285579Y1137977D01*
Y1132840D01*
X1285746Y1131998D01*
X1285994Y1131627D01*
X1263588Y1109222D01*
X1263111Y1108507D01*
X1262944Y1107665D01*
Y1010590D01*
X1242740D01*
Y1009650D01*
X1240890D01*
X1239162Y1009187D01*
X1238102Y1010772D01*
X1236422Y1011895D01*
X1234440Y1012290D01*
X1232458Y1011895D01*
X1231451Y1011223D01*
X1229030D01*
Y1016590D01*
X1214450D01*
Y1016590D01*
X1213790D01*
Y1016590D01*
X1199210D01*
Y1003010D01*
Y990010D01*
X1210177D01*
X1213189Y986998D01*
Y939442D01*
X1202883Y929136D01*
X1202139Y929444D01*
X1200150Y929706D01*
X1197610D01*
X1195621Y929444D01*
X1193767Y928676D01*
X1192175Y927455D01*
X1190954Y925863D01*
X1190186Y924009D01*
X1189924Y922020D01*
X1190013Y921346D01*
X1185458Y916791D01*
X1182040D01*
Y919380D01*
X1162460D01*
Y909800D01*
Y903300D01*
Y896800D01*
Y890300D01*
Y883800D01*
Y877300D01*
Y870800D01*
Y862954D01*
X1158343D01*
X1157501Y862787D01*
X1156787Y862310D01*
X1135295Y840818D01*
X1134480Y840971D01*
X1133771Y841381D01*
Y851901D01*
X1133604Y852743D01*
X1133127Y853457D01*
X1123766Y862818D01*
X1123540Y862969D01*
Y870800D01*
Y877300D01*
Y883800D01*
Y890300D01*
Y896800D01*
Y903300D01*
Y909800D01*
Y919380D01*
X1103960D01*
X1103960Y919380D01*
Y919380D01*
X1102793Y920170D01*
X1080427Y942536D01*
X1080574Y942891D01*
X1080836Y944880D01*
X1080574Y946869D01*
X1079806Y948723D01*
X1078585Y950315D01*
X1076993Y951536D01*
X1075139Y952304D01*
X1073150Y952566D01*
X1070610D01*
X1068621Y952304D01*
X1066767Y951536D01*
X1065175Y950315D01*
X1064954Y950026D01*
X1063430Y950544D01*
Y952170D01*
X1036850D01*
Y947470D01*
X1031830D01*
Y952170D01*
X1005267D01*
Y955613D01*
X1207770D01*
X1209009Y955859D01*
X1210059Y956561D01*
X1210761Y957611D01*
X1211007Y958850D01*
Y977900D01*
X1210761Y979139D01*
X1210059Y980189D01*
X1209009Y980891D01*
X1207770Y981137D01*
X977900D01*
X976661Y980891D01*
X975611Y980189D01*
X974909Y979139D01*
X974663Y977900D01*
Y810888D01*
X973139Y810480D01*
X972314Y811909D01*
X970659Y813564D01*
X969732Y814099D01*
Y982373D01*
X1072487Y1085128D01*
X1096310D01*
X1098044Y1085473D01*
X1099515Y1086455D01*
X1110999Y1097940D01*
X1117623D01*
X1117835Y1097777D01*
X1121233Y1096370D01*
X1124880Y1095890D01*
X1126730D01*
X1130377Y1096370D01*
X1133775Y1097777D01*
X1133987Y1097940D01*
X1145170D01*
Y1110343D01*
X1160583Y1125756D01*
X1160583Y1125757D01*
X1162823Y1128675D01*
X1164230Y1132073D01*
X1164711Y1135720D01*
X1164710Y1135720D01*
Y1195070D01*
X1172210D01*
Y1202570D01*
X1467103D01*
Y935890D01*
D02*
G37*
G36*
X1276300Y830580D02*
X1276497Y829589D01*
X1277059Y828749D01*
X1288489Y817319D01*
X1289329Y816757D01*
X1290320Y816560D01*
X1328320D01*
Y790040D01*
X1314105D01*
X1313944Y790319D01*
X1312289Y791974D01*
X1310261Y793144D01*
X1308000Y793750D01*
X1305660D01*
X1303399Y793144D01*
X1301371Y791974D01*
X1299716Y790319D01*
X1298546Y788291D01*
X1297940Y786030D01*
Y783690D01*
X1298546Y781429D01*
X1299716Y779401D01*
X1301371Y777746D01*
X1303399Y776576D01*
X1305660Y775970D01*
X1308000D01*
X1310261Y776576D01*
X1312289Y777746D01*
X1313944Y779401D01*
X1314105Y779680D01*
X1328320D01*
Y711250D01*
X1292330D01*
Y715950D01*
X1270931D01*
Y842713D01*
X1271600Y843960D01*
X1276300D01*
Y830580D01*
D02*
G37*
G36*
X916136Y747020D02*
Y729790D01*
X916181Y729564D01*
Y729218D01*
X916348Y728376D01*
X916826Y727662D01*
X918949Y725538D01*
Y723325D01*
X917541Y722742D01*
X915889Y724393D01*
X911088Y719592D01*
X909292Y721388D01*
X914093Y726189D01*
X910190Y730093D01*
X908007Y727910D01*
X906642Y728700D01*
X906846Y730250D01*
Y732790D01*
X906584Y734779D01*
X905816Y736633D01*
X904595Y738225D01*
X903003Y739446D01*
X901149Y740214D01*
X900981Y740236D01*
X900492Y741783D01*
X900494Y741786D01*
X900589Y741952D01*
X900921Y742280D01*
X901954Y742857D01*
X902833Y742682D01*
X903088D01*
X903338Y742632D01*
X903851D01*
X904240Y742581D01*
X904629Y742632D01*
X905142D01*
X905392Y742682D01*
X905647D01*
X906901Y742931D01*
X907294Y742983D01*
X907652Y743131D01*
X907902Y743181D01*
X909569Y743872D01*
X909781Y744013D01*
X910139Y744162D01*
X910454Y744403D01*
X911517Y745113D01*
X911697Y745294D01*
X911909Y745435D01*
X912272Y745798D01*
X912583Y746037D01*
X912822Y746348D01*
X913185Y746711D01*
X913326Y746923D01*
X913507Y747103D01*
X914217Y748166D01*
X914458Y748481D01*
X914626Y748483D01*
X916136Y747020D01*
D02*
G37*
G36*
X994360Y700006D02*
X994322Y699949D01*
X992836Y699279D01*
X992589Y699459D01*
X992403Y699545D01*
X992243Y699671D01*
X991388Y700107D01*
X991191Y700162D01*
X991012Y700262D01*
X990100Y700559D01*
X989896Y700583D01*
X989705Y700654D01*
X988757Y700804D01*
X988552Y700796D01*
X988352Y700836D01*
X970882D01*
X970681Y700796D01*
X970477Y700804D01*
X969529Y700654D01*
X969337Y700583D01*
X969134Y700559D01*
X968222Y700262D01*
X968043Y700162D01*
X967846Y700107D01*
X966991Y699671D01*
X966831Y699545D01*
X966645Y699459D01*
X965868Y698895D01*
X965729Y698745D01*
X965559Y698631D01*
X965094Y698166D01*
X964881Y697952D01*
X964348Y698094D01*
X963570Y698689D01*
Y698736D01*
Y703290D01*
X960170D01*
Y707835D01*
X961423Y708354D01*
X963015Y709575D01*
X964236Y711167D01*
X965004Y713021D01*
X965266Y715010D01*
Y717550D01*
X965004Y719539D01*
X964236Y721393D01*
X963015Y722985D01*
X961423Y724206D01*
X959569Y724974D01*
X957580Y725236D01*
X957241Y725533D01*
D01*
Y737542D01*
X957580Y737820D01*
X994360D01*
Y700006D01*
D02*
G37*
G36*
X1328320Y644819D02*
X1324251Y640750D01*
X1309460D01*
Y624170D01*
X1309460D01*
X1309836Y623261D01*
X1305656Y619080D01*
X1304533Y617400D01*
X1304138Y615418D01*
X1304218Y615019D01*
X1304138Y614621D01*
Y598607D01*
X1297280D01*
X1295060Y598165D01*
X1293178Y596908D01*
X1291701Y597441D01*
X1290353Y598476D01*
X1288499Y599244D01*
X1286510Y599506D01*
X1283970D01*
X1281981Y599244D01*
X1280127Y598476D01*
X1278535Y597255D01*
X1277314Y595663D01*
X1276546Y593809D01*
X1276284Y591820D01*
X1276546Y589831D01*
X1277314Y587977D01*
X1278535Y586385D01*
X1280127Y585164D01*
X1281981Y584396D01*
X1283039Y584257D01*
Y581321D01*
X1278532D01*
X1270931Y588922D01*
Y701370D01*
X1292330D01*
Y706070D01*
X1328320D01*
Y644819D01*
D02*
G37*
G36*
X895490Y640406D02*
Y636270D01*
X900280D01*
Y633730D01*
X895490D01*
Y625210D01*
X900558D01*
X901044Y624037D01*
X900809Y623802D01*
X895765Y618758D01*
D01*
X895731Y618724D01*
X894464Y618807D01*
X894435Y618845D01*
X892843Y620066D01*
X890989Y620834D01*
X889000Y621096D01*
X887011Y620834D01*
X885157Y620066D01*
X883565Y618845D01*
X882344Y617253D01*
X881576Y615399D01*
X881314Y613410D01*
Y610870D01*
X880757Y610235D01*
X878292D01*
Y624233D01*
X879178Y625119D01*
X888489Y634430D01*
X891980D01*
Y638733D01*
X892515Y639090D01*
X894317Y640892D01*
X895490Y640406D01*
D02*
G37*
G36*
X913349Y605297D02*
X915482Y607430D01*
X916890Y606847D01*
Y605345D01*
X915637Y604826D01*
X914045Y603605D01*
X912824Y602013D01*
X912056Y600159D01*
X911794Y598170D01*
Y595630D01*
X912056Y593641D01*
X912824Y591787D01*
X914045Y590195D01*
X915637Y588974D01*
X917491Y588206D01*
X919480Y587944D01*
X921469Y588206D01*
X923323Y588974D01*
X924915Y590195D01*
X925526Y590992D01*
X927050Y590475D01*
Y554955D01*
X925526Y554754D01*
X925224Y555881D01*
X924054Y557909D01*
X922399Y559564D01*
X920371Y560734D01*
X918110Y561340D01*
X915770D01*
X913509Y560734D01*
X911481Y559564D01*
X909826Y557909D01*
X909540Y557412D01*
X898067D01*
X879652Y575827D01*
Y588645D01*
X884555D01*
Y602825D01*
X886079Y603832D01*
X887011Y603446D01*
X889000Y603184D01*
X890348Y603362D01*
X891095Y602224D01*
X891206Y601945D01*
X890466Y600159D01*
X890204Y598170D01*
Y595630D01*
X890466Y593641D01*
X891234Y591787D01*
X892455Y590195D01*
X894047Y588974D01*
X895901Y588206D01*
X897890Y587944D01*
X899879Y588206D01*
X901733Y588974D01*
X903325Y590195D01*
X904546Y591787D01*
X905314Y593641D01*
X905576Y595630D01*
Y598170D01*
X905372Y599720D01*
X906737Y600510D01*
X907650Y599597D01*
X911553Y603501D01*
X906752Y608302D01*
X908548Y610098D01*
X913349Y605297D01*
D02*
G37*
G36*
X927050Y549945D02*
Y412750D01*
X927247Y411759D01*
X927809Y410919D01*
X1005279Y333449D01*
X1006119Y332887D01*
X1007110Y332690D01*
X1265750D01*
Y324260D01*
X1279330D01*
Y327960D01*
X1282000D01*
X1282991Y328157D01*
X1283831Y328719D01*
X1290523Y335411D01*
X1291478Y335093D01*
X1291981Y334713D01*
Y327915D01*
X1292216Y326731D01*
X1292887Y325727D01*
X1293891Y325056D01*
X1295075Y324821D01*
X1295819D01*
X1295865Y324589D01*
X1296427Y323748D01*
X1303236Y316939D01*
X1304007Y316424D01*
X1304051Y316184D01*
X1303880Y314900D01*
X1303880D01*
Y313142D01*
X1264257D01*
X1254710Y322690D01*
X1253239Y323672D01*
X1251505Y324017D01*
X1167070D01*
Y328850D01*
X1154490D01*
Y325842D01*
X982317D01*
X917417Y390742D01*
Y419160D01*
X925260D01*
Y431740D01*
X917128D01*
X917072Y432019D01*
X916090Y433490D01*
X916090Y433490D01*
X900722Y448857D01*
Y548348D01*
X909043D01*
X909826Y546991D01*
X911481Y545336D01*
X913509Y544166D01*
X915770Y543560D01*
X918110D01*
X920371Y544166D01*
X922399Y545336D01*
X924054Y546991D01*
X925224Y549019D01*
X925526Y550146D01*
X927050Y549945D01*
D02*
G37*
G36*
X999440Y456343D02*
X995304Y452206D01*
X994735Y452319D01*
X990225D01*
X989041Y452084D01*
X988037Y451413D01*
X987423D01*
X986419Y452084D01*
X985235Y452319D01*
X984250D01*
Y445720D01*
Y439120D01*
X985235D01*
X986419Y439356D01*
X987423Y440027D01*
X988037D01*
X989041Y439356D01*
X990225Y439120D01*
X994735D01*
X995919Y439356D01*
X996923Y440027D01*
X997594Y441031D01*
X997829Y442215D01*
Y447407D01*
X1003861Y453439D01*
X1004423Y454279D01*
X1004620Y455270D01*
Y457880D01*
X1006144Y458624D01*
X1006250Y458541D01*
Y454660D01*
X1012540D01*
Y453390D01*
X1013810D01*
Y446600D01*
X1022450D01*
Y444453D01*
X1014927Y436930D01*
X981524D01*
X980975Y437601D01*
X981700Y439120D01*
X981710D01*
Y445720D01*
Y452319D01*
X980725D01*
X979541Y452084D01*
X979380Y451976D01*
X978230Y451532D01*
X977680Y451745D01*
X977066Y453165D01*
X977125Y453597D01*
X977403Y453988D01*
X979088D01*
X980079Y454185D01*
X980919Y454747D01*
X990793Y464621D01*
X994735D01*
X995919Y464856D01*
X996923Y465527D01*
X997594Y466531D01*
X997829Y467715D01*
Y474725D01*
X997594Y475909D01*
X996923Y476913D01*
X996469Y477216D01*
X996932Y478740D01*
X999440D01*
Y456343D01*
D02*
G37*
G36*
X939056Y581126D02*
Y455264D01*
X939253Y454273D01*
X939815Y453433D01*
X945149Y448099D01*
X945989Y447537D01*
X946980Y447340D01*
X948250D01*
Y443640D01*
X961830D01*
Y447340D01*
X963184D01*
X964175Y447537D01*
X965016Y448099D01*
X966685Y449768D01*
X967741Y449371D01*
X968131Y449058D01*
Y442215D01*
X968366Y441031D01*
X969037Y440027D01*
X970041Y439356D01*
X971225Y439120D01*
X971969D01*
X972015Y438889D01*
X972577Y438048D01*
X978116Y432509D01*
X978956Y431947D01*
X979948Y431750D01*
X993311D01*
X993895Y430342D01*
X991592Y428040D01*
X959260D01*
Y431740D01*
X944180D01*
Y419160D01*
X959260D01*
Y422860D01*
X992665D01*
X993656Y423057D01*
X994496Y423619D01*
X998468Y427590D01*
X1023180D01*
Y423890D01*
Y411890D01*
X1036760D01*
Y416860D01*
X1051910D01*
X1052901Y417057D01*
X1053741Y417619D01*
X1060888Y424765D01*
X1115276D01*
X1116740Y424620D01*
Y414702D01*
X1113515Y411477D01*
X1112953Y410637D01*
X1112878Y410260D01*
X943413D01*
X937310Y416363D01*
Y581792D01*
X937532Y581941D01*
X939056Y581126D01*
D02*
G37*
G36*
X1196118Y404915D02*
Y391600D01*
X1185320D01*
Y382183D01*
X1181647Y378510D01*
X1180621D01*
X1179420Y379290D01*
Y392870D01*
X1179420D01*
X1179670Y394010D01*
X1179670Y394010D01*
X1179670Y394290D01*
Y406090D01*
X1168194D01*
X1166670Y406090D01*
X1166066Y406090D01*
X1161900D01*
Y400050D01*
X1160630D01*
Y398780D01*
X1154590D01*
Y394291D01*
X1154590Y394010D01*
X1154840Y392590D01*
Y387350D01*
X1161130D01*
Y384810D01*
X1154840D01*
Y379371D01*
X1153615Y378567D01*
X1150806Y381376D01*
X1150919Y381945D01*
Y386455D01*
X1150684Y387639D01*
X1150576Y387800D01*
X1150132Y388950D01*
X1150576Y390100D01*
X1150684Y390261D01*
X1150919Y391445D01*
Y392430D01*
X1144320D01*
X1137721D01*
Y391445D01*
X1137956Y390261D01*
X1138064Y390100D01*
X1138508Y388950D01*
X1138064Y387800D01*
X1137956Y387639D01*
X1137721Y386455D01*
Y381945D01*
X1137956Y380761D01*
X1138627Y379757D01*
X1139631Y379086D01*
X1140815Y378851D01*
X1146007D01*
X1150769Y374089D01*
X1151609Y373527D01*
X1152600Y373330D01*
X1182720D01*
X1183711Y373527D01*
X1184551Y374089D01*
X1187496Y377034D01*
X1189020Y376403D01*
Y374803D01*
X1185918Y371700D01*
X1180660D01*
Y368000D01*
X1175320D01*
X1174329Y367803D01*
X1173489Y367241D01*
X1170007Y363760D01*
X1169610D01*
X1168619Y363563D01*
X1168403Y363418D01*
X1167070Y362850D01*
X1167070Y362850D01*
X1167070Y362850D01*
X1154490D01*
Y347770D01*
X1153374Y346785D01*
X1122456D01*
X1094312Y374928D01*
X1099274Y379890D01*
X1105860D01*
Y381610D01*
X1112287D01*
X1112456Y380761D01*
X1113127Y379757D01*
X1114131Y379086D01*
X1115315Y378851D01*
X1122325D01*
X1123509Y379086D01*
X1124513Y379757D01*
X1125184Y380761D01*
X1125419Y381945D01*
Y386455D01*
X1125184Y387639D01*
X1124513Y388643D01*
X1123509Y389314D01*
X1122325Y389549D01*
X1115315D01*
X1114131Y389314D01*
X1113127Y388643D01*
X1112456Y387639D01*
X1112287Y386790D01*
X1105860D01*
X1105860Y392890D01*
X1105860Y393494D01*
Y397660D01*
X1099820D01*
X1093780D01*
Y393494D01*
X1093780Y391970D01*
X1093780Y391366D01*
Y385384D01*
X1087209Y378813D01*
X1083371D01*
X1073950Y388234D01*
X1074420Y389990D01*
Y392330D01*
X1073814Y394591D01*
X1072644Y396619D01*
X1070989Y398274D01*
X1068961Y399444D01*
X1066700Y400050D01*
X1064360D01*
X1062099Y399444D01*
X1060071Y398274D01*
X1058416Y396619D01*
X1057246Y394591D01*
X1056640Y392330D01*
Y389990D01*
X1057246Y387729D01*
X1058416Y385701D01*
X1060071Y384046D01*
X1062099Y382876D01*
X1064360Y382270D01*
X1066700D01*
X1068456Y382740D01*
X1079015Y372181D01*
X1080275Y371339D01*
X1081762Y371044D01*
X1087209D01*
X1118100Y340153D01*
X1118448Y338115D01*
X1118281Y337870D01*
X1008183D01*
X942496Y403556D01*
X943128Y405080D01*
X1092302D01*
X1093780Y404970D01*
X1093780Y403556D01*
Y400200D01*
X1099820D01*
X1105860D01*
X1105860Y404970D01*
X1107338Y405080D01*
X1112221D01*
Y400945D01*
X1112456Y399761D01*
X1113127Y398757D01*
X1114131Y398086D01*
X1115315Y397850D01*
X1122325D01*
X1123509Y398086D01*
X1124513Y398757D01*
X1125184Y399761D01*
X1125419Y400945D01*
Y405455D01*
X1125184Y406639D01*
X1124513Y407643D01*
X1123509Y408314D01*
X1122325Y408549D01*
X1120067D01*
X1119514Y409884D01*
X1120461Y411040D01*
X1140921D01*
X1141882Y409905D01*
X1141427Y408549D01*
X1140815D01*
X1139631Y408314D01*
X1138627Y407643D01*
X1137956Y406639D01*
X1137721Y405455D01*
Y400945D01*
X1137956Y399761D01*
X1138064Y399600D01*
X1138508Y398450D01*
X1138064Y397300D01*
X1137956Y397139D01*
X1137721Y395955D01*
Y394970D01*
X1144320D01*
X1150919D01*
Y395955D01*
X1150684Y397139D01*
X1150576Y397300D01*
X1150132Y398450D01*
X1150576Y399600D01*
X1150684Y399761D01*
X1150919Y400945D01*
Y405455D01*
X1150684Y406639D01*
X1150013Y407643D01*
X1149009Y408314D01*
X1148124Y408490D01*
X1147806Y409536D01*
X1147796Y410073D01*
X1150423Y412700D01*
X1152300D01*
Y408500D01*
X1176880D01*
Y412700D01*
X1179830D01*
X1180821Y412897D01*
X1181661Y413459D01*
X1184618Y416415D01*
X1196118Y404915D01*
D02*
G37*
G36*
X1446530Y799235D02*
Y799097D01*
X1447049Y797159D01*
X1447231Y796844D01*
X1445544Y795156D01*
X1444982Y794316D01*
X1444785Y793325D01*
Y479352D01*
X1349853Y384420D01*
X1209900D01*
Y391600D01*
X1200002D01*
Y404970D01*
X1200453Y405644D01*
X1200650Y406635D01*
X1200453Y407626D01*
X1199891Y408467D01*
X1186449Y421909D01*
X1185609Y422470D01*
X1184618Y422667D01*
X1183627Y422470D01*
X1182786Y421909D01*
X1178757Y417880D01*
X1176880D01*
Y422080D01*
X1169768D01*
X1162662Y429186D01*
X1161821Y429748D01*
X1160830Y429945D01*
X1060888D01*
X1054648Y436185D01*
X1053808Y436746D01*
X1053753Y436757D01*
X1053326Y437456D01*
X1054180Y438980D01*
X1061310D01*
Y443180D01*
X1401952D01*
X1402943Y443377D01*
X1403784Y443939D01*
X1440995Y481150D01*
X1441557Y481991D01*
X1441754Y482982D01*
Y796614D01*
X1445006Y799866D01*
X1446530Y799235D01*
D02*
G37*
G36*
X1254920Y371800D02*
X1254920Y371230D01*
Y367030D01*
X1260960D01*
Y365760D01*
X1262230D01*
Y359720D01*
X1266471D01*
X1267175Y358268D01*
X1255691Y346785D01*
X1195625D01*
X1194240Y347120D01*
Y355687D01*
X1199133Y360580D01*
X1208645D01*
X1209636Y360777D01*
X1210476Y361339D01*
X1221892Y372754D01*
X1253791D01*
X1254920Y371800D01*
D02*
G37*
G36*
X1352140Y361510D02*
Y361510D01*
X1353259Y360642D01*
X1369153Y344748D01*
X1368569Y343340D01*
X1360580D01*
Y333923D01*
X1356907Y330250D01*
X1354611D01*
X1353410Y331030D01*
Y344610D01*
X1353410D01*
X1353660Y345750D01*
X1353660Y345750D01*
X1353660Y346030D01*
Y357830D01*
X1341580D01*
Y357830D01*
X1340660D01*
Y357830D01*
X1335890D01*
Y351790D01*
X1333350D01*
Y357830D01*
X1328580D01*
X1328164Y359182D01*
Y361510D01*
X1352140D01*
X1352140Y361510D01*
D02*
G37*
G36*
X1449020Y474271D02*
Y408523D01*
X1383837Y343340D01*
X1376854D01*
X1375551Y344602D01*
X1375354Y345593D01*
X1374792Y346433D01*
X1352140Y369086D01*
Y375090D01*
X1343584D01*
X1341499Y377175D01*
X1340659Y377737D01*
X1340911Y379240D01*
X1350925D01*
X1351916Y379437D01*
X1352757Y379999D01*
X1447612Y474855D01*
X1449020Y474271D01*
D02*
G37*
G36*
X1327729Y338694D02*
X1328830Y338222D01*
Y331030D01*
X1333850D01*
Y337820D01*
X1336390D01*
Y331030D01*
X1343752D01*
X1344384Y329506D01*
X1336237Y321360D01*
X1306140D01*
X1304149Y323352D01*
X1304395Y324200D01*
X1304835Y324821D01*
X1305560D01*
Y331420D01*
X1308100D01*
Y324821D01*
X1309085D01*
X1310269Y325056D01*
X1310430Y325164D01*
X1311580Y325608D01*
X1312730Y325164D01*
X1312891Y325056D01*
X1314075Y324821D01*
X1318585D01*
X1319769Y325056D01*
X1320773Y325727D01*
X1321444Y326731D01*
X1321679Y327915D01*
Y333107D01*
X1327306Y338733D01*
X1327729Y338694D01*
D02*
G37*
%LPC*%
G36*
X1064260Y1239520D02*
X1050290D01*
Y1236389D01*
X1035050D01*
Y1239520D01*
X1021080D01*
Y1225550D01*
X1024211D01*
Y1210310D01*
X1021080D01*
Y1196340D01*
X1035050D01*
Y1199471D01*
X1050290D01*
Y1196340D01*
X1064260D01*
Y1210310D01*
X1061129D01*
Y1225550D01*
X1064260D01*
Y1239520D01*
D02*
G37*
G36*
X1092170Y1122020D02*
X1078230D01*
Y1116330D01*
X1092170D01*
Y1122020D01*
D02*
G37*
G36*
X1065530D02*
X1051590D01*
Y1116330D01*
X1065530D01*
Y1122020D01*
D02*
G37*
G36*
X1092170Y1103630D02*
X1078230D01*
Y1097940D01*
X1092170D01*
Y1103630D01*
D02*
G37*
G36*
X1065530D02*
X1051590D01*
Y1097940D01*
X1065530D01*
Y1103630D01*
D02*
G37*
G36*
X892660Y1077920D02*
X887890D01*
Y1073150D01*
X892660D01*
Y1077920D01*
D02*
G37*
G36*
X869640Y1071580D02*
X864870D01*
Y1066810D01*
X869640D01*
Y1071580D01*
D02*
G37*
G36*
X862330D02*
X857560D01*
Y1066810D01*
X862330D01*
Y1071580D01*
D02*
G37*
G36*
X892660Y1070610D02*
X887890D01*
Y1065840D01*
X892660D01*
Y1070610D01*
D02*
G37*
G36*
X892660Y1063950D02*
X887890D01*
Y1059180D01*
X892660D01*
Y1063950D01*
D02*
G37*
G36*
Y1056640D02*
X887890D01*
Y1051870D01*
X892660D01*
Y1056640D01*
D02*
G37*
G36*
X1546540Y1024250D02*
X1543080D01*
Y1021246D01*
X1532920D01*
Y1024250D01*
X1529460D01*
Y1018540D01*
X1532464D01*
Y1008380D01*
X1529460D01*
Y1002670D01*
X1532920D01*
Y1005674D01*
X1543080D01*
Y1002670D01*
X1546540D01*
Y1008380D01*
X1543536D01*
Y1018540D01*
X1546540D01*
Y1024250D01*
D02*
G37*
G36*
Y744850D02*
X1543080D01*
Y741846D01*
X1532920D01*
Y744850D01*
X1529460D01*
Y739140D01*
X1532464D01*
Y728980D01*
X1529460D01*
Y723270D01*
X1532920D01*
Y726274D01*
X1543080D01*
Y723270D01*
X1546540D01*
Y728980D01*
X1543536D01*
Y739140D01*
X1546540D01*
Y744850D01*
D02*
G37*
G36*
Y452750D02*
X1543080D01*
Y449746D01*
X1532920D01*
Y452750D01*
X1529460D01*
Y447040D01*
X1532464D01*
Y436880D01*
X1529460D01*
Y431170D01*
X1532920D01*
Y434174D01*
X1543080D01*
Y431170D01*
X1546540D01*
Y436880D01*
X1543536D01*
Y447040D01*
X1546540D01*
Y452750D01*
D02*
G37*
G36*
X875030Y1136650D02*
X868614D01*
X868876Y1134661D01*
X869644Y1132807D01*
X870865Y1131215D01*
X872457Y1129994D01*
X874311Y1129226D01*
X875030Y1129131D01*
Y1136650D01*
D02*
G37*
G36*
X1327444Y1104900D02*
X1316990D01*
Y1100368D01*
X1321895D01*
X1324115Y1100810D01*
X1325997Y1102068D01*
X1327255Y1103950D01*
X1327444Y1104900D01*
D02*
G37*
G36*
X1314450D02*
X1303996D01*
X1304185Y1103950D01*
X1305443Y1102068D01*
X1307325Y1100810D01*
X1309545Y1100368D01*
X1314450D01*
Y1104900D01*
D02*
G37*
G36*
X1454050Y1197610D02*
X1451710D01*
X1449449Y1197004D01*
X1447421Y1195834D01*
X1445766Y1194179D01*
X1444596Y1192151D01*
X1443990Y1189890D01*
Y1187550D01*
X1444460Y1185794D01*
X1439186Y1180520D01*
X1438344Y1179260D01*
X1438049Y1177773D01*
Y1175960D01*
X1433130D01*
Y1167624D01*
X1427956Y1162450D01*
X1427114Y1161190D01*
X1426819Y1159703D01*
Y1157910D01*
X1415374D01*
X1411428Y1161856D01*
X1412059Y1163380D01*
X1414210D01*
Y1175960D01*
X1399130D01*
Y1163380D01*
X1402785D01*
Y1161120D01*
X1403081Y1159633D01*
X1403923Y1158373D01*
X1410380Y1151916D01*
Y1149324D01*
X1396511Y1135455D01*
X1379792D01*
X1379647Y1135672D01*
X1377765Y1136930D01*
X1376693Y1137143D01*
Y1138697D01*
X1377765Y1138910D01*
X1379647Y1140168D01*
X1380905Y1142050D01*
X1381346Y1144270D01*
X1380905Y1146490D01*
X1379647Y1148372D01*
X1377765Y1149630D01*
X1375545Y1150071D01*
X1372607D01*
Y1156810D01*
X1372361Y1158049D01*
X1371659Y1159099D01*
X1368900Y1161858D01*
Y1169360D01*
X1366097D01*
Y1172810D01*
X1370240D01*
Y1189390D01*
X1352160D01*
Y1172810D01*
X1359623D01*
Y1170438D01*
X1358545Y1169360D01*
X1355900Y1169360D01*
X1355296Y1169360D01*
X1343820D01*
Y1157280D01*
X1345975D01*
Y1133984D01*
X1346271Y1132498D01*
X1347113Y1131237D01*
X1357740Y1120611D01*
X1357393Y1118870D01*
X1357835Y1116650D01*
X1359093Y1114768D01*
X1360975Y1113510D01*
X1362047Y1113297D01*
Y1111743D01*
X1360975Y1111530D01*
X1359093Y1110272D01*
X1357835Y1108390D01*
X1357393Y1106170D01*
X1357835Y1103950D01*
X1359093Y1102068D01*
X1360975Y1100810D01*
X1363195Y1100368D01*
X1375545D01*
X1377765Y1100810D01*
X1379647Y1102068D01*
X1379792Y1102285D01*
X1386011D01*
X1399130Y1089166D01*
Y1080830D01*
X1406272D01*
X1406383Y1080663D01*
X1410869Y1076178D01*
X1410530Y1075360D01*
X1410530D01*
Y1060780D01*
X1437110D01*
Y1075360D01*
X1436559D01*
X1435928Y1076884D01*
X1439874Y1080830D01*
X1448210D01*
Y1087916D01*
X1456304Y1096010D01*
X1456590D01*
X1458851Y1096616D01*
X1460879Y1097786D01*
X1462534Y1099441D01*
X1463704Y1101469D01*
X1464310Y1103730D01*
Y1106070D01*
X1463704Y1108331D01*
X1462534Y1110359D01*
X1460879Y1112014D01*
X1458851Y1113184D01*
X1456590Y1113790D01*
X1454250D01*
X1451989Y1113184D01*
X1449961Y1112014D01*
X1448306Y1110359D01*
X1447136Y1108331D01*
X1446530Y1106070D01*
Y1103730D01*
X1447136Y1101469D01*
X1448306Y1099441D01*
X1448527Y1099221D01*
X1442716Y1093410D01*
X1433130D01*
Y1085074D01*
X1428031Y1079975D01*
X1427189Y1078715D01*
X1426893Y1077228D01*
Y1075360D01*
X1419971D01*
Y1076453D01*
X1419676Y1077940D01*
X1418834Y1079200D01*
X1414210Y1083824D01*
Y1093410D01*
X1405874D01*
X1390367Y1108917D01*
X1389107Y1109759D01*
X1387620Y1110055D01*
X1379792D01*
X1379647Y1110272D01*
X1377765Y1111530D01*
X1376693Y1111743D01*
Y1113297D01*
X1377765Y1113510D01*
X1379647Y1114768D01*
X1379792Y1114985D01*
X1428750D01*
X1430237Y1115281D01*
X1431497Y1116123D01*
X1438085Y1122711D01*
X1439289Y1122016D01*
X1441550Y1121410D01*
X1443890D01*
X1446151Y1122016D01*
X1448179Y1123186D01*
X1449834Y1124841D01*
X1451004Y1126869D01*
X1451610Y1129130D01*
Y1131470D01*
X1451004Y1133731D01*
X1449834Y1135759D01*
X1448179Y1137414D01*
X1446151Y1138584D01*
X1443890Y1139190D01*
X1441550D01*
X1439289Y1138584D01*
X1437261Y1137414D01*
X1435606Y1135759D01*
X1434436Y1133731D01*
X1433830Y1131470D01*
Y1129444D01*
X1427141Y1122755D01*
X1379792D01*
X1379647Y1122972D01*
X1377765Y1124230D01*
X1376693Y1124443D01*
Y1125997D01*
X1377765Y1126210D01*
X1379647Y1127468D01*
X1379792Y1127685D01*
X1398120D01*
X1399607Y1127981D01*
X1400867Y1128823D01*
X1415374Y1143330D01*
X1436960D01*
Y1157910D01*
X1436559D01*
X1435928Y1159434D01*
X1439874Y1163380D01*
X1448210D01*
Y1175960D01*
X1447769D01*
X1447138Y1177484D01*
X1449954Y1180300D01*
X1451710Y1179830D01*
X1454050D01*
X1456311Y1180436D01*
X1458339Y1181606D01*
X1459994Y1183261D01*
X1461164Y1185289D01*
X1461770Y1187550D01*
Y1189890D01*
X1461164Y1192151D01*
X1459994Y1194179D01*
X1458339Y1195834D01*
X1456311Y1197004D01*
X1454050Y1197610D01*
D02*
G37*
G36*
X1186436Y745937D02*
X1180805D01*
Y739646D01*
X1186436D01*
Y745937D01*
D02*
G37*
G36*
X1178265D02*
X1172634D01*
Y739646D01*
X1178265D01*
Y745937D01*
D02*
G37*
G36*
X1186436Y737106D02*
X1180805D01*
Y730815D01*
X1186436D01*
Y737106D01*
D02*
G37*
G36*
X1178265D02*
X1172634D01*
Y730815D01*
X1178265D01*
Y737106D01*
D02*
G37*
G36*
X1133735Y745997D02*
X1131934Y745760D01*
X1130255Y745064D01*
X1128813Y743958D01*
X1127707Y742517D01*
X1127012Y740838D01*
X1126775Y739037D01*
Y737715D01*
X1126839Y737228D01*
X1111305Y721695D01*
X1110323Y720225D01*
X1109978Y718490D01*
X1109293Y717656D01*
X1104145D01*
Y715732D01*
X1085879D01*
X1085344Y716659D01*
X1083689Y718314D01*
X1081661Y719484D01*
X1079400Y720090D01*
X1077060D01*
X1074799Y719484D01*
X1072771Y718314D01*
X1071116Y716659D01*
X1069946Y714631D01*
X1069340Y712370D01*
Y710030D01*
X1069946Y707769D01*
X1070213Y707306D01*
X1069888Y705672D01*
Y658450D01*
X1067130D01*
Y658450D01*
X1066470D01*
Y658450D01*
X1051890D01*
Y658450D01*
X1051230D01*
Y658450D01*
X1036650D01*
Y644870D01*
Y631870D01*
X1051230D01*
Y631870D01*
X1051890D01*
Y631870D01*
X1055295D01*
Y624100D01*
X1055591Y622613D01*
X1056433Y621353D01*
X1060143Y617643D01*
X1060810Y617198D01*
Y603890D01*
X1062915D01*
Y578252D01*
X1061341Y577344D01*
X1059686Y575689D01*
X1058516Y573661D01*
X1057910Y571400D01*
Y569060D01*
X1058516Y566799D01*
X1059686Y564771D01*
X1061341Y563116D01*
X1063369Y561946D01*
X1065630Y561340D01*
X1067970D01*
X1070231Y561946D01*
X1072259Y563116D01*
X1073914Y564771D01*
X1075084Y566799D01*
X1075690Y569060D01*
Y571400D01*
X1075084Y573661D01*
X1073914Y575689D01*
X1072259Y577344D01*
X1070685Y578252D01*
Y603890D01*
X1076390D01*
Y625470D01*
X1063304D01*
X1063065Y625709D01*
Y631870D01*
X1066470D01*
Y631870D01*
X1067130D01*
Y631870D01*
X1081710D01*
Y634775D01*
X1087280D01*
Y632770D01*
X1098756D01*
X1100280Y632770D01*
X1100884Y632770D01*
X1105050D01*
Y638810D01*
Y644850D01*
X1100884D01*
X1099360Y644850D01*
X1098756Y644850D01*
X1087280D01*
Y642545D01*
X1081710D01*
Y658450D01*
X1078952D01*
Y702310D01*
X1079400D01*
X1081661Y702916D01*
X1083689Y704086D01*
X1085344Y705741D01*
X1085879Y706668D01*
X1104145D01*
Y704076D01*
X1120225D01*
Y717656D01*
X1120225Y717656D01*
X1120225D01*
X1121162Y718733D01*
X1133248Y730819D01*
X1133735Y730755D01*
X1135536Y730992D01*
X1137215Y731687D01*
X1138657Y732794D01*
X1139763Y734235D01*
X1140458Y735914D01*
X1140695Y737715D01*
Y739037D01*
X1140458Y740838D01*
X1139763Y742517D01*
X1138657Y743958D01*
X1137215Y745064D01*
X1135536Y745760D01*
X1133735Y745997D01*
D02*
G37*
G36*
X1210395Y700066D02*
X1203625D01*
Y694546D01*
X1210395D01*
Y700066D01*
D02*
G37*
G36*
X1201085D02*
X1194315D01*
Y694546D01*
X1201085D01*
Y700066D01*
D02*
G37*
G36*
X1120225Y699156D02*
X1113455D01*
Y693636D01*
X1120225D01*
Y699156D01*
D02*
G37*
G36*
X1110915D02*
X1104145D01*
Y693636D01*
X1110915D01*
Y699156D01*
D02*
G37*
G36*
X1210395Y692006D02*
X1203625D01*
Y686486D01*
X1210395D01*
Y692006D01*
D02*
G37*
G36*
X1201085D02*
X1194315D01*
Y686486D01*
X1201085D01*
Y692006D01*
D02*
G37*
G36*
X1120225Y691096D02*
X1113455D01*
Y685576D01*
X1120225D01*
Y691096D01*
D02*
G37*
G36*
X1110915D02*
X1104145D01*
Y685576D01*
X1110915D01*
Y691096D01*
D02*
G37*
G36*
X1107590Y644850D02*
Y640080D01*
X1112360D01*
Y644850D01*
X1107590D01*
D02*
G37*
G36*
X1112360Y637540D02*
X1107590D01*
Y632770D01*
X1112360D01*
Y637540D01*
D02*
G37*
G36*
X1110890Y625470D02*
X1104370D01*
Y615950D01*
X1110890D01*
Y625470D01*
D02*
G37*
G36*
X1101830D02*
X1095310D01*
Y615950D01*
X1101830D01*
Y625470D01*
D02*
G37*
G36*
X1110890Y613410D02*
X1104370D01*
Y603890D01*
X1110890D01*
Y613410D01*
D02*
G37*
G36*
X1101830D02*
X1095310D01*
Y603890D01*
X1101830D01*
Y613410D01*
D02*
G37*
G36*
X1136240Y575750D02*
X1131220D01*
Y570230D01*
X1136240D01*
Y575750D01*
D02*
G37*
G36*
Y567690D02*
X1131220D01*
Y562170D01*
X1136240D01*
Y567690D01*
D02*
G37*
G36*
X1315179Y553436D02*
X1304725D01*
Y548904D01*
X1309630D01*
X1311850Y549346D01*
X1313732Y550603D01*
X1314990Y552485D01*
X1315179Y553436D01*
D02*
G37*
G36*
X1080460Y537050D02*
X1075690D01*
Y532280D01*
X1080460D01*
Y537050D01*
D02*
G37*
G36*
X1073150D02*
X1068380D01*
Y532280D01*
X1073150D01*
Y537050D01*
D02*
G37*
G36*
X1027280Y521660D02*
X1022510D01*
Y516890D01*
X1027280D01*
Y521660D01*
D02*
G37*
G36*
Y514350D02*
X1022510D01*
Y509580D01*
X1027280D01*
Y514350D01*
D02*
G37*
G36*
X956160Y489910D02*
X951390D01*
Y485140D01*
X956160D01*
Y489910D01*
D02*
G37*
G36*
Y482600D02*
X951390D01*
Y477830D01*
X956160D01*
Y482600D01*
D02*
G37*
G36*
X904240Y585839D02*
X903851Y585788D01*
X903338D01*
X903088Y585738D01*
X902833D01*
X901579Y585489D01*
X901186Y585437D01*
X900828Y585289D01*
X900578Y585239D01*
X898911Y584548D01*
X898699Y584407D01*
X898341Y584258D01*
X898026Y584017D01*
X896963Y583307D01*
X896783Y583126D01*
X896571Y582985D01*
X896208Y582622D01*
X895897Y582383D01*
X895658Y582072D01*
X895295Y581709D01*
X895154Y581497D01*
X894973Y581317D01*
X894263Y580254D01*
X894022Y579939D01*
X893873Y579581D01*
X893732Y579369D01*
X893041Y577702D01*
X892991Y577452D01*
X892843Y577094D01*
X892791Y576701D01*
X892542Y575447D01*
Y575192D01*
X892492Y574942D01*
Y574429D01*
X892441Y574040D01*
X892492Y573651D01*
Y573138D01*
X892542Y572888D01*
Y572633D01*
X892791Y571379D01*
X892843Y570986D01*
X892991Y570628D01*
X893041Y570378D01*
X893732Y568711D01*
X893873Y568499D01*
X894022Y568140D01*
X894263Y567826D01*
X894973Y566763D01*
X895154Y566583D01*
X895295Y566371D01*
X895658Y566008D01*
X895897Y565697D01*
X896208Y565458D01*
X896571Y565095D01*
X896783Y564953D01*
X896963Y564773D01*
X898026Y564063D01*
X898341Y563822D01*
X898699Y563673D01*
X898911Y563532D01*
X900578Y562841D01*
X900828Y562791D01*
X901186Y562643D01*
X901579Y562591D01*
X902833Y562342D01*
X903088D01*
X903338Y562292D01*
X903851D01*
X904240Y562241D01*
X904629Y562292D01*
X905142D01*
X905392Y562342D01*
X905647D01*
X906901Y562591D01*
X907294Y562643D01*
X907652Y562791D01*
X907902Y562841D01*
X909569Y563532D01*
X909781Y563673D01*
X910139Y563822D01*
X910454Y564063D01*
X911517Y564773D01*
X911697Y564953D01*
X911909Y565095D01*
X912272Y565458D01*
X912583Y565697D01*
X912822Y566008D01*
X913185Y566371D01*
X913326Y566583D01*
X913507Y566763D01*
X914217Y567826D01*
X914458Y568140D01*
X914607Y568499D01*
X914748Y568711D01*
X915439Y570378D01*
X915489Y570628D01*
X915637Y570986D01*
X915689Y571379D01*
X915938Y572633D01*
Y572888D01*
X915988Y573138D01*
Y573651D01*
X916039Y574040D01*
X915988Y574429D01*
Y574942D01*
X915938Y575192D01*
Y575447D01*
X915689Y576701D01*
X915637Y577094D01*
X915489Y577452D01*
X915439Y577702D01*
X914748Y579369D01*
X914607Y579581D01*
X914458Y579939D01*
X914217Y580254D01*
X913507Y581317D01*
X913326Y581497D01*
X913185Y581709D01*
X912822Y582072D01*
X912583Y582383D01*
X912272Y582622D01*
X911909Y582985D01*
X911697Y583126D01*
X911517Y583307D01*
X910454Y584017D01*
X910139Y584258D01*
X909781Y584407D01*
X909569Y584548D01*
X907902Y585239D01*
X907652Y585289D01*
X907294Y585437D01*
X906901Y585489D01*
X905647Y585738D01*
X905392D01*
X905142Y585788D01*
X904629D01*
X904240Y585839D01*
D02*
G37*
G36*
X1011270Y452120D02*
X1006250D01*
Y446600D01*
X1011270D01*
Y452120D01*
D02*
G37*
G36*
X1159360Y406090D02*
X1154590D01*
Y401320D01*
X1159360D01*
Y406090D01*
D02*
G37*
G36*
X1259690Y364490D02*
X1254920D01*
Y359720D01*
X1259690D01*
Y364490D01*
D02*
G37*
%LPD*%
G36*
G01X987872Y642366D02*
G01X971362D01*
G03Y630174I0J-6096D01*
G01X987872D01*
G03Y642366I0J6096D01*
D02*
G37*
G36*
G01Y698246D02*
G01X971362D01*
G03Y686054I0J-6096D01*
G01X987872D01*
G03Y698246I0J6096D01*
D02*
G37*
G36*
G01Y684276D02*
G01X971362D01*
G03Y672084I0J-6096D01*
G01X987872D01*
G03Y684276I0J6096D01*
D02*
G37*
G36*
G01Y670306D02*
G01X971362D01*
G03Y658114I0J-6096D01*
G01X987872D01*
G03Y670306I0J6096D01*
D02*
G37*
G36*
G01Y656336D02*
G01X971362D01*
G03Y644144I0J-6096D01*
G01X987872D01*
G03Y656336I0J6096D01*
D02*
G37*
D17*
X863600Y1072850D02*
D03*
Y1085850D02*
D03*
Y1119020D02*
D03*
Y1106020D02*
D03*
X1074420Y518010D02*
D03*
Y531010D02*
D03*
X1099820Y385930D02*
D03*
Y398930D02*
D03*
X1046480Y542440D02*
D03*
Y529440D02*
D03*
D18*
X887050Y1109820D02*
D03*
Y1104820D02*
D03*
Y1099820D02*
D03*
Y1094820D02*
D03*
Y1089820D02*
D03*
X929050Y1109820D02*
D03*
Y1104820D02*
D03*
Y1094820D02*
D03*
Y1089820D02*
D03*
Y1099820D02*
D03*
D19*
X893930Y1057910D02*
D03*
X906930D02*
D03*
Y1071880D02*
D03*
X893930D02*
D03*
X1028550Y515620D02*
D03*
X1041550D02*
D03*
X1012040Y466090D02*
D03*
X1025040D02*
D03*
X1093320Y638810D02*
D03*
X1106320D02*
D03*
X1362860Y1163320D02*
D03*
X1349860D02*
D03*
X1344780Y899160D02*
D03*
X1357780D02*
D03*
X1347620Y614680D02*
D03*
X1334620D02*
D03*
X1173630Y400050D02*
D03*
X1160630D02*
D03*
X1260960Y365760D02*
D03*
X1273960D02*
D03*
X1347620Y351790D02*
D03*
X1334620D02*
D03*
X957430Y483870D02*
D03*
X970430D02*
D03*
D20*
X1117950Y568960D02*
D03*
X1129950D02*
D03*
X1102010D02*
D03*
X1090010D02*
D03*
X1135030Y417830D02*
D03*
X1123030D02*
D03*
X1012540Y453390D02*
D03*
X1024540D02*
D03*
X1022000Y481330D02*
D03*
X1010000D02*
D03*
X1055020Y445770D02*
D03*
X1043020D02*
D03*
X1203610Y384810D02*
D03*
X1191610D02*
D03*
X1378870Y336550D02*
D03*
X1366870D02*
D03*
X1158590Y543560D02*
D03*
X1170590D02*
D03*
X1158590Y530860D02*
D03*
X1170590D02*
D03*
X1064610Y549910D02*
D03*
X1076610D02*
D03*
X1158590Y518160D02*
D03*
X1170590D02*
D03*
X1173130Y386080D02*
D03*
X1161130D02*
D03*
X1158590Y415290D02*
D03*
X1170590D02*
D03*
X1347120Y337820D02*
D03*
X1335120D02*
D03*
X1333850Y368300D02*
D03*
X1345850D02*
D03*
D21*
X1118820Y384200D02*
D03*
Y403200D02*
D03*
X1144320D02*
D03*
Y393700D02*
D03*
Y384200D02*
D03*
X1115110Y527710D02*
D03*
Y537210D02*
D03*
Y546710D02*
D03*
X1089610D02*
D03*
Y527710D02*
D03*
D22*
X1160780Y355310D02*
D03*
Y321310D02*
D03*
D23*
X1156635Y672476D02*
D03*
D24*
X1133735Y738376D02*
D03*
X1156635D02*
D03*
D25*
X1179535D02*
D03*
D26*
X1202355Y711776D02*
D03*
Y693276D02*
D03*
X1112185Y710866D02*
D03*
Y692366D02*
D03*
D27*
X973480Y471220D02*
D03*
X992480D02*
D03*
Y445720D02*
D03*
X982980D02*
D03*
X973480D02*
D03*
X1297330Y331420D02*
D03*
X1306830D02*
D03*
X1316330D02*
D03*
Y356920D02*
D03*
X1297330D02*
D03*
D28*
X955040Y461930D02*
D03*
Y449930D02*
D03*
X1029970Y418180D02*
D03*
Y430180D02*
D03*
X1272540Y330550D02*
D03*
Y342550D02*
D03*
X1187450Y365410D02*
D03*
Y353410D02*
D03*
X1362710Y317150D02*
D03*
Y305150D02*
D03*
D29*
X951720Y425450D02*
D03*
X917720D02*
D03*
X1406670Y1169670D02*
D03*
X1440670D02*
D03*
X1406670Y1087120D02*
D03*
X1440670D02*
D03*
X1383810Y916940D02*
D03*
X1417810D02*
D03*
X1381270Y814070D02*
D03*
X1415270D02*
D03*
X1372380Y631190D02*
D03*
X1406380D02*
D03*
X1371262Y537078D02*
D03*
X1405262D02*
D03*
X1311420Y308610D02*
D03*
X1345420D02*
D03*
D30*
X1272540Y708660D02*
D03*
X1285540D02*
D03*
X1262530Y1003300D02*
D03*
X1249530D02*
D03*
X1273660Y984250D02*
D03*
X1286660D02*
D03*
X1430170Y1150620D02*
D03*
X1417170D02*
D03*
X1430320Y1068070D02*
D03*
X1417320D02*
D03*
X1407310Y897890D02*
D03*
X1394310D02*
D03*
X1012040Y944880D02*
D03*
X1025040D02*
D03*
X1012040Y929640D02*
D03*
X1025040D02*
D03*
X1012040Y914400D02*
D03*
X1025040D02*
D03*
X1012040Y899160D02*
D03*
X1025040D02*
D03*
X1012040Y883920D02*
D03*
X1025040D02*
D03*
X1012040Y868680D02*
D03*
X1025040D02*
D03*
X1012040Y853440D02*
D03*
X1025040D02*
D03*
X1012040Y838200D02*
D03*
X1025040D02*
D03*
X1406040Y795020D02*
D03*
X1393040D02*
D03*
X1056640Y944880D02*
D03*
X1043640D02*
D03*
X1056640Y929640D02*
D03*
X1043640D02*
D03*
X1056640Y914400D02*
D03*
X1043640D02*
D03*
X1056640Y899160D02*
D03*
X1043640D02*
D03*
X1056640Y883920D02*
D03*
X1043640D02*
D03*
X1056640Y868680D02*
D03*
X1043640D02*
D03*
X1056640Y853440D02*
D03*
X1043640D02*
D03*
X1056640Y838200D02*
D03*
X1043640D02*
D03*
X1244450Y708660D02*
D03*
X1257450D02*
D03*
X1395880Y612140D02*
D03*
X1382880D02*
D03*
X1395880Y518160D02*
D03*
X1382880D02*
D03*
D31*
X1316155Y851886D02*
D03*
X1315720Y1144270D02*
D03*
Y1131570D02*
D03*
Y1118870D02*
D03*
Y1106170D02*
D03*
X1369370Y1144270D02*
D03*
Y1131570D02*
D03*
Y1118870D02*
D03*
Y1106170D02*
D03*
X1316155Y877286D02*
D03*
Y864585D02*
D03*
Y839185D02*
D03*
X1369805Y877286D02*
D03*
Y864585D02*
D03*
Y851886D02*
D03*
Y839185D02*
D03*
X1303455Y592805D02*
D03*
Y580106D02*
D03*
Y567406D02*
D03*
Y554706D02*
D03*
X1357105Y592805D02*
D03*
Y580106D02*
D03*
Y567406D02*
D03*
Y554706D02*
D03*
D32*
X1113750Y843090D02*
D03*
Y849590D02*
D03*
Y856090D02*
D03*
Y862590D02*
D03*
Y869090D02*
D03*
Y875590D02*
D03*
Y882090D02*
D03*
Y888590D02*
D03*
Y895090D02*
D03*
Y901590D02*
D03*
Y908090D02*
D03*
Y914590D02*
D03*
X1172250D02*
D03*
Y908090D02*
D03*
Y901590D02*
D03*
Y895090D02*
D03*
Y888590D02*
D03*
Y882090D02*
D03*
Y875590D02*
D03*
Y869090D02*
D03*
Y856090D02*
D03*
Y849590D02*
D03*
Y843090D02*
D03*
Y862590D02*
D03*
D33*
X1071880Y1109980D02*
D03*
X1124880D02*
D03*
D34*
X840810Y699080D02*
D03*
Y631580D02*
D03*
D35*
Y676830D02*
D03*
D36*
Y649830D02*
D03*
D37*
X866560Y690205D02*
D03*
Y640455D02*
D03*
D38*
X867410Y678330D02*
D03*
Y671830D02*
D03*
Y665330D02*
D03*
Y658830D02*
D03*
Y652330D02*
D03*
D39*
X870980Y721360D02*
D03*
X840980D02*
D03*
X1331200Y1181100D02*
D03*
X1361200D02*
D03*
X1331200Y919480D02*
D03*
X1361200D02*
D03*
X1318500Y632460D02*
D03*
X1348500D02*
D03*
D40*
X900280Y693500D02*
D03*
X906780D02*
D03*
X913280D02*
D03*
X919780D02*
D03*
X926280D02*
D03*
X932780D02*
D03*
X939280D02*
D03*
X945780D02*
D03*
X952280D02*
D03*
X958780D02*
D03*
Y635000D02*
D03*
X952280D02*
D03*
X945780D02*
D03*
X939280D02*
D03*
X932780D02*
D03*
X926280D02*
D03*
X919780D02*
D03*
X913280D02*
D03*
X906780D02*
D03*
X900280D02*
D03*
D41*
X918610Y620160D02*
D03*
X907650Y609200D02*
D03*
D42*
X885190Y656720D02*
D03*
Y641220D02*
D03*
D43*
X921150Y709530D02*
D03*
X910190Y720490D02*
D03*
D44*
X1074420Y651660D02*
D03*
Y638660D02*
D03*
X1059180Y651660D02*
D03*
Y638660D02*
D03*
X1043940Y651660D02*
D03*
Y638660D02*
D03*
X1206500Y1009800D02*
D03*
Y996800D02*
D03*
X1221740Y1009800D02*
D03*
Y996800D02*
D03*
X1281430Y910740D02*
D03*
Y897740D02*
D03*
X1278890Y850750D02*
D03*
Y863750D02*
D03*
D45*
X1068600Y614680D02*
D03*
X1103100D02*
D03*
D46*
X1510000Y1013460D02*
D03*
X1538000D02*
D03*
X1510000Y734060D02*
D03*
X1538000D02*
D03*
X1510000Y441960D02*
D03*
X1538000D02*
D03*
D78*
X889000Y612140D02*
D03*
X897890Y596900D02*
D03*
X892810Y713740D02*
D03*
X899160Y731520D02*
D03*
X919480Y596900D02*
D03*
X929640Y608330D02*
D03*
X925830Y733637D02*
D03*
X935990Y721360D02*
D03*
X949960Y610870D02*
D03*
X947420Y731520D02*
D03*
X958850Y596900D02*
D03*
X939800D02*
D03*
X957580Y716280D02*
D03*
X901700Y1137920D02*
D03*
X849630Y1111250D02*
D03*
X928370Y1071880D02*
D03*
X876300Y1137920D02*
D03*
X848360Y1079500D02*
D03*
D79*
X952500Y1101090D02*
D03*
X1150620Y819150D02*
D03*
X1113790D02*
D03*
X1287780Y1145540D02*
D03*
Y1102360D02*
D03*
X1290320Y881380D02*
D03*
X1294130Y840740D02*
D03*
X1285240Y591820D02*
D03*
Y553720D02*
D03*
X1216660Y858520D02*
D03*
X1071880Y838200D02*
D03*
X1198880Y866140D02*
D03*
X1071880Y853440D02*
D03*
X1216660Y878840D02*
D03*
X1071880Y868680D02*
D03*
X1198880Y886460D02*
D03*
X1071880Y883920D02*
D03*
X1216660Y896620D02*
D03*
X1071880Y899160D02*
D03*
X1198880Y904240D02*
D03*
X1071880Y914400D02*
D03*
X1216660D02*
D03*
X1071880Y929640D02*
D03*
X1198880Y922020D02*
D03*
X1071880Y944880D02*
D03*
X1188720Y817880D02*
D03*
X1094740Y819150D02*
D03*
X1170940D02*
D03*
X1132840D02*
D03*
D80*
X852170Y599440D02*
D03*
D81*
X873760D02*
D03*
D82*
X1150620Y1216660D02*
D03*
X1042670Y1217930D02*
D03*
X1639570Y1118870D02*
D03*
Y858520D02*
D03*
Y560070D02*
D03*
D83*
X974408Y439880D02*
Y444792D01*
X979948Y434340D02*
X1016000D01*
X973480Y445720D02*
X974408Y444792D01*
Y439880D02*
X979948Y434340D01*
X1116090Y404680D02*
Y405930D01*
Y404680D02*
X1117570Y403200D01*
X1115346Y406674D02*
Y409646D01*
Y406674D02*
X1116090Y405930D01*
X1115346Y409646D02*
X1123030Y417330D01*
X1117570Y403200D02*
X1118820D01*
X1123030Y417330D02*
Y417830D01*
X933534Y684446D02*
X942340Y675640D01*
X933534Y684446D02*
Y692746D01*
X895286Y614616D02*
X905800Y625130D01*
Y634020D01*
X889218Y612140D02*
X891694Y614616D01*
X895286D01*
X992665Y425450D02*
X997395Y430180D01*
X1029970D01*
X1031240Y431450D01*
X951720Y425450D02*
X992665D01*
X1016000Y434340D02*
X1024890Y443230D01*
X1297330Y331420D02*
X1298258Y330492D01*
Y325580D02*
X1305067Y318770D01*
X1337310D01*
X1298258Y325580D02*
Y330492D01*
X1337310Y318770D02*
X1346200Y327660D01*
X1241470Y711776D02*
X1244450Y708796D01*
Y708660D02*
Y708796D01*
X1202355Y711776D02*
X1241470D01*
X929640Y412750D02*
Y608330D01*
Y412750D02*
X1007110Y335280D01*
X1267810D01*
X1038030Y431450D02*
X1043020Y436440D01*
X1031240Y431450D02*
X1038030D01*
X1043020Y436440D02*
Y445770D01*
X1031240Y419450D02*
X1051910D01*
X1029970Y418180D02*
X1031240Y419450D01*
X1051910D02*
X1059815Y427355D01*
X1272040Y330550D02*
X1272540D01*
X1269560Y333030D02*
Y333530D01*
X1267810Y335280D02*
X1269560Y333530D01*
Y333030D02*
X1272040Y330550D01*
X1167480Y359040D02*
X1169610Y361170D01*
X1163260Y359040D02*
X1167480D01*
X1160780Y356560D02*
X1163260Y359040D01*
X1160780Y355310D02*
Y356560D01*
X1169610Y361170D02*
X1171080D01*
X1185120Y366060D02*
Y367240D01*
X1184470Y365410D02*
X1185120Y366060D01*
X1175320Y365410D02*
X1184470D01*
X1171080Y361170D02*
X1175320Y365410D01*
X1185120Y367240D02*
X1191610Y373730D01*
X1249530Y1002800D02*
Y1003300D01*
X1246550Y999820D02*
X1249530Y1002800D01*
X1246050Y999820D02*
X1246550D01*
X1243661Y997431D02*
X1246050Y999820D01*
X1206500Y1009800D02*
X1221740D01*
X849630Y1111250D02*
X850422D01*
X855502Y1106170D01*
X863450D01*
X863600Y1106020D01*
X857250Y1079500D02*
X863600Y1085850D01*
X848360Y1079500D02*
X857250D01*
X876300Y1137920D02*
X909400Y1104820D01*
X929050D01*
X1222907Y1008633D02*
X1232003D01*
X1221740Y1009800D02*
X1222907Y1008633D01*
X1285540Y708660D02*
X1332230D01*
X1333500Y707390D01*
X1290320Y819150D02*
X1329690D01*
X1278890Y830580D02*
Y850750D01*
Y830580D02*
X1290320Y819150D01*
X1285240Y929640D02*
X1297940Y942340D01*
X1338580D01*
X1285240Y914550D02*
Y929640D01*
X1281930Y910740D02*
X1284910Y913720D01*
X1281430Y910740D02*
X1281930D01*
X1284910Y913720D02*
Y914220D01*
X1285240Y914550D01*
X1286660Y984250D02*
X1337310D01*
X1338580Y982980D01*
X1041550Y515620D02*
X1046480Y520550D01*
Y529440D01*
X973480Y471220D02*
Y473907D01*
Y480820D01*
X1295850Y358400D02*
X1297330Y356920D01*
X1295850Y358400D02*
Y361500D01*
X1273960Y365760D02*
X1291590D01*
X1295850Y361500D01*
X1102010Y568960D02*
X1117950D01*
X1089088Y568038D02*
X1090010Y568960D01*
X1117950Y568460D02*
Y568960D01*
X1115110Y565620D02*
X1117950Y568460D01*
X1115110Y546710D02*
Y565620D01*
X1076610Y549910D02*
Y550410D01*
X1079090Y552890D01*
X1079590D01*
X1089088Y562388D01*
Y568038D01*
X1074420Y518010D02*
X1074752Y518342D01*
X1080242D01*
X1086880Y524980D01*
Y526230D01*
X1088360Y527710D01*
X1272040Y330550D02*
X1282000D01*
X1220819Y375344D02*
X1339668D01*
X1208645Y363170D02*
X1220819Y375344D01*
X1198060Y363170D02*
X1208645D01*
X1383690Y339530D02*
X1451610Y407450D01*
Y481330D01*
X1516533Y505713D02*
X1518920Y508100D01*
X1515045Y496670D02*
X1516533Y498158D01*
X1466950Y496670D02*
X1515045D01*
X1451610Y481330D02*
X1466950Y496670D01*
X1339668Y375344D02*
X1342735Y372276D01*
X934720Y415290D02*
X942340Y407670D01*
X1114602D01*
X1116090Y406182D01*
X1350925Y381830D02*
X1447375Y478280D01*
X1206090Y381830D02*
X1350925D01*
X1135030Y417568D02*
Y417830D01*
X1176363Y415290D02*
X1179830D01*
X1172895D02*
X1176363D01*
X1170590D02*
X1172895D01*
X1160830Y427355D02*
X1172895Y415290D01*
X1059815Y427355D02*
X1160830D01*
X1203610Y384310D02*
X1206090Y381830D01*
X1203610Y384310D02*
Y384810D01*
X1447375Y793325D02*
X1454150Y800100D01*
X1447375Y478280D02*
Y793325D01*
X939229Y596329D02*
X939800Y596900D01*
X939229Y588709D02*
Y596329D01*
X934720Y584200D02*
X939229Y588709D01*
X934720Y415290D02*
Y584200D01*
X1101550Y384200D02*
X1118820D01*
X1099820Y385930D02*
X1101550Y384200D01*
X1325574Y368300D02*
X1333850D01*
X1317299D02*
X1325574D01*
Y340664D02*
Y368300D01*
X1316330Y331420D02*
Y332670D01*
X1317810Y334150D01*
X1319060D01*
X1325574Y340664D01*
X1001089Y481330D02*
X1010000D01*
X992179D02*
X1001089D01*
X1002030Y480389D01*
Y455270D02*
Y480389D01*
X993960Y448450D02*
X995210D01*
X1002030Y455270D01*
X992480Y445720D02*
Y446970D01*
X993960Y448450D01*
X1024890Y443230D02*
X1040540D01*
X941646Y583506D02*
X949960Y591820D01*
X941646Y455264D02*
Y583506D01*
Y455264D02*
X946980Y449930D01*
X963184D01*
X967917Y454663D02*
X973081D01*
X963184Y449930D02*
X967917Y454663D01*
X973081D02*
X974997Y456578D01*
X992480Y469970D02*
Y471220D01*
X979088Y456578D02*
X992480Y469970D01*
X974997Y456578D02*
X979088D01*
X974601Y461930D02*
X980714Y468043D01*
X955040Y461930D02*
X974601D01*
X980714Y469865D02*
X992179Y481330D01*
X980714Y468043D02*
Y469865D01*
X949960Y591820D02*
Y610870D01*
X1309370Y360371D02*
X1317299Y368300D01*
X1309370Y348647D02*
Y360371D01*
X1307433Y346710D02*
X1309370Y348647D01*
X1277008Y346710D02*
X1307433D01*
X1275520Y345222D02*
X1277008Y346710D01*
X1273040Y342550D02*
X1275520Y345030D01*
X1272540Y342550D02*
X1273040D01*
X1275520Y345030D02*
Y345222D01*
X1290540Y339090D02*
X1305560D01*
X1316330Y349860D02*
Y356920D01*
X1305560Y339090D02*
X1316330Y349860D01*
X1282000Y330550D02*
X1290540Y339090D01*
X1346200Y327660D02*
X1357980D01*
X1347610Y317150D02*
X1362710D01*
X1345420Y308610D02*
Y314960D01*
X1347610Y317150D01*
X1347620Y337820D02*
Y351790D01*
Y329080D02*
Y337820D01*
X1144320Y403200D02*
X1144872Y403752D01*
Y410812D01*
X1145570Y384200D02*
X1147050Y382720D01*
X1144320Y384200D02*
X1145570D01*
X1140596Y415088D02*
X1144872Y410812D01*
X1149350Y415290D01*
X1135030Y417568D02*
X1137510Y415088D01*
X1140596D01*
X1149350Y415290D02*
X1158590D01*
X1147050Y381470D02*
X1152600Y375920D01*
X1147050Y381470D02*
Y382720D01*
X1152600Y375920D02*
X1172210D01*
X939800Y596900D02*
Y615950D01*
X1172210Y375920D02*
X1182720D01*
X1024540Y453390D02*
X1025040D01*
Y466090D01*
Y443380D02*
Y453390D01*
X1080358Y546930D02*
X1080578Y546710D01*
X1079090Y546930D02*
X1080358D01*
X1076610Y549410D02*
X1079090Y546930D01*
X1076610Y549410D02*
Y549910D01*
X1080578Y546710D02*
X1089610D01*
X952500Y554990D02*
Y588010D01*
X958850Y594360D01*
X952500Y554990D02*
X965050Y542440D01*
X958850Y594360D02*
Y621646D01*
X965050Y542440D02*
X1046480D01*
X1053950Y549910D02*
X1064610D01*
X1046480Y542440D02*
X1053950Y549910D01*
X1184618Y420078D02*
X1198060Y406635D01*
X1179830Y415290D02*
X1184618Y420078D01*
X1198060Y363170D02*
Y375100D01*
X1022000Y481330D02*
X1027430D01*
X1049111Y459649D01*
X1052817Y434353D02*
X1059815Y427355D01*
X1024890Y443230D02*
X1025040Y443380D01*
X1346200Y327660D02*
X1347620Y329080D01*
X1173130Y386080D02*
X1173630Y386580D01*
X1172210Y385160D02*
X1173130Y386080D01*
X1172210Y375920D02*
Y385160D01*
X1173630Y386580D02*
Y400050D01*
X1345850Y371713D02*
X1372961Y344602D01*
X1368121Y306401D02*
X1372961Y311241D01*
X1366325Y306401D02*
X1368121D01*
X1191415Y356525D02*
X1198060Y363170D01*
X1439164Y797686D02*
X1454150Y812672D01*
X1439164Y482982D02*
Y797686D01*
X1401952Y445770D02*
X1439164Y482982D01*
X1055020Y445770D02*
X1401952D01*
X1454150Y812672D02*
Y1066800D01*
X1040540Y443230D02*
X1043020Y445710D01*
Y445770D01*
X1182720Y375920D02*
X1188630Y381830D01*
X1357980Y327660D02*
X1366870Y336550D01*
X1189130Y381830D02*
X1191610Y384310D01*
X1188630Y381830D02*
X1189130D01*
X1191610Y384310D02*
Y384810D01*
X1305560Y530860D02*
X1341120Y495300D01*
X1170590Y530860D02*
X1305560D01*
X1308100Y520700D02*
X1338580Y490220D01*
X1173070Y520700D02*
X1308100D01*
X1170590Y518160D02*
Y518220D01*
X1173070Y520700D01*
X1338580Y490220D02*
X1408212D01*
X1341120Y495300D02*
X1416050D01*
X1173070Y541020D02*
X1303020D01*
X1343660Y500380D02*
X1409700D01*
X1303020Y541020D02*
X1343660Y500380D01*
X1170590Y543500D02*
Y543560D01*
Y543500D02*
X1173070Y541020D01*
X1365690Y320130D02*
X1366870Y321310D01*
X1363210Y317150D02*
X1365690Y319630D01*
X1366870Y321310D02*
Y336550D01*
X1365690Y319630D02*
Y320130D01*
X1362710Y317150D02*
X1363210D01*
X1191610Y373730D02*
Y384810D01*
X1381350Y339530D02*
X1383690D01*
X1378870Y337050D02*
X1381350Y339530D01*
X1378870Y336550D02*
Y337050D01*
X1408212Y490220D02*
X1420912Y477520D01*
X1416050Y495300D02*
X1428750Y508000D01*
X1420912Y477520D02*
X1421130D01*
X929640Y608330D02*
Y611662D01*
X1435100Y793622D02*
Y1016000D01*
X1419860Y778382D02*
X1435100Y793622D01*
X1419860Y510540D02*
Y778382D01*
X1409700Y500380D02*
X1419860Y510540D01*
X1428750Y774700D02*
X1429938Y773512D01*
X1428750Y508000D02*
Y773512D01*
X1516533Y498158D02*
Y505713D01*
X1140460Y527710D02*
X1153330Y540580D01*
X1156110D01*
X1158590Y543060D01*
X1156110Y527880D02*
X1158590Y530360D01*
X1154622Y527710D02*
X1154792Y527880D01*
X1158590Y530360D02*
Y530860D01*
X1154792Y527880D02*
X1156110D01*
X1140460Y527710D02*
X1154622D01*
X1140460D02*
X1150010Y518160D01*
X1158590D01*
X1115110Y527710D02*
X1140460D01*
X1158590Y543060D02*
Y543560D01*
X1056640Y853440D02*
X1075212D01*
X1079500Y855980D02*
X1099110Y875590D01*
X1077752Y855980D02*
X1079500D01*
X1075212Y853440D02*
X1077752Y855980D01*
X1099110Y875590D02*
X1113750D01*
X1056640Y944880D02*
X1074420D01*
X1113366Y914974D02*
X1113750Y914590D01*
X1074420Y944880D02*
X1104326Y914974D01*
X1113366D01*
X1056640Y838200D02*
X1074420D01*
X1104626Y868406D02*
X1113066D01*
X1074420Y838200D02*
X1104626Y868406D01*
X1113066D02*
X1113750Y869090D01*
X1090370Y882090D02*
X1113750D01*
X1076960Y868680D02*
X1090370Y882090D01*
X1056640Y868680D02*
X1076960D01*
X1056640Y883920D02*
X1082040D01*
X1086710Y888590D01*
X1113750D01*
X1083570Y895090D02*
X1113750D01*
X1079500Y899160D02*
X1083570Y895090D01*
X1056640Y899160D02*
X1079500D01*
X1056640Y914400D02*
X1071880D01*
X1084690Y901590D01*
X1113750D01*
X1098510Y908090D02*
X1113750D01*
X1076960Y929640D02*
X1098510Y908090D01*
X1056640Y929640D02*
X1076960D01*
X1025040Y838200D02*
X1043640D01*
X1025040Y853440D02*
X1043640D01*
X1025040Y868680D02*
X1043640D01*
X1025040Y883920D02*
X1043640D01*
X1025040Y899160D02*
X1043640D01*
X1025040Y914400D02*
X1043640D01*
X1025040Y929640D02*
X1043640D01*
X1025040Y944880D02*
X1043640D01*
X912300Y625280D02*
Y634020D01*
X897890Y610870D02*
X912300Y625280D01*
X932780Y623876D02*
Y635000D01*
X919480Y610575D02*
X932780Y623876D01*
X919480Y596900D02*
Y610575D01*
X897890Y596900D02*
Y610870D01*
X890870Y626110D02*
X891334Y626574D01*
X895336D01*
X897782Y629020D01*
X930910Y647828D02*
Y655192D01*
X927260Y644178D02*
X930910Y647828D01*
X927260Y635980D02*
Y644178D01*
X925300Y634020D02*
X927260Y635980D01*
X929640Y656462D02*
X930910Y655192D01*
X929640Y656462D02*
Y659882D01*
X907760Y685569D02*
X913691Y679638D01*
X918022D02*
X919480Y678180D01*
X913691Y679638D02*
X918022D01*
X900280Y680938D02*
X904240Y676978D01*
Y675640D02*
Y676978D01*
X900280Y680938D02*
Y693500D01*
X926280D02*
X927109Y692671D01*
Y684521D02*
Y692671D01*
Y684521D02*
X931477Y680153D01*
Y661719D02*
Y680153D01*
X907760Y685569D02*
Y692520D01*
X937448Y713552D02*
Y719902D01*
Y713552D02*
X945780Y705220D01*
Y693500D02*
Y705220D01*
X925830Y716280D02*
Y733637D01*
Y716280D02*
X939041Y703069D01*
Y693739D02*
Y703069D01*
Y693739D02*
X939280Y693500D01*
X877280Y672810D02*
X883920Y679450D01*
Y718820D01*
X885190Y668020D02*
X890023Y672852D01*
Y697233D02*
X900385Y707595D01*
X890023Y672852D02*
Y697233D01*
X885190Y665109D02*
Y668020D01*
X900565Y707416D02*
X907357D01*
X912372Y694408D02*
X913280Y693500D01*
X907357Y707416D02*
X912372Y702400D01*
Y694408D02*
Y702400D01*
X952280Y616522D02*
Y635000D01*
X945780Y621930D02*
Y635000D01*
X949960Y614202D02*
X952280Y616522D01*
X939800Y615950D02*
X945780Y621930D01*
X949960Y610870D02*
Y614202D01*
X945780Y635000D02*
X945780Y635000D01*
X938300Y634020D02*
X939280Y635000D01*
X912300Y634020D02*
X913280Y635000D01*
X929640Y659882D02*
X931477Y661719D01*
X897782Y629020D02*
X899300D01*
X900280Y630000D01*
X904875Y655798D02*
Y657860D01*
X925300Y626850D02*
Y634020D01*
X905800D02*
X906780Y635000D01*
X919780D02*
Y647208D01*
X922020Y649448D01*
Y651510D01*
X900280Y630000D02*
Y635000D01*
X929640Y611662D02*
X932116Y614138D01*
Y614616D01*
X938300Y620800D01*
X885190Y656720D02*
Y665109D01*
X901825Y651434D02*
Y652748D01*
X904875Y655798D01*
X918610Y620160D02*
X925300Y626850D01*
X958780Y621716D02*
Y635000D01*
X938300Y620800D02*
Y634020D01*
X958780Y621716D02*
X958850Y621646D01*
X899160Y721360D02*
X918800Y701720D01*
X899160Y721360D02*
Y731520D01*
X896432Y728792D02*
X899160Y731520D01*
X893892Y728792D02*
X896432D01*
X892810Y713740D02*
X893536D01*
X883920Y718820D02*
X893892Y728792D01*
X935990Y721360D02*
X937448Y719902D01*
X906780Y693500D02*
X907760Y692520D01*
X932780Y693500D02*
X933534Y692746D01*
X893536Y713740D02*
X899427Y707849D01*
X958780Y693500D02*
Y698500D01*
X957580Y699700D02*
Y716280D01*
Y699700D02*
X958780Y698500D01*
X952280Y693500D02*
Y705008D01*
X947420Y709868D02*
X952280Y705008D01*
X947420Y709868D02*
Y731520D01*
X918800Y694480D02*
X919780Y693500D01*
X918800Y694480D02*
Y701720D01*
X921150Y709530D02*
X926280Y704400D01*
Y693500D02*
Y704400D01*
X867631Y665109D02*
X885190D01*
X868390Y672810D02*
X877280D01*
X867410Y671830D02*
X868390Y672810D01*
D84*
X973328Y692150D02*
X985520D01*
X972221D02*
X973328D01*
X962091Y682020D02*
X972221Y692150D01*
X962091Y680151D02*
Y682020D01*
X958336Y676396D02*
X962091Y680151D01*
X1316155Y877286D02*
X1333500D01*
X1309318Y614621D02*
Y615418D01*
X1347620Y631580D02*
X1348500Y632460D01*
X1347620Y614680D02*
Y631580D01*
X1353660Y603560D02*
Y608640D01*
X1347620Y614680D02*
X1353660Y608640D01*
Y603560D02*
X1355238Y601982D01*
X1356391Y592805D02*
X1357105D01*
X1355241Y593956D02*
X1356391Y592805D01*
X1355241Y593956D02*
Y599439D01*
X1355238Y599442D02*
X1355241Y599439D01*
X1355238Y599442D02*
Y601982D01*
X1369370Y1144270D02*
Y1156810D01*
X1362860Y1163320D02*
X1369370Y1156810D01*
X1362860Y1163320D02*
Y1179440D01*
X1361200Y1181100D02*
X1362860Y1179440D01*
X1012040Y929640D02*
Y944880D01*
Y914400D02*
Y929640D01*
Y899160D02*
Y914400D01*
Y883920D02*
Y899160D01*
Y868680D02*
Y883920D01*
Y853440D02*
Y868680D01*
Y838200D02*
Y853440D01*
X853739Y683302D02*
X858366Y678675D01*
X867065D01*
X853739Y683302D02*
Y706289D01*
X867065Y678675D02*
X867410Y678330D01*
X845575Y714453D02*
X853739Y706289D01*
X1318260Y1160780D02*
X1326605Y1169125D01*
Y1177255D01*
X1330450Y1181100D01*
X1331200D01*
X1318260Y1145420D02*
Y1160780D01*
X1317110Y1144270D02*
X1318260Y1145420D01*
X1357780Y899160D02*
X1363980Y892960D01*
Y883110D02*
Y892960D01*
X1364259Y878436D02*
X1365409Y877286D01*
X1363980Y883110D02*
X1364259Y882831D01*
X1359442Y899160D02*
Y917722D01*
X1365409Y877286D02*
X1369805D01*
X1364259Y878436D02*
Y882831D01*
X1359442Y917722D02*
X1361200Y919480D01*
X871730Y721360D02*
X875575Y725205D01*
Y725955D02*
X878840Y729220D01*
X870980Y721360D02*
X871730D01*
X878840Y729288D02*
X881072Y731520D01*
X882650D01*
X878840Y729220D02*
Y729288D01*
X875575Y725205D02*
Y725955D01*
X841730Y721360D02*
X845575Y717515D01*
X840980Y721360D02*
X841730D01*
X845575Y714453D02*
Y717515D01*
D85*
X943659Y661719D02*
X958336Y676396D01*
X931477Y661719D02*
X943659D01*
X1012040Y453890D02*
X1012540Y453390D01*
X1012040Y453890D02*
Y466090D01*
X1334620Y338320D02*
Y351790D01*
Y338320D02*
X1335120Y337820D01*
X1369805Y839185D02*
X1375650D01*
X1378810Y836025D01*
Y815280D02*
Y836025D01*
X1088818Y374928D02*
X1120846Y342900D01*
X1257300D02*
X1271320Y356920D01*
X1120846Y342900D02*
X1257300D01*
X1303455Y592805D02*
X1309078D01*
X1309318Y593046D01*
Y596139D01*
X1315997Y629957D02*
X1318500Y632460D01*
X1331200Y919480D02*
X1331950D01*
X1315720Y1144270D02*
X1317110D01*
X1331950Y919480D02*
X1335160Y922690D01*
Y924190D01*
X1081762Y374928D02*
X1088818D01*
X1065530Y391160D02*
X1081762Y374928D01*
X1066800Y612880D02*
X1068600Y614680D01*
X1066800Y570230D02*
Y612880D01*
X992333Y492760D02*
X1035050D01*
X973480Y473907D02*
X992333Y492760D01*
X1035050D02*
X1040130Y487680D01*
X1074420D01*
X970430Y483870D02*
X973480Y480820D01*
Y473907D02*
X973480D01*
X1089450Y527710D02*
X1089660Y527500D01*
X1088360Y527710D02*
X1089450D01*
X1089660Y514350D02*
Y527500D01*
X1074420Y487680D02*
Y499110D01*
X1089660Y514350D01*
X1271320Y356920D02*
X1297330D01*
X1088818Y374928D02*
X1099820Y385930D01*
X1062890Y620390D02*
X1065890D01*
X1068600Y614680D02*
Y617680D01*
X1059180Y624100D02*
Y638660D01*
Y624100D02*
X1062890Y620390D01*
X1065890D02*
X1068600Y617680D01*
X1074420Y638660D02*
X1093170D01*
X1059180D02*
X1074420D01*
X1043940D02*
X1059180D01*
X1093170D02*
X1093320Y638810D01*
X1094740Y819150D02*
Y829310D01*
X1108520Y843090D02*
X1113750D01*
X1094740Y829310D02*
X1108520Y843090D01*
X1188555Y818045D02*
Y826785D01*
X1176960Y838380D02*
Y842800D01*
X1188555Y818045D02*
X1188720Y817880D01*
X1176960Y838380D02*
X1188555Y826785D01*
X1349860Y1133984D02*
X1362961Y1120883D01*
Y1119434D02*
Y1120883D01*
X1349860Y1133984D02*
Y1163320D01*
X1363525Y1118870D02*
X1369370D01*
X1428750D01*
X1362961Y1119434D02*
X1363525Y1118870D01*
X1428750D02*
X1436652Y1126772D01*
X1437130D01*
X1440658Y1130300D01*
X1442720D01*
X1344780Y872515D02*
X1363396Y853898D01*
Y852449D02*
Y853898D01*
X1344780Y872515D02*
Y899160D01*
X1363960Y851886D02*
X1369805D01*
X1385285D01*
X1363396Y852449D02*
X1363960Y851886D01*
X1385285D02*
X1399540Y866140D01*
X1357105Y567406D02*
X1382594D01*
X1350600D02*
X1357105D01*
Y554706D02*
X1357338Y554472D01*
X1365708D02*
X1369060Y551120D01*
Y538288D02*
X1370270Y537078D01*
X1369060Y538288D02*
Y551120D01*
X1357338Y554472D02*
X1365708D01*
X1370270Y537078D02*
X1371262D01*
X1380670Y520370D02*
X1381170D01*
X1372295Y528745D02*
X1380670Y520370D01*
X1371262Y537078D02*
X1372295Y536045D01*
Y528745D02*
Y536045D01*
X1382880Y518160D02*
Y518660D01*
X1381170Y520370D02*
X1382880Y518660D01*
X1397590Y520370D02*
X1398090D01*
X1395880Y518160D02*
Y518660D01*
X1406404Y528684D02*
Y535936D01*
X1395880Y518660D02*
X1397590Y520370D01*
X1398090D02*
X1406404Y528684D01*
X1405262Y537078D02*
X1406404Y535936D01*
X1395880Y612140D02*
Y612640D01*
X1397590Y614350D02*
X1398090D01*
X1406380Y622640D01*
Y631190D01*
X1398270D02*
X1406380D01*
X1395880Y612640D02*
X1397590Y614350D01*
X1389229Y574040D02*
X1389380D01*
X1382594Y567406D02*
X1389229Y574040D01*
X1389380Y640080D02*
X1398270Y631190D01*
X1382880Y588936D02*
Y624510D01*
X1372380Y631190D02*
X1373590Y629980D01*
X1377410D01*
X1382880Y624510D01*
X1374050Y580106D02*
X1382880Y588936D01*
X1357105Y580106D02*
X1374050D01*
X1399540Y817880D02*
X1401380D01*
X1405190Y814070D02*
X1415270D01*
X1401380Y817880D02*
X1405190Y814070D01*
X1380020D02*
X1384300D01*
X1378810Y815280D02*
X1380020Y814070D01*
X1384300Y803760D02*
Y814070D01*
X1391330Y797230D02*
X1393040Y795520D01*
X1390830Y797230D02*
X1391330D01*
X1384300Y803760D02*
X1390830Y797230D01*
X1393040Y795020D02*
Y795520D01*
X1406040Y807390D02*
X1411510Y812860D01*
X1406040Y795020D02*
Y807390D01*
X1394310Y897390D02*
Y897890D01*
Y897390D02*
X1397000Y894700D01*
Y881380D02*
Y894700D01*
X1380439Y864819D02*
X1397000Y881380D01*
X1370038Y864819D02*
X1380439D01*
X1369805Y864585D02*
X1370038Y864819D01*
X1383810Y916940D02*
X1385060D01*
X1392600Y909400D01*
Y899600D02*
Y909400D01*
Y899600D02*
X1394310Y897890D01*
X1416560Y916940D02*
X1417810D01*
X1413130Y913510D02*
X1416560Y916940D01*
X1407843Y908223D02*
X1413130Y913510D01*
X1334620Y572920D02*
Y614680D01*
Y572920D02*
X1341120Y566420D01*
X1349614D01*
X1350600Y567406D01*
X1441880Y1088330D02*
X1443130D01*
X1453962Y1099162D02*
Y1103442D01*
X1440670Y1087120D02*
X1441880Y1088330D01*
X1443130D02*
X1453962Y1099162D01*
Y1103442D02*
X1455420Y1104900D01*
X917812Y661670D02*
X929591D01*
X929640Y661719D01*
X931477D01*
X1404210Y1088330D02*
X1406710D01*
X1409130Y1085910D01*
X1416087Y1069303D02*
Y1076453D01*
X1409130Y1083410D02*
Y1085910D01*
X1416087Y1069303D02*
X1417320Y1068070D01*
X1409130Y1083410D02*
X1416087Y1076453D01*
X1369370Y1106170D02*
X1387620D01*
X1404210Y1089580D01*
Y1088330D02*
Y1089580D01*
X1414960Y1152830D02*
X1415460D01*
X1417170Y1150620D02*
Y1151120D01*
X1406670Y1161120D02*
Y1169670D01*
Y1161120D02*
X1414960Y1152830D01*
X1415460D02*
X1417170Y1151120D01*
X1398120Y1131570D02*
X1414960Y1148410D01*
X1369370Y1131570D02*
X1398120D01*
X1407843Y898423D02*
Y908223D01*
X1407310Y897890D02*
X1407843Y898423D01*
X1430703Y1159703D02*
X1438210Y1167210D01*
X1430703Y1151153D02*
Y1159703D01*
X1439420Y1169670D02*
X1440670D01*
X1438210Y1168460D02*
X1439420Y1169670D01*
X1438210Y1167210D02*
Y1168460D01*
X1430170Y1150620D02*
X1430703Y1151153D01*
X1440723Y1169670D02*
X1441933Y1170880D01*
Y1177773D01*
X1452880Y1188720D01*
X1440670Y1169670D02*
X1440723D01*
X1430778Y1077228D02*
X1438210Y1084660D01*
X1430320Y1068070D02*
X1430778Y1068528D01*
Y1077228D01*
X1438210Y1084660D02*
Y1085910D01*
X1439420Y1087120D01*
X1440670D01*
X1441920D02*
X1443130Y1088330D01*
D86*
X889310Y642295D02*
X904875Y657860D01*
X912885Y388865D02*
Y430285D01*
Y388865D02*
X980440Y321310D01*
X1160780D01*
X1111851Y711200D02*
X1112185Y710866D01*
X1078230Y711200D02*
X1111851D01*
X1070610Y1089660D02*
X1096310D01*
X1116630Y1109980D01*
X1124880D01*
X965200Y984250D02*
X1070610Y1089660D01*
X1161355Y319485D02*
X1251505D01*
X1262380Y308610D02*
X1311420D01*
X1251505Y319485D02*
X1262380Y308610D01*
X1160780Y320060D02*
Y321310D01*
Y320060D02*
X1161355Y319485D01*
X896190Y446980D02*
X912885Y430285D01*
X896190Y446980D02*
Y552880D01*
X965200Y806450D02*
Y984250D01*
X875120Y573950D02*
Y598080D01*
X896190Y552880D02*
X916510D01*
X875120Y573950D02*
X896190Y552880D01*
X916510D02*
X916940Y552450D01*
X1106201Y671413D02*
X1149350D01*
X1099820Y666750D02*
X1101538D01*
X1106201Y671413D01*
X1149350D02*
X1152169Y674231D01*
X1157089Y735452D02*
Y737922D01*
X1078230Y709482D02*
Y711200D01*
X1074420Y651660D02*
Y705672D01*
X1078230Y709482D01*
X1059180Y651660D02*
X1074420D01*
X1043940D02*
X1059180D01*
X1114510Y711941D02*
Y715665D01*
X1112185Y710866D02*
X1113435D01*
X1114510Y718490D02*
X1133735Y737715D01*
X1113435Y710866D02*
X1114510Y711941D01*
X1133735Y737715D02*
Y738376D01*
X1156635Y737074D02*
Y738376D01*
X873760Y599440D02*
X875120Y598080D01*
X873760Y626110D02*
X886937Y639287D01*
X873760Y599440D02*
Y626110D01*
X885190Y641220D02*
X886265Y642295D01*
X889310D01*
X906593Y657860D02*
X910403Y661670D01*
X917812D01*
X904875Y657860D02*
X906593D01*
D87*
X840810Y610800D02*
Y631580D01*
Y610800D02*
X852170Y599440D01*
D88*
X869716Y1099586D02*
X886816D01*
X863600Y1085850D02*
Y1093470D01*
X869716Y1099586D01*
X1206500Y996800D02*
X1215390Y987910D01*
Y938530D02*
Y987910D01*
X1198880Y922020D02*
X1215390Y938530D01*
X1219200Y916940D02*
Y994260D01*
X1221740Y996800D01*
X1216279Y914019D02*
X1219200Y916940D01*
X922020Y789940D02*
Y1041400D01*
X942758Y1062139D01*
X922020Y789940D02*
X946785Y765175D01*
X918210Y789080D02*
X947068Y760222D01*
X918210Y1060450D02*
X928440Y1070680D01*
X918210Y789080D02*
Y1060450D01*
X901017Y1047163D02*
Y1076379D01*
X904240Y790728D02*
Y1043940D01*
X901017Y1047163D02*
X904240Y1043940D01*
X901017Y1076379D02*
X904240Y1079603D01*
X901446Y787934D02*
X904240Y790728D01*
X901446Y787400D02*
Y787934D01*
X904240Y1079603D02*
Y1085197D01*
X899617Y1089820D02*
X904240Y1085197D01*
X942758Y1062139D02*
Y1093779D01*
X921150Y709530D02*
Y726450D01*
X918382Y729218D02*
X921150Y726450D01*
X918382Y729218D02*
Y729745D01*
X918337Y729790D02*
Y758443D01*
X909541Y767239D02*
X918337Y758443D01*
X909541Y767239D02*
Y1055299D01*
X906930Y1057910D02*
X909541Y1055299D01*
X918337Y729790D02*
X918382Y729745D01*
X941717Y1094820D02*
X942758Y1093779D01*
X947068Y754732D02*
X947420Y754380D01*
X947068Y754732D02*
Y760222D01*
X928440Y1070680D02*
X929050D01*
X916940Y1099820D02*
X951230D01*
X923618Y767572D02*
X924493Y766697D01*
X919359Y767572D02*
X923618D01*
X913859Y773072D02*
X919359Y767572D01*
X913859Y773072D02*
Y1096739D01*
X951230Y1099820D02*
X952500Y1101090D01*
X901700Y1137920D02*
X926674Y1112945D01*
X951230Y1099820D02*
X952500Y1101090D01*
X906930Y1071880D02*
X908050Y1073000D01*
X906930Y1071880D02*
X907080Y1071730D01*
Y1058060D02*
Y1071730D01*
X906930Y1057910D02*
X907080Y1058060D01*
X929050Y1070680D02*
Y1089820D01*
X883925Y1110385D02*
Y1112945D01*
X863600Y1119020D02*
X877850D01*
X883925Y1112945D01*
X864800Y1104820D02*
X887050D01*
X863600Y1106020D02*
X864800Y1104820D01*
X913859Y1096739D02*
X916940Y1099820D01*
X929515Y1094820D02*
X941717D01*
X926674Y1110385D02*
Y1112945D01*
Y1110385D02*
X927239Y1109820D01*
X929050D01*
X884489D02*
X887050D01*
Y1089820D02*
X899617D01*
X886816Y1099586D02*
X887050Y1099820D01*
X883925Y1110385D02*
X884489Y1109820D01*
X887050Y1104820D02*
X899717D01*
X908050Y1096487D01*
Y1073000D02*
Y1096487D01*
X1110742Y786892D02*
X1113790Y789940D01*
X951705Y786892D02*
X1110742D01*
X1113790Y789940D02*
Y820148D01*
X1120140Y783590D02*
X1129966Y793416D01*
Y816276D01*
X952018Y783590D02*
X1120140D01*
X1121312Y779272D02*
X1150620Y808580D01*
X960882Y779272D02*
X1121312D01*
X1150620Y808580D02*
Y819150D01*
Y848360D01*
X1113790Y820148D02*
X1117490Y823848D01*
X1169336Y817546D02*
X1170940Y819150D01*
X967740Y775970D02*
X1122680D01*
X1164256Y817546D02*
X1169336D01*
X1122680Y775970D02*
X1164256Y817546D01*
X947387Y791210D02*
X951705Y786892D01*
X946125Y783565D02*
X951993D01*
X942340Y779780D02*
X946125Y783565D01*
X951993D02*
X952018Y783590D01*
X946150Y791210D02*
X947387D01*
X946785Y765175D02*
X960882Y779272D01*
X962660Y770890D02*
X967740Y775970D01*
X947420Y731520D02*
Y754380D01*
X923618Y765250D02*
X924703D01*
X923618Y765823D02*
X924493Y766697D01*
X924703Y765250D02*
X925830Y764123D01*
Y733637D02*
Y764123D01*
X935990Y721360D02*
Y764540D01*
X924946Y775584D02*
X935990Y764540D01*
X920463Y775807D02*
X920686Y775584D01*
X924946D01*
X955040Y722358D02*
Y756920D01*
X946785Y765175D02*
X955040Y756920D01*
X957580Y716280D02*
Y719818D01*
X955040Y722358D02*
X957580Y719818D01*
X1277785Y881216D02*
X1283410Y875590D01*
X1272159Y886841D02*
X1277785Y881216D01*
X1281430Y884861D01*
Y897740D01*
X1129966Y816276D02*
X1132840Y819150D01*
Y820148D01*
X1136650Y823958D01*
Y839060D01*
X1158343Y860753D01*
X1165413D01*
X1167250Y862590D01*
X1172250D01*
X1117490Y824120D02*
X1131570Y838200D01*
X1117490Y823848D02*
Y824120D01*
X1131570Y838200D02*
Y851901D01*
X1122210Y861261D02*
X1131570Y851901D01*
X1115079Y861261D02*
X1122210D01*
X1113750Y862590D02*
X1115079Y861261D01*
X1284254Y567406D02*
X1303455D01*
X1262380Y589280D02*
X1284254Y567406D01*
X1285240Y566420D01*
X1196074Y914019D02*
X1216279D01*
X1186370Y914590D02*
X1193800Y922020D01*
X1158240Y831850D02*
Y844327D01*
Y831850D02*
X1170940Y819150D01*
X1158240Y844327D02*
X1163317Y849404D01*
X1172064D01*
X1172250Y849590D01*
X1157021Y854761D02*
X1170921D01*
X1150620Y848360D02*
X1157021Y854761D01*
X1170921D02*
X1172250Y856090D01*
X1290320Y840740D02*
Y847791D01*
X1294415Y851886D01*
X1316155D01*
X1290574Y579120D02*
X1291463Y580009D01*
X1303358D01*
X1303455Y580106D01*
X1285240Y579120D02*
X1290574D01*
X1262380Y589280D02*
Y855980D01*
X1268730Y588010D02*
Y857250D01*
X1245870Y872490D02*
X1262380Y855980D01*
X1248410Y877570D02*
X1268730Y857250D01*
Y588010D02*
X1277620Y579120D01*
X1265220Y881080D02*
X1275029Y871271D01*
Y867111D02*
Y871271D01*
Y867111D02*
X1278390Y863750D01*
X1278890D01*
X1218640Y881080D02*
X1265220D01*
X1218640Y880820D02*
Y881080D01*
X1216660Y878840D02*
X1218640Y880820D01*
X1285911Y860389D02*
X1294415Y851886D01*
X1282251Y860389D02*
X1285911D01*
X1278890Y863750D02*
X1282251Y860389D01*
X1271270Y910590D02*
Y981860D01*
X1273660Y984250D01*
X1256305Y895625D02*
X1271270Y910590D01*
X1216660Y895625D02*
X1256305D01*
X1271270Y986640D02*
Y1106170D01*
Y986640D02*
X1273660Y984250D01*
X1282700Y1117600D02*
X1287780D01*
X1271270Y1106170D02*
X1282700Y1117600D01*
X1265145Y1005915D02*
Y1107665D01*
X1262530Y1003300D02*
X1265145Y1005915D01*
Y1107665D02*
X1289050Y1131570D01*
X1262530Y1002850D02*
Y1003300D01*
Y1002850D02*
X1264920Y1000460D01*
Y909320D02*
Y1000460D01*
X1260221Y904621D02*
X1264920Y909320D01*
X1199261Y904621D02*
X1260221D01*
X1198880Y904240D02*
X1199261Y904621D01*
X1184503Y867817D02*
X1194181Y858139D01*
X1173523Y867817D02*
X1184503D01*
X1194181Y858139D02*
X1216279D01*
X1201978Y868645D02*
X1202880Y867744D01*
X1204022D02*
X1204923Y868645D01*
X1220435D02*
X1229360Y877570D01*
X1202880Y867744D02*
X1204022D01*
X1204923Y868645D02*
X1220435D01*
X1201385D02*
X1201978D01*
X1200716Y869315D02*
X1201385Y868645D01*
X1198880Y866140D02*
X1201385Y868645D01*
X1232320Y872490D02*
X1245870D01*
X1218350Y858520D02*
X1232320Y872490D01*
X1229360Y877570D02*
X1248410D01*
X1195705Y869315D02*
X1200716D01*
X1189430Y875590D02*
X1195705Y869315D01*
X1172250Y875590D02*
X1189430D01*
X1172250Y869090D02*
X1173523Y867817D01*
X1189234Y880866D02*
X1191903Y878197D01*
X1215757D02*
X1216530Y878970D01*
X1173474Y880866D02*
X1189234D01*
X1191903Y878197D02*
X1215757D01*
X1172250Y882090D02*
X1173474Y880866D01*
X1199642Y886841D02*
X1272159D01*
X1192904Y888064D02*
X1197276D01*
X1172250Y888590D02*
X1192377D01*
X1197276Y888064D02*
X1198880Y886460D01*
X1192377Y888590D02*
X1192904Y888064D01*
X1192730Y901628D02*
X1195342Y904240D01*
X1172288Y901628D02*
X1192730D01*
X1172250Y914590D02*
X1186370D01*
X1190145Y908090D02*
X1196074Y914019D01*
X1172250Y908090D02*
X1190145D01*
X1216279Y858139D02*
X1216660Y858520D01*
X1218350D01*
X1283410Y875590D02*
X1295400Y863600D01*
X1216125Y895090D02*
X1216660Y895625D01*
X1172250Y895090D02*
X1216125D01*
X1216660Y895625D02*
Y896620D01*
X1277620Y579120D02*
X1285240D01*
Y591820D01*
Y553720D02*
Y566420D01*
X1283410Y875590D02*
X1284530D01*
X1290320Y881380D01*
X1287780Y1117600D02*
X1306243D01*
X1287780Y1102360D02*
Y1117600D01*
Y1132840D02*
X1289050Y1131570D01*
X1287780Y1132840D02*
Y1145540D01*
X1289050Y1131570D02*
X1315720D01*
X1306647Y1118005D02*
X1314855D01*
X1315720Y1118870D01*
X1306243Y1117600D02*
X1306647Y1118005D01*
X1295400Y863600D02*
X1306677D01*
X1315290Y863720D02*
X1316155Y864585D01*
X1306798Y863720D02*
X1315290D01*
X1306677Y863600D02*
X1306798Y863720D01*
D89*
X1124880Y1109980D02*
X1126730D01*
X1518920Y591820D02*
X1520090Y590650D01*
X1510000Y473680D02*
X1517496Y481176D01*
X1518920Y1080870D02*
X1535530D01*
X1555252Y1100592D01*
X1563370Y1118870D02*
X1639570D01*
X1555252Y1100592D02*
Y1126988D01*
X1563370Y1118870D01*
X1529080Y1153160D02*
X1555252Y1126988D01*
X1510000Y1013460D02*
Y1042640D01*
X1518920Y1051560D01*
Y800000D02*
X1530177D01*
X1576033Y845857D01*
X1556983D02*
X1576033D01*
X1588697Y858520D02*
X1639570D01*
X1518920Y883920D02*
X1556983Y845857D01*
X1576033D02*
X1588697Y858520D01*
X1541390Y519313D02*
Y540630D01*
X1525270Y579120D02*
X1552575Y551815D01*
X1518920Y508100D02*
X1521950Y511130D01*
X1533207D01*
X1541390Y540630D02*
X1552575Y551815D01*
X1533207Y511130D02*
X1541390Y519313D01*
X1552575Y551815D02*
X1563370Y541020D01*
X1510000Y763240D02*
X1518920Y772160D01*
X1510000Y734060D02*
Y763240D01*
Y441960D02*
Y473680D01*
X1129930Y1115030D02*
X1150620Y1135720D01*
X1126730Y1109980D02*
X1129930Y1113180D01*
X1150620Y1135720D02*
Y1216660D01*
X1129930Y1113180D02*
Y1115030D01*
X1563370Y541020D02*
X1582420Y560070D01*
X1520090Y590650D02*
X1525270Y585470D01*
Y579120D02*
Y585470D01*
X1582420Y560070D02*
X1639570D01*
X1481193Y1216660D02*
X1504633Y1193220D01*
X1515890D01*
X1481193Y643790D02*
X1504633Y620350D01*
X1515890D01*
X1481193Y643790D02*
Y935890D01*
X1504633Y912450D02*
X1515890D01*
X1481193Y935890D02*
X1504633Y912450D01*
X1481193Y935890D02*
Y1216660D01*
X1150620D02*
X1481193D01*
D90*
X1170590Y415290D02*
X1173130Y412750D01*
X1170590Y415290D02*
X1173130Y412750D01*
X1363892Y303968D02*
X1364330Y303530D01*
X1362710Y305150D02*
X1363892Y303968D01*
X1197701Y375459D02*
X1198060Y375100D01*
X1197701Y375459D02*
Y389954D01*
X1049111Y438059D02*
Y459649D01*
Y438059D02*
X1052817Y434353D01*
X1342735Y371915D02*
X1342937Y371713D01*
X1345850D01*
X1342735Y371915D02*
Y372638D01*
X1345850Y368300D02*
Y371713D01*
X1372961Y311241D02*
Y344602D01*
X1364330Y304406D02*
X1366325Y306401D01*
X1364330Y303530D02*
Y304406D01*
X1187450Y353410D02*
X1190565Y356525D01*
X1191415D01*
X1197701Y389954D02*
X1198060Y390313D01*
Y406635D01*
D91*
X1012458Y828694D02*
X1022002Y819150D01*
X1094740D01*
X1152169Y708660D02*
Y732607D01*
Y674231D02*
Y708660D01*
X1163906Y706767D02*
X1163936Y706736D01*
X1154062Y706767D02*
X1163906D01*
X1152169Y708660D02*
X1154062Y706767D01*
X1333500Y784860D02*
Y877286D01*
Y707390D02*
Y784860D01*
X1012458Y828694D02*
Y837782D01*
X1012040Y838200D02*
X1012458Y837782D01*
X1306830Y784860D02*
X1333500D01*
X1338580Y970280D02*
Y982980D01*
Y942340D02*
Y970280D01*
X1234440Y1006196D02*
X1238904Y1001732D01*
X1234440Y1006196D02*
Y1007110D01*
X1238904Y1001732D02*
X1241088D01*
X1242060Y1000760D01*
X1304290Y962660D02*
X1311910Y970280D01*
X1338580D01*
X1333500Y642674D02*
Y707390D01*
X1309318Y596139D02*
Y614621D01*
X1325226Y634400D02*
X1333500Y642674D01*
X1320440Y634400D02*
X1325226D01*
X1318500Y632460D02*
X1320440Y634400D01*
X1331560Y919480D02*
X1333500Y917540D01*
X1331200Y919480D02*
X1331560D01*
X1333500Y877286D02*
Y917540D01*
X1338580Y927610D02*
Y942340D01*
Y982980D02*
Y1137920D01*
X1309318Y615418D02*
X1315997Y622097D01*
Y629957D01*
X1317110Y1144270D02*
X1332230D01*
X1335160Y924190D02*
X1338580Y927610D01*
X1332230Y1144270D02*
X1338580Y1137920D01*
X1180765Y711776D02*
X1202355D01*
X1157089Y735452D02*
X1180765Y711776D01*
X1152169Y732607D02*
X1156635Y737074D01*
D92*
X1529080Y1153160D02*
Y1154530D01*
X1518920Y1164690D02*
X1529080Y1154530D01*
D93*
X973328Y636270D02*
D03*
Y650240D02*
D03*
Y664210D02*
D03*
Y678180D02*
D03*
Y692150D02*
D03*
D94*
X1518920Y1215690D02*
D03*
Y1106370D02*
D03*
Y934920D02*
D03*
Y825500D02*
D03*
Y642820D02*
D03*
Y533600D02*
D03*
D95*
Y1190190D02*
D03*
Y1164690D02*
D03*
Y1080870D02*
D03*
Y1055370D02*
D03*
Y909420D02*
D03*
Y883920D02*
D03*
Y800000D02*
D03*
Y774500D02*
D03*
Y617320D02*
D03*
Y591820D02*
D03*
Y508100D02*
D03*
Y482600D02*
D03*
D96*
X1143986Y876498D02*
D03*
X1174750Y946150D02*
D03*
X1117600D02*
D03*
X908050Y1117600D02*
D03*
X850900Y1136650D02*
D03*
X863600Y1047750D02*
D03*
X876300Y1060450D02*
D03*
X850900D02*
D03*
X939800Y1123950D02*
D03*
X952500Y1136650D02*
D03*
X926147Y1136839D02*
D03*
X942340Y675640D02*
D03*
X1239520Y354330D02*
D03*
X1226820Y364490D02*
D03*
X1005079Y444153D02*
D03*
X1303529Y830233D02*
D03*
X980949Y345093D02*
D03*
X953009Y373033D02*
D03*
X930149Y397163D02*
D03*
X1287019Y319693D02*
D03*
X1326389Y328583D02*
D03*
X1636521Y1219547D02*
D03*
X1655571Y1181447D02*
D03*
X1636521Y1067147D02*
D03*
X1655571Y1029047D02*
D03*
X1636521Y990947D02*
D03*
X1655571Y952847D02*
D03*
X1636521Y914747D02*
D03*
X1655571Y800447D02*
D03*
X1636521Y762347D02*
D03*
X1655571Y724247D02*
D03*
X1636521Y686147D02*
D03*
X1655571Y648047D02*
D03*
X1636521Y609947D02*
D03*
X1655571Y495647D02*
D03*
X1636521Y457547D02*
D03*
X1655571Y419447D02*
D03*
X1636521Y381347D02*
D03*
X1655571Y343247D02*
D03*
X1636521Y305147D02*
D03*
X1598421Y1219547D02*
D03*
X1617471Y1181447D02*
D03*
X1598421Y1143347D02*
D03*
Y1067147D02*
D03*
X1617471Y1029047D02*
D03*
X1598421Y990947D02*
D03*
X1617471Y952847D02*
D03*
X1598421Y914747D02*
D03*
X1617471Y800447D02*
D03*
X1598421Y762347D02*
D03*
X1617471Y724247D02*
D03*
X1598421Y686147D02*
D03*
X1617471Y648047D02*
D03*
X1598421Y609947D02*
D03*
Y533747D02*
D03*
X1617471Y495647D02*
D03*
X1598421Y457547D02*
D03*
X1617471Y419447D02*
D03*
X1598421Y381347D02*
D03*
X1617471Y343247D02*
D03*
X1598421Y305147D02*
D03*
X1560321Y1219547D02*
D03*
X1579371Y1181447D02*
D03*
X1560321Y1067147D02*
D03*
X1579371Y1029047D02*
D03*
X1560321Y990947D02*
D03*
X1579371Y952847D02*
D03*
X1560321Y914747D02*
D03*
X1579371Y876647D02*
D03*
Y800447D02*
D03*
X1560321Y762347D02*
D03*
X1579371Y724247D02*
D03*
X1560321Y686147D02*
D03*
X1579371Y648047D02*
D03*
X1560321Y609947D02*
D03*
X1579371Y495647D02*
D03*
X1560321Y457547D02*
D03*
X1579371Y419447D02*
D03*
X1560321Y381347D02*
D03*
X1579371Y343247D02*
D03*
X1560321Y305147D02*
D03*
X1541271Y1181447D02*
D03*
X1522221Y990947D02*
D03*
X1541271Y952847D02*
D03*
X1522221Y686147D02*
D03*
X1541271Y648047D02*
D03*
Y419447D02*
D03*
X1522221Y381347D02*
D03*
X1541271Y343247D02*
D03*
X1522221Y305147D02*
D03*
X1503171Y952847D02*
D03*
X1484121Y609947D02*
D03*
X1503171Y571847D02*
D03*
X1484121Y457547D02*
D03*
X1503171Y419447D02*
D03*
X1484121Y381347D02*
D03*
X1503171Y343247D02*
D03*
X1484121Y305147D02*
D03*
X1465071Y571847D02*
D03*
Y419447D02*
D03*
X1446021Y381347D02*
D03*
X1465071Y343247D02*
D03*
X1446021Y305147D02*
D03*
X1426971Y1181447D02*
D03*
Y1105247D02*
D03*
X1407921Y990947D02*
D03*
Y838547D02*
D03*
Y762347D02*
D03*
Y686147D02*
D03*
X1426971Y419447D02*
D03*
X1407921Y381347D02*
D03*
X1426971Y343247D02*
D03*
X1407921Y305147D02*
D03*
X1388871Y1181447D02*
D03*
X1369821Y1067147D02*
D03*
X1388871Y1029047D02*
D03*
X1369821Y990947D02*
D03*
X1388871Y952847D02*
D03*
X1369821Y762347D02*
D03*
X1388871Y724247D02*
D03*
X1369821Y686147D02*
D03*
Y609947D02*
D03*
Y457547D02*
D03*
Y381347D02*
D03*
X1350771Y1105247D02*
D03*
Y1029047D02*
D03*
Y952847D02*
D03*
Y800447D02*
D03*
Y724247D02*
D03*
Y648047D02*
D03*
X1331721Y533747D02*
D03*
Y457547D02*
D03*
X1350771Y419447D02*
D03*
X1331721Y305147D02*
D03*
X1312671Y1181447D02*
D03*
X1293621Y1067147D02*
D03*
X1312671Y1029047D02*
D03*
Y800447D02*
D03*
X1293621Y762347D02*
D03*
X1312671Y724247D02*
D03*
X1293621Y686147D02*
D03*
X1312671Y648047D02*
D03*
X1293621Y609947D02*
D03*
X1312671Y495647D02*
D03*
X1293621Y457547D02*
D03*
X1312671Y419447D02*
D03*
X1274571Y1181447D02*
D03*
X1255521Y1143347D02*
D03*
Y1067147D02*
D03*
Y914747D02*
D03*
X1274571Y495647D02*
D03*
X1255521Y457547D02*
D03*
X1274571Y419447D02*
D03*
X1236471Y1181447D02*
D03*
X1217421Y1143347D02*
D03*
X1236471Y1105247D02*
D03*
X1217421Y1067147D02*
D03*
X1236471Y1029047D02*
D03*
X1217421Y838547D02*
D03*
Y762347D02*
D03*
X1236471Y724247D02*
D03*
X1217421Y686147D02*
D03*
X1236471Y648047D02*
D03*
X1217421Y609947D02*
D03*
X1236471Y571847D02*
D03*
Y495647D02*
D03*
X1217421Y457547D02*
D03*
X1236471Y419447D02*
D03*
X1217421Y305147D02*
D03*
X1198371Y1181447D02*
D03*
X1179321Y1143347D02*
D03*
X1198371Y1105247D02*
D03*
X1179321Y1067147D02*
D03*
X1198371Y1029047D02*
D03*
X1179321Y990947D02*
D03*
Y762347D02*
D03*
Y686147D02*
D03*
X1198371Y648047D02*
D03*
X1179321Y609947D02*
D03*
X1198371Y571847D02*
D03*
Y495647D02*
D03*
X1179321Y457547D02*
D03*
X1198371Y419447D02*
D03*
X1179321Y305147D02*
D03*
X1160271Y1105247D02*
D03*
X1141221Y1067147D02*
D03*
X1160271Y1029047D02*
D03*
X1141221Y990947D02*
D03*
Y914747D02*
D03*
Y762347D02*
D03*
X1160271Y648047D02*
D03*
X1141221Y609947D02*
D03*
X1160271Y571847D02*
D03*
Y495647D02*
D03*
X1141221Y457547D02*
D03*
Y305147D02*
D03*
X1103121Y1219547D02*
D03*
X1122171Y1181447D02*
D03*
X1103121Y1143347D02*
D03*
Y1067147D02*
D03*
X1122171Y1029047D02*
D03*
X1103121Y990947D02*
D03*
Y762347D02*
D03*
X1122171Y648047D02*
D03*
X1103121Y533747D02*
D03*
X1122171Y495647D02*
D03*
X1103121Y457547D02*
D03*
Y305147D02*
D03*
X1084071Y1181447D02*
D03*
X1065021Y1143347D02*
D03*
Y1067147D02*
D03*
X1084071Y1029047D02*
D03*
X1065021Y990947D02*
D03*
Y762347D02*
D03*
Y305147D02*
D03*
X1045971Y1181447D02*
D03*
X1026921Y1143347D02*
D03*
X1045971Y1105247D02*
D03*
X1026921Y1067147D02*
D03*
X1045971Y1029047D02*
D03*
X1026921Y990947D02*
D03*
X1045971Y724247D02*
D03*
X1026921Y686147D02*
D03*
Y609947D02*
D03*
X1045971Y571847D02*
D03*
X1026921Y381347D02*
D03*
Y305147D02*
D03*
X988821Y1219547D02*
D03*
X1007871Y1181447D02*
D03*
Y1105247D02*
D03*
X988821Y990947D02*
D03*
X1007871Y419447D02*
D03*
X988821Y381347D02*
D03*
Y305147D02*
D03*
X950721Y1219547D02*
D03*
X969771Y1181447D02*
D03*
X950721Y990947D02*
D03*
Y914747D02*
D03*
Y838547D02*
D03*
X969771Y724247D02*
D03*
X950721Y533747D02*
D03*
X969771Y495647D02*
D03*
X950721Y305147D02*
D03*
X912621Y1219547D02*
D03*
X931671Y1181447D02*
D03*
Y1029047D02*
D03*
Y952847D02*
D03*
Y876647D02*
D03*
Y800447D02*
D03*
X912621Y533747D02*
D03*
Y457547D02*
D03*
X931671Y343247D02*
D03*
X912621Y305147D02*
D03*
X874521Y1219547D02*
D03*
X893571Y1181447D02*
D03*
X874521Y990947D02*
D03*
X893571Y952847D02*
D03*
X874521Y914747D02*
D03*
X893571Y876647D02*
D03*
X874521Y838547D02*
D03*
X893571Y800447D02*
D03*
X874521Y762347D02*
D03*
Y533747D02*
D03*
Y457547D02*
D03*
X893571Y419447D02*
D03*
X874521Y381347D02*
D03*
X893571Y343247D02*
D03*
X874521Y305147D02*
D03*
X836421Y1219547D02*
D03*
X855471Y1181447D02*
D03*
X836421Y990947D02*
D03*
X855471Y952847D02*
D03*
X836421Y914747D02*
D03*
X855471Y876647D02*
D03*
X836421Y838547D02*
D03*
X855471Y800447D02*
D03*
Y724247D02*
D03*
X836421Y533747D02*
D03*
X855471Y495647D02*
D03*
X836421Y457547D02*
D03*
X855471Y419447D02*
D03*
X836421Y381347D02*
D03*
X855471Y343247D02*
D03*
X836421Y305147D02*
D03*
X798321Y1219547D02*
D03*
X817371Y1181447D02*
D03*
X798321Y1143347D02*
D03*
Y1067147D02*
D03*
Y990947D02*
D03*
X817371Y952847D02*
D03*
X798321Y914747D02*
D03*
X817371Y876647D02*
D03*
X798321Y838547D02*
D03*
X817371Y800447D02*
D03*
X798321Y533747D02*
D03*
X817371Y495647D02*
D03*
X798321Y457547D02*
D03*
X817371Y419447D02*
D03*
X798321Y381347D02*
D03*
X817371Y343247D02*
D03*
X798321Y305147D02*
D03*
X1421130Y477520D02*
D03*
X1428750Y774700D02*
D03*
X1454150Y800100D02*
D03*
Y1066800D02*
D03*
X1435100Y1016000D02*
D03*
X908685Y601927D02*
D03*
X890870Y626110D02*
D03*
X919480Y678180D02*
D03*
X904240Y675640D02*
D03*
X909873Y726266D02*
D03*
X882650Y731520D02*
D03*
X922020Y651510D02*
D03*
D97*
X965200Y806450D02*
D03*
X1078230Y819150D02*
D03*
X1163936Y706736D02*
D03*
X1306830Y784860D02*
D03*
X1242060Y1000760D02*
D03*
X1304290Y962660D02*
D03*
X916940Y552450D02*
D03*
X1099820Y666750D02*
D03*
X1065530Y391160D02*
D03*
X1066800Y570230D02*
D03*
X1074420Y487680D02*
D03*
X1078230Y711200D02*
D03*
X1442720Y1130300D02*
D03*
X1399540Y866140D02*
D03*
X1404620Y541020D02*
D03*
X1389380Y574040D02*
D03*
Y640080D02*
D03*
X1399540Y817880D02*
D03*
X1412240Y914400D02*
D03*
X1452880Y1188720D02*
D03*
X1455420Y1104900D02*
D03*
X904875Y657860D02*
D03*
D98*
X942340Y779780D02*
D03*
X947420Y754380D02*
D03*
X962660Y770890D02*
D03*
X901446Y787400D02*
D03*
X924493Y766697D02*
D03*
X920463Y775807D02*
D03*
X946150Y791210D02*
D03*
M02*
