G04*
G04 #@! TF.GenerationSoftware,Altium Limited,Altium Designer,24.7.2 (38)*
G04*
G04 Layer_Color=16711935*
%FSLAX44Y44*%
%MOMM*%
G71*
G04*
G04 #@! TF.SameCoordinates,FD71C0C7-8574-4FF8-A0B1-75ED19D4754F*
G04*
G04*
G04 #@! TF.FilePolarity,Negative*
G04*
G01*
G75*
G04:AMPARAMS|DCode=23|XSize=1.0043mm|YSize=3.1821mm|CornerRadius=0.4369mm|HoleSize=0mm|Usage=FLASHONLY|Rotation=270.000|XOffset=0mm|YOffset=0mm|HoleType=Round|Shape=RoundedRectangle|*
%AMROUNDEDRECTD23*
21,1,1.0043,2.3084,0,0,270.0*
21,1,0.1306,3.1821,0,0,270.0*
1,1,0.8737,-1.1542,-0.0653*
1,1,0.8737,-1.1542,0.0653*
1,1,0.8737,1.1542,0.0653*
1,1,0.8737,1.1542,-0.0653*
%
%ADD23ROUNDEDRECTD23*%
G04:AMPARAMS|DCode=24|XSize=1.0043mm|YSize=0.8721mm|CornerRadius=0.4361mm|HoleSize=0mm|Usage=FLASHONLY|Rotation=270.000|XOffset=0mm|YOffset=0mm|HoleType=Round|Shape=RoundedRectangle|*
%AMROUNDEDRECTD24*
21,1,1.0043,0.0000,0,0,270.0*
21,1,0.1322,0.8721,0,0,270.0*
1,1,0.8721,0.0000,-0.0661*
1,1,0.8721,0.0000,0.0661*
1,1,0.8721,0.0000,0.0661*
1,1,0.8721,0.0000,-0.0661*
%
%ADD24ROUNDEDRECTD24*%
%ADD25R,0.8721X1.0043*%
%ADD54R,0.9032X0.9032*%
%ADD74O,1.7272X1.3462*%
%ADD75R,1.9032X1.9032*%
%ADD76C,1.9032*%
%ADD77C,1.2192*%
G36*
X988365Y699263D02*
X988378Y699264D01*
X988431Y699259D01*
X988484Y699256D01*
X988498Y699253D01*
X988511Y699252D01*
X989459Y699101D01*
X989472Y699099D01*
X989485Y699097D01*
X989537Y699084D01*
X989588Y699072D01*
X989601Y699068D01*
X989614Y699064D01*
X990527Y698768D01*
X990539Y698763D01*
X990552Y698759D01*
X990601Y698738D01*
X990650Y698718D01*
X990662Y698712D01*
X990674Y698707D01*
X991529Y698271D01*
X991541Y698264D01*
X991553Y698259D01*
X991598Y698230D01*
X991644Y698203D01*
X991654Y698195D01*
X991665Y698187D01*
X992442Y697624D01*
X992452Y697615D01*
X992463Y697607D01*
X992503Y697572D01*
X992544Y697538D01*
X992553Y697529D01*
X992563Y697520D01*
X993242Y696841D01*
X993250Y696831D01*
X993260Y696822D01*
X993294Y696781D01*
X993329Y696741D01*
X993337Y696730D01*
X993345Y696720D01*
X993909Y695944D01*
X993916Y695932D01*
X993925Y695922D01*
X993952Y695876D01*
X993980Y695831D01*
X993986Y695819D01*
X993993Y695807D01*
X994428Y694952D01*
X994434Y694940D01*
X994440Y694928D01*
X994460Y694879D01*
X994481Y694830D01*
X994485Y694817D01*
X994490Y694805D01*
X994786Y693892D01*
X994789Y693879D01*
X994794Y693867D01*
X994806Y693815D01*
X994819Y693763D01*
X994820Y693750D01*
X994823Y693737D01*
X994974Y692789D01*
X994975Y692776D01*
X994977Y692763D01*
X994981Y692709D01*
X994986Y692656D01*
X994985Y692643D01*
X994986Y692630D01*
Y691670D01*
X994985Y691657D01*
X994986Y691644D01*
X994981Y691591D01*
X994977Y691537D01*
X994975Y691524D01*
X994974Y691511D01*
X994823Y690563D01*
X994820Y690550D01*
X994819Y690537D01*
X994806Y690485D01*
X994794Y690433D01*
X994789Y690421D01*
X994786Y690408D01*
X994490Y689495D01*
X994484Y689483D01*
X994481Y689470D01*
X994460Y689421D01*
X994440Y689372D01*
X994434Y689360D01*
X994428Y689348D01*
X993993Y688493D01*
X993986Y688481D01*
X993980Y688469D01*
X993952Y688424D01*
X993925Y688378D01*
X993916Y688368D01*
X993909Y688356D01*
X993345Y687580D01*
X993337Y687570D01*
X993329Y687559D01*
X993294Y687519D01*
X993260Y687478D01*
X993250Y687469D01*
X993242Y687459D01*
X992563Y686780D01*
X992553Y686771D01*
X992544Y686762D01*
X992503Y686728D01*
X992463Y686693D01*
X992452Y686685D01*
X992442Y686676D01*
X991665Y686113D01*
X991654Y686105D01*
X991644Y686097D01*
X991598Y686070D01*
X991553Y686041D01*
X991541Y686036D01*
X991529Y686029D01*
X990674Y685593D01*
X990662Y685588D01*
X990650Y685582D01*
X990601Y685562D01*
X990552Y685541D01*
X990539Y685537D01*
X990527Y685532D01*
X989614Y685236D01*
X989601Y685232D01*
X989588Y685228D01*
X989537Y685216D01*
X989485Y685203D01*
X989472Y685201D01*
X989459Y685199D01*
X989247Y685165D01*
X989459Y685132D01*
X989472Y685129D01*
X989485Y685127D01*
X989537Y685114D01*
X989588Y685102D01*
X989601Y685098D01*
X989614Y685094D01*
X990527Y684798D01*
X990539Y684793D01*
X990552Y684789D01*
X990601Y684768D01*
X990650Y684748D01*
X990662Y684742D01*
X990674Y684737D01*
X991529Y684301D01*
X991541Y684294D01*
X991553Y684288D01*
X991598Y684260D01*
X991644Y684233D01*
X991654Y684225D01*
X991665Y684218D01*
X992442Y683653D01*
X992452Y683645D01*
X992463Y683637D01*
X992503Y683602D01*
X992544Y683568D01*
X992553Y683559D01*
X992563Y683550D01*
X993242Y682871D01*
X993250Y682861D01*
X993260Y682852D01*
X993294Y682811D01*
X993329Y682771D01*
X993337Y682760D01*
X993345Y682750D01*
X993909Y681973D01*
X993916Y681962D01*
X993925Y681952D01*
X993952Y681906D01*
X993980Y681861D01*
X993986Y681849D01*
X993993Y681837D01*
X994428Y680982D01*
X994434Y680970D01*
X994440Y680958D01*
X994460Y680909D01*
X994481Y680860D01*
X994485Y680847D01*
X994490Y680835D01*
X994786Y679922D01*
X994789Y679909D01*
X994794Y679897D01*
X994806Y679845D01*
X994819Y679793D01*
X994820Y679780D01*
X994823Y679767D01*
X994974Y678819D01*
X994975Y678806D01*
X994977Y678793D01*
X994981Y678739D01*
X994986Y678686D01*
X994985Y678673D01*
X994986Y678660D01*
Y677700D01*
X994985Y677687D01*
X994986Y677674D01*
X994981Y677621D01*
X994977Y677567D01*
X994975Y677554D01*
X994974Y677541D01*
X994823Y676593D01*
X994820Y676580D01*
X994819Y676567D01*
X994806Y676515D01*
X994794Y676463D01*
X994789Y676451D01*
X994786Y676438D01*
X994490Y675525D01*
X994484Y675513D01*
X994481Y675500D01*
X994460Y675451D01*
X994440Y675402D01*
X994434Y675390D01*
X994428Y675378D01*
X993993Y674523D01*
X993986Y674511D01*
X993980Y674499D01*
X993952Y674454D01*
X993925Y674408D01*
X993916Y674398D01*
X993909Y674387D01*
X993345Y673610D01*
X993337Y673600D01*
X993329Y673589D01*
X993294Y673549D01*
X993260Y673508D01*
X993250Y673499D01*
X993242Y673489D01*
X992563Y672810D01*
X992553Y672801D01*
X992544Y672792D01*
X992503Y672758D01*
X992463Y672722D01*
X992452Y672715D01*
X992442Y672707D01*
X991665Y672142D01*
X991654Y672135D01*
X991644Y672127D01*
X991598Y672100D01*
X991553Y672072D01*
X991541Y672066D01*
X991529Y672059D01*
X990674Y671623D01*
X990662Y671618D01*
X990650Y671612D01*
X990601Y671592D01*
X990552Y671571D01*
X990539Y671567D01*
X990527Y671562D01*
X989614Y671266D01*
X989601Y671263D01*
X989588Y671258D01*
X989537Y671246D01*
X989485Y671233D01*
X989472Y671231D01*
X989459Y671228D01*
X989247Y671195D01*
X989459Y671161D01*
X989472Y671159D01*
X989485Y671157D01*
X989537Y671144D01*
X989588Y671132D01*
X989601Y671127D01*
X989614Y671124D01*
X990527Y670828D01*
X990539Y670823D01*
X990552Y670819D01*
X990601Y670798D01*
X990650Y670778D01*
X990662Y670772D01*
X990674Y670767D01*
X991529Y670331D01*
X991541Y670324D01*
X991553Y670319D01*
X991598Y670290D01*
X991644Y670263D01*
X991654Y670255D01*
X991665Y670247D01*
X992442Y669684D01*
X992452Y669675D01*
X992463Y669668D01*
X992503Y669632D01*
X992544Y669598D01*
X992553Y669589D01*
X992563Y669580D01*
X993242Y668901D01*
X993250Y668891D01*
X993260Y668882D01*
X993294Y668841D01*
X993329Y668801D01*
X993337Y668790D01*
X993345Y668780D01*
X993909Y668003D01*
X993916Y667992D01*
X993925Y667982D01*
X993952Y667936D01*
X993980Y667891D01*
X993986Y667879D01*
X993993Y667867D01*
X994428Y667012D01*
X994434Y667000D01*
X994440Y666988D01*
X994460Y666939D01*
X994481Y666890D01*
X994485Y666877D01*
X994490Y666865D01*
X994786Y665952D01*
X994789Y665939D01*
X994794Y665927D01*
X994806Y665875D01*
X994819Y665823D01*
X994820Y665810D01*
X994823Y665797D01*
X994974Y664849D01*
X994975Y664836D01*
X994977Y664823D01*
X994981Y664769D01*
X994986Y664716D01*
X994985Y664703D01*
X994986Y664690D01*
Y663730D01*
X994985Y663717D01*
X994986Y663704D01*
X994981Y663651D01*
X994977Y663597D01*
X994975Y663584D01*
X994974Y663571D01*
X994823Y662623D01*
X994820Y662610D01*
X994819Y662597D01*
X994806Y662545D01*
X994794Y662493D01*
X994789Y662481D01*
X994786Y662468D01*
X994490Y661555D01*
X994484Y661543D01*
X994481Y661530D01*
X994460Y661481D01*
X994440Y661432D01*
X994434Y661420D01*
X994428Y661408D01*
X993993Y660553D01*
X993986Y660541D01*
X993980Y660529D01*
X993952Y660484D01*
X993925Y660438D01*
X993916Y660428D01*
X993909Y660416D01*
X993345Y659640D01*
X993337Y659630D01*
X993329Y659619D01*
X993294Y659579D01*
X993260Y659538D01*
X993250Y659529D01*
X993242Y659519D01*
X992563Y658840D01*
X992553Y658831D01*
X992544Y658822D01*
X992503Y658788D01*
X992463Y658753D01*
X992452Y658745D01*
X992442Y658736D01*
X991665Y658173D01*
X991654Y658165D01*
X991644Y658157D01*
X991598Y658130D01*
X991553Y658102D01*
X991541Y658096D01*
X991529Y658089D01*
X990674Y657653D01*
X990662Y657648D01*
X990650Y657642D01*
X990601Y657622D01*
X990552Y657601D01*
X990539Y657597D01*
X990527Y657592D01*
X989614Y657296D01*
X989601Y657292D01*
X989588Y657288D01*
X989537Y657276D01*
X989485Y657263D01*
X989472Y657261D01*
X989459Y657259D01*
X989247Y657225D01*
X989459Y657191D01*
X989472Y657189D01*
X989485Y657187D01*
X989537Y657174D01*
X989588Y657162D01*
X989601Y657158D01*
X989614Y657154D01*
X990527Y656858D01*
X990539Y656853D01*
X990552Y656849D01*
X990601Y656828D01*
X990650Y656808D01*
X990662Y656802D01*
X990674Y656797D01*
X991529Y656361D01*
X991541Y656354D01*
X991553Y656348D01*
X991598Y656320D01*
X991644Y656293D01*
X991654Y656285D01*
X991665Y656277D01*
X992442Y655714D01*
X992452Y655705D01*
X992463Y655697D01*
X992503Y655662D01*
X992544Y655628D01*
X992553Y655619D01*
X992563Y655610D01*
X993242Y654931D01*
X993250Y654921D01*
X993260Y654912D01*
X993294Y654871D01*
X993329Y654831D01*
X993337Y654820D01*
X993345Y654810D01*
X993909Y654034D01*
X993916Y654022D01*
X993925Y654012D01*
X993952Y653966D01*
X993980Y653921D01*
X993986Y653909D01*
X993993Y653897D01*
X994428Y653042D01*
X994434Y653030D01*
X994440Y653018D01*
X994460Y652969D01*
X994481Y652920D01*
X994485Y652907D01*
X994490Y652895D01*
X994786Y651982D01*
X994789Y651969D01*
X994794Y651957D01*
X994806Y651905D01*
X994819Y651853D01*
X994820Y651840D01*
X994823Y651827D01*
X994974Y650879D01*
X994975Y650866D01*
X994977Y650853D01*
X994981Y650799D01*
X994986Y650746D01*
X994985Y650733D01*
X994986Y650720D01*
Y649760D01*
X994985Y649747D01*
X994986Y649734D01*
X994981Y649681D01*
X994977Y649627D01*
X994975Y649614D01*
X994974Y649601D01*
X994823Y648653D01*
X994820Y648640D01*
X994819Y648627D01*
X994806Y648575D01*
X994794Y648523D01*
X994789Y648511D01*
X994786Y648498D01*
X994490Y647585D01*
X994484Y647573D01*
X994481Y647560D01*
X994460Y647511D01*
X994440Y647462D01*
X994434Y647450D01*
X994428Y647438D01*
X993993Y646583D01*
X993986Y646571D01*
X993980Y646559D01*
X993952Y646514D01*
X993925Y646468D01*
X993916Y646458D01*
X993909Y646447D01*
X993345Y645670D01*
X993337Y645660D01*
X993329Y645649D01*
X993294Y645609D01*
X993260Y645568D01*
X993250Y645559D01*
X993242Y645549D01*
X992563Y644870D01*
X992553Y644861D01*
X992544Y644852D01*
X992503Y644818D01*
X992463Y644782D01*
X992452Y644775D01*
X992442Y644766D01*
X991665Y644202D01*
X991654Y644195D01*
X991644Y644187D01*
X991598Y644160D01*
X991553Y644131D01*
X991541Y644126D01*
X991529Y644119D01*
X990674Y643683D01*
X990662Y643678D01*
X990650Y643672D01*
X990601Y643652D01*
X990552Y643631D01*
X990539Y643627D01*
X990527Y643622D01*
X989614Y643326D01*
X989601Y643323D01*
X989588Y643318D01*
X989537Y643306D01*
X989485Y643293D01*
X989472Y643291D01*
X989459Y643288D01*
X989247Y643255D01*
X989459Y643222D01*
X989472Y643219D01*
X989485Y643217D01*
X989537Y643204D01*
X989588Y643192D01*
X989601Y643187D01*
X989614Y643184D01*
X990527Y642888D01*
X990539Y642883D01*
X990552Y642879D01*
X990601Y642858D01*
X990650Y642838D01*
X990662Y642832D01*
X990674Y642827D01*
X991529Y642391D01*
X991541Y642384D01*
X991553Y642378D01*
X991598Y642350D01*
X991644Y642323D01*
X991654Y642315D01*
X991665Y642308D01*
X992442Y641743D01*
X992452Y641735D01*
X992463Y641728D01*
X992503Y641692D01*
X992544Y641658D01*
X992553Y641649D01*
X992563Y641640D01*
X993242Y640961D01*
X993250Y640951D01*
X993260Y640942D01*
X993294Y640901D01*
X993329Y640861D01*
X993337Y640850D01*
X993345Y640840D01*
X993909Y640063D01*
X993916Y640052D01*
X993925Y640042D01*
X993952Y639996D01*
X993980Y639951D01*
X993986Y639939D01*
X993993Y639927D01*
X994428Y639072D01*
X994434Y639060D01*
X994440Y639048D01*
X994460Y638999D01*
X994481Y638950D01*
X994485Y638937D01*
X994490Y638925D01*
X994786Y638012D01*
X994789Y637999D01*
X994794Y637987D01*
X994806Y637935D01*
X994819Y637883D01*
X994820Y637870D01*
X994823Y637857D01*
X994974Y636909D01*
X994975Y636896D01*
X994977Y636883D01*
X994981Y636829D01*
X994986Y636776D01*
X994985Y636763D01*
X994986Y636750D01*
Y635790D01*
X994985Y635777D01*
X994986Y635764D01*
X994981Y635711D01*
X994977Y635657D01*
X994975Y635644D01*
X994974Y635631D01*
X994823Y634683D01*
X994820Y634670D01*
X994819Y634657D01*
X994806Y634605D01*
X994794Y634553D01*
X994789Y634541D01*
X994786Y634528D01*
X994490Y633615D01*
X994484Y633603D01*
X994481Y633590D01*
X994460Y633541D01*
X994440Y633492D01*
X994434Y633480D01*
X994428Y633468D01*
X993993Y632613D01*
X993986Y632601D01*
X993980Y632589D01*
X993952Y632544D01*
X993925Y632498D01*
X993916Y632488D01*
X993909Y632477D01*
X993345Y631700D01*
X993337Y631690D01*
X993329Y631679D01*
X993294Y631639D01*
X993260Y631598D01*
X993250Y631589D01*
X993242Y631579D01*
X992563Y630900D01*
X992553Y630891D01*
X992544Y630882D01*
X992503Y630848D01*
X992463Y630812D01*
X992452Y630805D01*
X992442Y630797D01*
X991665Y630233D01*
X991654Y630225D01*
X991644Y630217D01*
X991598Y630190D01*
X991553Y630162D01*
X991541Y630156D01*
X991529Y630149D01*
X990674Y629713D01*
X990662Y629708D01*
X990650Y629702D01*
X990601Y629682D01*
X990552Y629661D01*
X990539Y629657D01*
X990527Y629652D01*
X989614Y629356D01*
X989601Y629352D01*
X989588Y629348D01*
X989537Y629336D01*
X989485Y629323D01*
X989472Y629321D01*
X989459Y629319D01*
X988511Y629168D01*
X988498Y629167D01*
X988484Y629165D01*
X988431Y629161D01*
X988378Y629156D01*
X988365Y629157D01*
X988352Y629156D01*
X970882D01*
X970869Y629157D01*
X970855Y629156D01*
X970803Y629161D01*
X970749Y629165D01*
X970736Y629167D01*
X970723Y629168D01*
X969775Y629319D01*
X969762Y629321D01*
X969749Y629323D01*
X969697Y629336D01*
X969645Y629348D01*
X969633Y629352D01*
X969620Y629356D01*
X968707Y629652D01*
X968695Y629657D01*
X968682Y629661D01*
X968633Y629682D01*
X968584Y629702D01*
X968572Y629708D01*
X968559Y629713D01*
X967705Y630149D01*
X967693Y630156D01*
X967681Y630162D01*
X967636Y630190D01*
X967590Y630217D01*
X967580Y630225D01*
X967568Y630233D01*
X966792Y630797D01*
X966782Y630805D01*
X966771Y630812D01*
X966730Y630848D01*
X966690Y630882D01*
X966681Y630891D01*
X966671Y630900D01*
X965992Y631579D01*
X965983Y631589D01*
X965974Y631598D01*
X965940Y631639D01*
X965904Y631679D01*
X965897Y631690D01*
X965888Y631700D01*
X965324Y632477D01*
X965317Y632488D01*
X965309Y632498D01*
X965282Y632544D01*
X965253Y632589D01*
X965248Y632601D01*
X965241Y632613D01*
X964805Y633468D01*
X964800Y633480D01*
X964793Y633492D01*
X964774Y633541D01*
X964753Y633590D01*
X964749Y633603D01*
X964744Y633615D01*
X964448Y634528D01*
X964444Y634541D01*
X964440Y634553D01*
X964428Y634605D01*
X964415Y634657D01*
X964413Y634670D01*
X964410Y634683D01*
X964260Y635631D01*
X964259Y635644D01*
X964256Y635657D01*
X964253Y635711D01*
X964248Y635764D01*
X964249Y635777D01*
X964248Y635790D01*
Y636750D01*
X964249Y636763D01*
X964248Y636776D01*
X964253Y636829D01*
X964256Y636883D01*
X964259Y636896D01*
X964260Y636909D01*
X964410Y637857D01*
X964413Y637870D01*
X964415Y637883D01*
X964428Y637935D01*
X964440Y637987D01*
X964444Y637999D01*
X964448Y638012D01*
X964744Y638925D01*
X964749Y638937D01*
X964753Y638950D01*
X964774Y638999D01*
X964793Y639048D01*
X964800Y639060D01*
X964805Y639072D01*
X965241Y639927D01*
X965248Y639939D01*
X965253Y639951D01*
X965282Y639996D01*
X965309Y640042D01*
X965317Y640052D01*
X965324Y640063D01*
X965888Y640840D01*
X965897Y640850D01*
X965904Y640861D01*
X965940Y640901D01*
X965974Y640942D01*
X965983Y640951D01*
X965992Y640961D01*
X966671Y641640D01*
X966681Y641649D01*
X966690Y641658D01*
X966730Y641692D01*
X966771Y641728D01*
X966782Y641735D01*
X966792Y641743D01*
X967568Y642308D01*
X967580Y642315D01*
X967590Y642323D01*
X967636Y642350D01*
X967681Y642378D01*
X967693Y642384D01*
X967705Y642391D01*
X968559Y642827D01*
X968572Y642832D01*
X968584Y642838D01*
X968633Y642858D01*
X968682Y642879D01*
X968695Y642883D01*
X968707Y642888D01*
X969620Y643184D01*
X969633Y643187D01*
X969645Y643192D01*
X969697Y643204D01*
X969749Y643217D01*
X969762Y643219D01*
X969775Y643222D01*
X969986Y643255D01*
X969775Y643288D01*
X969762Y643291D01*
X969749Y643293D01*
X969697Y643306D01*
X969645Y643318D01*
X969633Y643323D01*
X969620Y643326D01*
X968707Y643622D01*
X968695Y643627D01*
X968682Y643631D01*
X968633Y643652D01*
X968584Y643672D01*
X968572Y643678D01*
X968559Y643683D01*
X967705Y644119D01*
X967693Y644126D01*
X967681Y644131D01*
X967636Y644160D01*
X967590Y644187D01*
X967580Y644195D01*
X967568Y644202D01*
X966792Y644766D01*
X966782Y644775D01*
X966771Y644782D01*
X966730Y644818D01*
X966690Y644852D01*
X966681Y644861D01*
X966671Y644870D01*
X965992Y645549D01*
X965983Y645559D01*
X965974Y645568D01*
X965940Y645609D01*
X965904Y645649D01*
X965897Y645660D01*
X965888Y645670D01*
X965324Y646447D01*
X965317Y646458D01*
X965309Y646468D01*
X965282Y646514D01*
X965253Y646559D01*
X965248Y646571D01*
X965241Y646583D01*
X964805Y647438D01*
X964800Y647450D01*
X964793Y647462D01*
X964774Y647511D01*
X964753Y647560D01*
X964749Y647573D01*
X964744Y647585D01*
X964448Y648498D01*
X964444Y648511D01*
X964440Y648523D01*
X964428Y648575D01*
X964415Y648627D01*
X964413Y648640D01*
X964410Y648653D01*
X964260Y649601D01*
X964259Y649614D01*
X964256Y649627D01*
X964253Y649681D01*
X964248Y649734D01*
X964249Y649747D01*
X964248Y649760D01*
Y650720D01*
X964249Y650733D01*
X964248Y650746D01*
X964253Y650799D01*
X964256Y650853D01*
X964259Y650866D01*
X964260Y650879D01*
X964410Y651827D01*
X964413Y651840D01*
X964415Y651853D01*
X964428Y651905D01*
X964440Y651957D01*
X964444Y651969D01*
X964448Y651982D01*
X964744Y652895D01*
X964749Y652907D01*
X964753Y652920D01*
X964774Y652969D01*
X964793Y653018D01*
X964800Y653030D01*
X964805Y653042D01*
X965241Y653897D01*
X965248Y653909D01*
X965253Y653921D01*
X965282Y653966D01*
X965309Y654012D01*
X965317Y654022D01*
X965324Y654034D01*
X965888Y654810D01*
X965897Y654820D01*
X965904Y654831D01*
X965940Y654871D01*
X965974Y654912D01*
X965983Y654921D01*
X965992Y654931D01*
X966671Y655610D01*
X966681Y655619D01*
X966690Y655628D01*
X966730Y655662D01*
X966771Y655697D01*
X966782Y655705D01*
X966792Y655714D01*
X967568Y656277D01*
X967580Y656285D01*
X967590Y656293D01*
X967636Y656320D01*
X967681Y656348D01*
X967693Y656354D01*
X967705Y656361D01*
X968559Y656797D01*
X968572Y656802D01*
X968584Y656808D01*
X968633Y656828D01*
X968682Y656849D01*
X968695Y656853D01*
X968707Y656858D01*
X969620Y657154D01*
X969633Y657158D01*
X969645Y657162D01*
X969697Y657174D01*
X969749Y657187D01*
X969762Y657189D01*
X969775Y657191D01*
X969986Y657225D01*
X969775Y657259D01*
X969762Y657261D01*
X969749Y657263D01*
X969697Y657276D01*
X969645Y657288D01*
X969633Y657292D01*
X969620Y657296D01*
X968707Y657592D01*
X968695Y657597D01*
X968682Y657601D01*
X968633Y657622D01*
X968584Y657642D01*
X968572Y657648D01*
X968559Y657653D01*
X967705Y658089D01*
X967693Y658096D01*
X967681Y658102D01*
X967636Y658130D01*
X967590Y658157D01*
X967580Y658165D01*
X967568Y658173D01*
X966792Y658736D01*
X966782Y658745D01*
X966771Y658753D01*
X966730Y658788D01*
X966690Y658822D01*
X966681Y658831D01*
X966671Y658840D01*
X965992Y659519D01*
X965983Y659529D01*
X965974Y659538D01*
X965940Y659579D01*
X965904Y659619D01*
X965897Y659630D01*
X965888Y659640D01*
X965324Y660416D01*
X965317Y660428D01*
X965309Y660438D01*
X965282Y660484D01*
X965253Y660529D01*
X965248Y660541D01*
X965241Y660553D01*
X964805Y661408D01*
X964800Y661420D01*
X964793Y661432D01*
X964774Y661481D01*
X964753Y661530D01*
X964749Y661543D01*
X964744Y661555D01*
X964448Y662468D01*
X964444Y662481D01*
X964440Y662493D01*
X964428Y662545D01*
X964415Y662597D01*
X964413Y662610D01*
X964410Y662623D01*
X964260Y663571D01*
X964259Y663584D01*
X964256Y663597D01*
X964253Y663651D01*
X964248Y663704D01*
X964249Y663717D01*
X964248Y663730D01*
Y664690D01*
X964249Y664703D01*
X964248Y664716D01*
X964253Y664769D01*
X964256Y664823D01*
X964259Y664836D01*
X964260Y664849D01*
X964410Y665797D01*
X964413Y665810D01*
X964415Y665823D01*
X964428Y665875D01*
X964440Y665927D01*
X964444Y665939D01*
X964448Y665952D01*
X964744Y666865D01*
X964749Y666877D01*
X964753Y666890D01*
X964774Y666939D01*
X964793Y666988D01*
X964800Y667000D01*
X964805Y667012D01*
X965241Y667867D01*
X965248Y667879D01*
X965253Y667891D01*
X965282Y667936D01*
X965309Y667982D01*
X965317Y667992D01*
X965324Y668003D01*
X965888Y668780D01*
X965897Y668790D01*
X965904Y668801D01*
X965940Y668841D01*
X965974Y668882D01*
X965983Y668891D01*
X965992Y668901D01*
X966671Y669580D01*
X966681Y669589D01*
X966690Y669598D01*
X966730Y669632D01*
X966771Y669668D01*
X966782Y669675D01*
X966792Y669684D01*
X967568Y670247D01*
X967580Y670255D01*
X967590Y670263D01*
X967636Y670290D01*
X967681Y670319D01*
X967693Y670324D01*
X967705Y670331D01*
X968559Y670767D01*
X968572Y670772D01*
X968584Y670778D01*
X968633Y670798D01*
X968682Y670819D01*
X968695Y670823D01*
X968707Y670828D01*
X969620Y671124D01*
X969633Y671127D01*
X969645Y671132D01*
X969697Y671144D01*
X969749Y671157D01*
X969762Y671159D01*
X969775Y671161D01*
X969986Y671195D01*
X969775Y671228D01*
X969762Y671231D01*
X969749Y671233D01*
X969697Y671246D01*
X969645Y671258D01*
X969633Y671263D01*
X969620Y671266D01*
X968707Y671562D01*
X968695Y671567D01*
X968682Y671571D01*
X968633Y671592D01*
X968584Y671612D01*
X968572Y671618D01*
X968559Y671623D01*
X967705Y672059D01*
X967693Y672066D01*
X967681Y672072D01*
X967636Y672100D01*
X967590Y672127D01*
X967580Y672135D01*
X967568Y672142D01*
X966792Y672707D01*
X966782Y672715D01*
X966771Y672722D01*
X966730Y672758D01*
X966690Y672792D01*
X966681Y672801D01*
X966671Y672810D01*
X965992Y673489D01*
X965983Y673499D01*
X965974Y673508D01*
X965940Y673549D01*
X965904Y673589D01*
X965897Y673600D01*
X965888Y673610D01*
X965324Y674387D01*
X965317Y674398D01*
X965309Y674408D01*
X965282Y674454D01*
X965253Y674499D01*
X965248Y674511D01*
X965241Y674523D01*
X964805Y675378D01*
X964800Y675390D01*
X964793Y675402D01*
X964774Y675451D01*
X964753Y675500D01*
X964749Y675513D01*
X964744Y675525D01*
X964448Y676438D01*
X964444Y676451D01*
X964440Y676463D01*
X964428Y676515D01*
X964415Y676567D01*
X964413Y676580D01*
X964410Y676593D01*
X964260Y677541D01*
X964259Y677554D01*
X964256Y677567D01*
X964253Y677621D01*
X964248Y677674D01*
X964249Y677687D01*
X964248Y677700D01*
Y678660D01*
X964249Y678673D01*
X964248Y678686D01*
X964253Y678739D01*
X964256Y678793D01*
X964259Y678806D01*
X964260Y678819D01*
X964410Y679767D01*
X964413Y679780D01*
X964415Y679793D01*
X964428Y679845D01*
X964440Y679897D01*
X964444Y679909D01*
X964448Y679922D01*
X964744Y680835D01*
X964749Y680847D01*
X964753Y680860D01*
X964774Y680909D01*
X964793Y680958D01*
X964800Y680970D01*
X964805Y680982D01*
X965241Y681837D01*
X965248Y681849D01*
X965253Y681861D01*
X965282Y681906D01*
X965309Y681952D01*
X965317Y681962D01*
X965324Y681973D01*
X965888Y682750D01*
X965897Y682760D01*
X965904Y682771D01*
X965940Y682811D01*
X965974Y682852D01*
X965983Y682861D01*
X965992Y682871D01*
X966671Y683550D01*
X966681Y683559D01*
X966690Y683568D01*
X966730Y683602D01*
X966771Y683637D01*
X966782Y683645D01*
X966792Y683653D01*
X967568Y684218D01*
X967580Y684225D01*
X967590Y684233D01*
X967636Y684260D01*
X967681Y684288D01*
X967693Y684294D01*
X967705Y684301D01*
X968559Y684737D01*
X968572Y684742D01*
X968584Y684748D01*
X968633Y684768D01*
X968682Y684789D01*
X968695Y684793D01*
X968707Y684798D01*
X969620Y685094D01*
X969633Y685098D01*
X969645Y685102D01*
X969697Y685114D01*
X969749Y685127D01*
X969762Y685129D01*
X969775Y685132D01*
X969986Y685165D01*
X969775Y685199D01*
X969762Y685201D01*
X969749Y685203D01*
X969697Y685216D01*
X969645Y685228D01*
X969633Y685232D01*
X969620Y685236D01*
X968707Y685532D01*
X968695Y685537D01*
X968682Y685541D01*
X968633Y685562D01*
X968584Y685582D01*
X968572Y685588D01*
X968559Y685593D01*
X967705Y686029D01*
X967693Y686036D01*
X967681Y686041D01*
X967636Y686070D01*
X967590Y686097D01*
X967580Y686105D01*
X967568Y686113D01*
X966792Y686676D01*
X966782Y686685D01*
X966771Y686693D01*
X966730Y686728D01*
X966690Y686762D01*
X966681Y686771D01*
X966671Y686780D01*
X965992Y687459D01*
X965983Y687469D01*
X965974Y687478D01*
X965940Y687519D01*
X965904Y687559D01*
X965897Y687570D01*
X965888Y687580D01*
X965324Y688356D01*
X965317Y688368D01*
X965309Y688378D01*
X965282Y688424D01*
X965253Y688469D01*
X965248Y688481D01*
X965241Y688493D01*
X964805Y689348D01*
X964800Y689360D01*
X964793Y689372D01*
X964774Y689421D01*
X964753Y689470D01*
X964749Y689483D01*
X964744Y689495D01*
X964448Y690408D01*
X964444Y690421D01*
X964440Y690433D01*
X964428Y690485D01*
X964415Y690537D01*
X964413Y690550D01*
X964410Y690563D01*
X964260Y691511D01*
X964259Y691524D01*
X964256Y691537D01*
X964253Y691591D01*
X964248Y691644D01*
X964249Y691657D01*
X964248Y691670D01*
Y692630D01*
X964249Y692643D01*
X964248Y692656D01*
X964253Y692709D01*
X964256Y692763D01*
X964259Y692776D01*
X964260Y692789D01*
X964410Y693737D01*
X964413Y693750D01*
X964415Y693763D01*
X964428Y693815D01*
X964440Y693867D01*
X964444Y693879D01*
X964448Y693892D01*
X964744Y694805D01*
X964749Y694817D01*
X964753Y694830D01*
X964774Y694879D01*
X964793Y694928D01*
X964800Y694940D01*
X964805Y694952D01*
X965241Y695807D01*
X965248Y695819D01*
X965253Y695831D01*
X965282Y695876D01*
X965309Y695922D01*
X965317Y695932D01*
X965324Y695944D01*
X965888Y696720D01*
X965897Y696730D01*
X965904Y696741D01*
X965940Y696781D01*
X965974Y696822D01*
X965983Y696831D01*
X965992Y696841D01*
X966671Y697520D01*
X966681Y697529D01*
X966690Y697538D01*
X966730Y697572D01*
X966771Y697607D01*
X966782Y697615D01*
X966792Y697624D01*
X967568Y698187D01*
X967580Y698195D01*
X967590Y698203D01*
X967636Y698230D01*
X967681Y698259D01*
X967693Y698264D01*
X967705Y698271D01*
X968559Y698707D01*
X968572Y698712D01*
X968584Y698718D01*
X968633Y698738D01*
X968682Y698759D01*
X968695Y698763D01*
X968707Y698768D01*
X969620Y699064D01*
X969633Y699068D01*
X969645Y699072D01*
X969697Y699084D01*
X969749Y699097D01*
X969762Y699099D01*
X969775Y699101D01*
X970723Y699252D01*
X970736Y699253D01*
X970749Y699256D01*
X970803Y699259D01*
X970855Y699264D01*
X970869Y699263D01*
X970882Y699264D01*
X988352D01*
X988365Y699263D01*
D02*
G37*
D23*
X892810Y646430D02*
D03*
D24*
Y712330D02*
D03*
X915710D02*
D03*
D25*
X869910D02*
D03*
D54*
X934870Y726440D02*
D03*
X921870D02*
D03*
X857100Y646430D02*
D03*
X870100D02*
D03*
D74*
X973328Y636270D02*
D03*
Y650240D02*
D03*
Y664210D02*
D03*
Y678180D02*
D03*
Y692150D02*
D03*
D75*
X1518920Y1215690D02*
D03*
Y1106370D02*
D03*
Y934920D02*
D03*
Y825500D02*
D03*
Y642820D02*
D03*
Y533600D02*
D03*
D76*
Y1190190D02*
D03*
Y1164690D02*
D03*
Y1080870D02*
D03*
Y1055370D02*
D03*
Y909420D02*
D03*
Y883920D02*
D03*
Y800000D02*
D03*
Y774500D02*
D03*
Y617320D02*
D03*
Y591820D02*
D03*
Y508100D02*
D03*
Y482600D02*
D03*
D77*
X1143986Y876498D02*
D03*
X1174750Y946150D02*
D03*
X1117600D02*
D03*
X908050Y1117600D02*
D03*
X850900Y1136650D02*
D03*
X863600Y1047750D02*
D03*
X876300Y1060450D02*
D03*
X850900D02*
D03*
X939800Y1123950D02*
D03*
X952500Y1136650D02*
D03*
X926147Y1136839D02*
D03*
X1239520Y354330D02*
D03*
X1226820Y364490D02*
D03*
X1005079Y444153D02*
D03*
X1303529Y830233D02*
D03*
X980949Y345093D02*
D03*
X953009Y373033D02*
D03*
X930149Y397163D02*
D03*
X1287019Y319693D02*
D03*
X1326389Y328583D02*
D03*
X1636521Y1219547D02*
D03*
X1655571Y1181447D02*
D03*
X1636521Y1067147D02*
D03*
X1655571Y1029047D02*
D03*
X1636521Y990947D02*
D03*
X1655571Y952847D02*
D03*
X1636521Y914747D02*
D03*
X1655571Y800447D02*
D03*
X1636521Y762347D02*
D03*
X1655571Y724247D02*
D03*
X1636521Y686147D02*
D03*
X1655571Y648047D02*
D03*
X1636521Y609947D02*
D03*
X1655571Y495647D02*
D03*
X1636521Y457547D02*
D03*
X1655571Y419447D02*
D03*
X1636521Y381347D02*
D03*
X1655571Y343247D02*
D03*
X1636521Y305147D02*
D03*
X1598421Y1219547D02*
D03*
X1617471Y1181447D02*
D03*
X1598421Y1143347D02*
D03*
Y1067147D02*
D03*
X1617471Y1029047D02*
D03*
X1598421Y990947D02*
D03*
X1617471Y952847D02*
D03*
X1598421Y914747D02*
D03*
X1617471Y800447D02*
D03*
X1598421Y762347D02*
D03*
X1617471Y724247D02*
D03*
X1598421Y686147D02*
D03*
X1617471Y648047D02*
D03*
X1598421Y609947D02*
D03*
Y533747D02*
D03*
X1617471Y495647D02*
D03*
X1598421Y457547D02*
D03*
X1617471Y419447D02*
D03*
X1598421Y381347D02*
D03*
X1617471Y343247D02*
D03*
X1598421Y305147D02*
D03*
X1560321Y1219547D02*
D03*
X1579371Y1181447D02*
D03*
X1560321Y1067147D02*
D03*
X1579371Y1029047D02*
D03*
X1560321Y990947D02*
D03*
X1579371Y952847D02*
D03*
X1560321Y914747D02*
D03*
X1579371Y876647D02*
D03*
Y800447D02*
D03*
X1560321Y762347D02*
D03*
X1579371Y724247D02*
D03*
X1560321Y686147D02*
D03*
X1579371Y648047D02*
D03*
X1560321Y609947D02*
D03*
X1579371Y495647D02*
D03*
X1560321Y457547D02*
D03*
X1579371Y419447D02*
D03*
X1560321Y381347D02*
D03*
X1579371Y343247D02*
D03*
X1560321Y305147D02*
D03*
X1541271Y1181447D02*
D03*
X1522221Y990947D02*
D03*
X1541271Y952847D02*
D03*
X1522221Y686147D02*
D03*
X1541271Y648047D02*
D03*
Y419447D02*
D03*
X1522221Y381347D02*
D03*
X1541271Y343247D02*
D03*
X1522221Y305147D02*
D03*
X1503171Y952847D02*
D03*
X1484121Y609947D02*
D03*
X1503171Y571847D02*
D03*
X1484121Y457547D02*
D03*
X1503171Y419447D02*
D03*
X1484121Y381347D02*
D03*
X1503171Y343247D02*
D03*
X1484121Y305147D02*
D03*
X1465071Y571847D02*
D03*
Y419447D02*
D03*
X1446021Y381347D02*
D03*
X1465071Y343247D02*
D03*
X1446021Y305147D02*
D03*
X1426971Y1181447D02*
D03*
Y1105247D02*
D03*
X1407921Y990947D02*
D03*
Y838547D02*
D03*
Y762347D02*
D03*
Y686147D02*
D03*
X1426971Y419447D02*
D03*
X1407921Y381347D02*
D03*
X1426971Y343247D02*
D03*
X1407921Y305147D02*
D03*
X1388871Y1181447D02*
D03*
X1369821Y1067147D02*
D03*
X1388871Y1029047D02*
D03*
X1369821Y990947D02*
D03*
X1388871Y952847D02*
D03*
X1369821Y762347D02*
D03*
X1388871Y724247D02*
D03*
X1369821Y686147D02*
D03*
Y609947D02*
D03*
Y457547D02*
D03*
Y381347D02*
D03*
X1350771Y1105247D02*
D03*
Y1029047D02*
D03*
Y952847D02*
D03*
Y800447D02*
D03*
Y724247D02*
D03*
Y648047D02*
D03*
X1331721Y533747D02*
D03*
Y457547D02*
D03*
X1350771Y419447D02*
D03*
X1331721Y305147D02*
D03*
X1312671Y1181447D02*
D03*
X1293621Y1067147D02*
D03*
X1312671Y1029047D02*
D03*
Y800447D02*
D03*
X1293621Y762347D02*
D03*
X1312671Y724247D02*
D03*
X1293621Y686147D02*
D03*
X1312671Y648047D02*
D03*
X1293621Y609947D02*
D03*
X1312671Y495647D02*
D03*
X1293621Y457547D02*
D03*
X1312671Y419447D02*
D03*
X1274571Y1181447D02*
D03*
X1255521Y1143347D02*
D03*
Y1067147D02*
D03*
Y914747D02*
D03*
X1274571Y495647D02*
D03*
X1255521Y457547D02*
D03*
X1274571Y419447D02*
D03*
X1236471Y1181447D02*
D03*
X1217421Y1143347D02*
D03*
X1236471Y1105247D02*
D03*
X1217421Y1067147D02*
D03*
X1236471Y1029047D02*
D03*
X1217421Y838547D02*
D03*
Y762347D02*
D03*
X1236471Y724247D02*
D03*
X1217421Y686147D02*
D03*
X1236471Y648047D02*
D03*
X1217421Y609947D02*
D03*
X1236471Y571847D02*
D03*
Y495647D02*
D03*
X1217421Y457547D02*
D03*
X1236471Y419447D02*
D03*
X1217421Y305147D02*
D03*
X1198371Y1181447D02*
D03*
X1179321Y1143347D02*
D03*
X1198371Y1105247D02*
D03*
X1179321Y1067147D02*
D03*
X1198371Y1029047D02*
D03*
X1179321Y990947D02*
D03*
Y762347D02*
D03*
Y686147D02*
D03*
X1198371Y648047D02*
D03*
X1179321Y609947D02*
D03*
X1198371Y571847D02*
D03*
Y495647D02*
D03*
X1179321Y457547D02*
D03*
X1198371Y419447D02*
D03*
X1179321Y305147D02*
D03*
X1160271Y1105247D02*
D03*
X1141221Y1067147D02*
D03*
X1160271Y1029047D02*
D03*
X1141221Y990947D02*
D03*
Y914747D02*
D03*
Y762347D02*
D03*
X1160271Y648047D02*
D03*
X1141221Y609947D02*
D03*
X1160271Y571847D02*
D03*
Y495647D02*
D03*
X1141221Y457547D02*
D03*
Y305147D02*
D03*
X1103121Y1219547D02*
D03*
X1122171Y1181447D02*
D03*
X1103121Y1143347D02*
D03*
Y1067147D02*
D03*
X1122171Y1029047D02*
D03*
X1103121Y990947D02*
D03*
Y762347D02*
D03*
X1122171Y648047D02*
D03*
X1103121Y533747D02*
D03*
X1122171Y495647D02*
D03*
X1103121Y457547D02*
D03*
Y305147D02*
D03*
X1084071Y1181447D02*
D03*
X1065021Y1143347D02*
D03*
Y1067147D02*
D03*
X1084071Y1029047D02*
D03*
X1065021Y990947D02*
D03*
Y762347D02*
D03*
Y305147D02*
D03*
X1045971Y1181447D02*
D03*
X1026921Y1143347D02*
D03*
X1045971Y1105247D02*
D03*
X1026921Y1067147D02*
D03*
X1045971Y1029047D02*
D03*
X1026921Y990947D02*
D03*
X1045971Y724247D02*
D03*
X1026921Y686147D02*
D03*
Y609947D02*
D03*
X1045971Y571847D02*
D03*
X1026921Y381347D02*
D03*
Y305147D02*
D03*
X988821Y1219547D02*
D03*
X1007871Y1181447D02*
D03*
Y1105247D02*
D03*
X988821Y990947D02*
D03*
X1007871Y419447D02*
D03*
X988821Y381347D02*
D03*
Y305147D02*
D03*
X950721Y1219547D02*
D03*
X969771Y1181447D02*
D03*
X950721Y990947D02*
D03*
Y914747D02*
D03*
Y838547D02*
D03*
X969771Y724247D02*
D03*
X950721Y533747D02*
D03*
X969771Y495647D02*
D03*
X950721Y305147D02*
D03*
X912621Y1219547D02*
D03*
X931671Y1181447D02*
D03*
Y1029047D02*
D03*
Y952847D02*
D03*
Y876647D02*
D03*
Y800447D02*
D03*
X912621Y533747D02*
D03*
Y457547D02*
D03*
X931671Y343247D02*
D03*
X912621Y305147D02*
D03*
X874521Y1219547D02*
D03*
X893571Y1181447D02*
D03*
X874521Y990947D02*
D03*
X893571Y952847D02*
D03*
X874521Y914747D02*
D03*
X893571Y876647D02*
D03*
X874521Y838547D02*
D03*
X893571Y800447D02*
D03*
X874521Y762347D02*
D03*
Y533747D02*
D03*
Y457547D02*
D03*
X893571Y419447D02*
D03*
X874521Y381347D02*
D03*
X893571Y343247D02*
D03*
X874521Y305147D02*
D03*
X836421Y1219547D02*
D03*
X855471Y1181447D02*
D03*
X836421Y990947D02*
D03*
X855471Y952847D02*
D03*
X836421Y914747D02*
D03*
X855471Y876647D02*
D03*
X836421Y838547D02*
D03*
X855471Y800447D02*
D03*
Y724247D02*
D03*
X836421Y533747D02*
D03*
X855471Y495647D02*
D03*
X836421Y457547D02*
D03*
X855471Y419447D02*
D03*
X836421Y381347D02*
D03*
X855471Y343247D02*
D03*
X836421Y305147D02*
D03*
X798321Y1219547D02*
D03*
X817371Y1181447D02*
D03*
X798321Y1143347D02*
D03*
Y1067147D02*
D03*
Y990947D02*
D03*
X817371Y952847D02*
D03*
X798321Y914747D02*
D03*
X817371Y876647D02*
D03*
X798321Y838547D02*
D03*
X817371Y800447D02*
D03*
X798321Y533747D02*
D03*
X817371Y495647D02*
D03*
X798321Y457547D02*
D03*
X817371Y419447D02*
D03*
X798321Y381347D02*
D03*
X817371Y343247D02*
D03*
X798321Y305147D02*
D03*
M02*
