G04*
G04 #@! TF.GenerationSoftware,Altium Limited,Altium Designer,24.7.2 (38)*
G04*
G04 Layer_Color=65535*
%FSLAX44Y44*%
%MOMM*%
G71*
G04*
G04 #@! TF.SameCoordinates,FD71C0C7-8574-4FF8-A0B1-75ED19D4754F*
G04*
G04*
G04 #@! TF.FilePolarity,Positive*
G04*
G01*
G75*
%ADD10C,0.2500*%
%ADD11C,0.1000*%
%ADD12C,0.3000*%
%ADD13C,0.2000*%
%ADD14C,0.1500*%
%ADD15C,0.1524*%
%ADD16R,0.5500X1.4500*%
D10*
X888300Y1116820D02*
G03*
X888300Y1116820I-1250J0D01*
G01*
X1145570Y375950D02*
G03*
X1145570Y375950I-1250J0D01*
G01*
X1192885Y738376D02*
G03*
X1192885Y738376I-1250J0D01*
G01*
X966480Y445720D02*
G03*
X966480Y445720I-1250J0D01*
G01*
X884060Y678580D02*
G03*
X884060Y678580I-1250J0D01*
G01*
X1116360Y519460D02*
G03*
X1116360Y519460I-1250J0D01*
G01*
X1290330Y331420D02*
G03*
X1290330Y331420I-1250J0D01*
G01*
X1520170Y1248940D02*
G03*
X1520170Y1248940I-1250J0D01*
G01*
Y1139620D02*
G03*
X1520170Y1139620I-1250J0D01*
G01*
Y968170D02*
G03*
X1520170Y968170I-1250J0D01*
G01*
Y858750D02*
G03*
X1520170Y858750I-1250J0D01*
G01*
Y676070D02*
G03*
X1520170Y676070I-1250J0D01*
G01*
Y566850D02*
G03*
X1520170Y566850I-1250J0D01*
G01*
D11*
X1168030Y359310D02*
G03*
X1168030Y359310I-500J0D01*
G01*
X956220Y418700D02*
G03*
X956220Y418700I-500J0D01*
G01*
X835980Y730110D02*
G03*
X835980Y730110I-500J0D01*
G01*
X1445170Y1162920D02*
G03*
X1445170Y1162920I-500J0D01*
G01*
Y1080370D02*
G03*
X1445170Y1080370I-500J0D01*
G01*
X1326200Y1189850D02*
G03*
X1326200Y1189850I-500J0D01*
G01*
X1422310Y910190D02*
G03*
X1422310Y910190I-500J0D01*
G01*
X1326200Y928230D02*
G03*
X1326200Y928230I-500J0D01*
G01*
X1419770Y807320D02*
G03*
X1419770Y807320I-500J0D01*
G01*
X1313500Y641210D02*
G03*
X1313500Y641210I-500J0D01*
G01*
X1410880Y624440D02*
G03*
X1410880Y624440I-500J0D01*
G01*
X1409762Y530328D02*
G03*
X1409762Y530328I-500J0D01*
G01*
X1349920Y301860D02*
G03*
X1349920Y301860I-500J0D01*
G01*
D12*
X1336355Y1144270D02*
G03*
X1336355Y1144270I-1501J0D01*
G01*
X1317221Y1151943D02*
G03*
X1317221Y1151943I-1501J0D01*
G01*
X1336790Y877286D02*
G03*
X1336790Y877286I-1501J0D01*
G01*
X1317656Y884959D02*
G03*
X1317656Y884959I-1501J0D01*
G01*
X1324090Y592805D02*
G03*
X1324090Y592805I-1501J0D01*
G01*
X1304956Y600479D02*
G03*
X1304956Y600479I-1501J0D01*
G01*
D13*
X857600Y1079350D02*
X869600D01*
X857600Y1092350D02*
X860600D01*
X857600Y1066350D02*
Y1092350D01*
Y1066350D02*
X860600D01*
X866600Y1092350D02*
X869600D01*
X866600Y1066350D02*
X869600D01*
Y1092350D01*
X901050Y1084320D02*
Y1115320D01*
X915050Y1084320D02*
Y1115320D01*
X901050D02*
X915050D01*
X901050Y1084320D02*
X915050D01*
X857600Y1112520D02*
X869600D01*
X866600Y1099520D02*
X869600D01*
Y1125520D01*
X866600D02*
X869600D01*
X857600Y1099520D02*
X860600D01*
X857600Y1125520D02*
X860600D01*
X857600Y1099520D02*
Y1125520D01*
X887430Y1063910D02*
X913430D01*
Y1060910D02*
Y1063910D01*
X887430Y1060910D02*
Y1063910D01*
X913430Y1051910D02*
Y1054910D01*
X887430Y1051910D02*
X913430D01*
X887430D02*
Y1054910D01*
X900430Y1051910D02*
Y1063910D01*
X887430Y1065880D02*
X913430D01*
X887430D02*
Y1068880D01*
X913430Y1065880D02*
Y1068880D01*
X887430Y1074880D02*
Y1077880D01*
X913430D01*
Y1074880D02*
Y1077880D01*
X900430Y1065880D02*
Y1077880D01*
X1068420Y524510D02*
X1080420D01*
X1068420Y537510D02*
X1071420D01*
X1068420Y511510D02*
Y537510D01*
Y511510D02*
X1071420D01*
X1077420Y537510D02*
X1080420D01*
X1077420Y511510D02*
X1080420D01*
Y537510D01*
X1035050Y509620D02*
Y521620D01*
X1048050Y518620D02*
Y521620D01*
X1022050D02*
X1048050D01*
X1022050Y518620D02*
Y521620D01*
X1048050Y509620D02*
Y512620D01*
X1022050Y509620D02*
Y512620D01*
Y509620D02*
X1048050D01*
X1126570Y378200D02*
Y409200D01*
X1136570Y378200D02*
Y409200D01*
X1126570D02*
X1136570D01*
X1126570Y378200D02*
X1136570D01*
X1093820Y392430D02*
X1105820D01*
X1093820Y405430D02*
X1096820D01*
X1093820Y379430D02*
Y405430D01*
Y379430D02*
X1096820D01*
X1102820Y405430D02*
X1105820D01*
X1102820Y379430D02*
X1105820D01*
Y405430D01*
X1169780Y324310D02*
Y352310D01*
X1151780Y324310D02*
Y352310D01*
X1167530D02*
X1169780D01*
X1167530Y324310D02*
X1169780D01*
X1151780Y352310D02*
X1154030D01*
X1151780Y324310D02*
X1154030D01*
X1124110Y722951D02*
X1189160D01*
X1124110Y687901D02*
Y722951D01*
Y687901D02*
X1189160D01*
Y722951D01*
X1210605Y687026D02*
Y718026D01*
X1207605D02*
X1210605D01*
X1207605Y687026D02*
X1210605D01*
X1194105Y718026D02*
X1197105D01*
X1194355Y702526D02*
X1210605D01*
X1194105Y687026D02*
X1197105D01*
X1194105D02*
Y718026D01*
X1120435Y686116D02*
Y717116D01*
X1117435D02*
X1120435D01*
X1117435Y686116D02*
X1120435D01*
X1103935Y717116D02*
X1106935D01*
X1104185Y701616D02*
X1120435D01*
X1103935Y686116D02*
X1106935D01*
X1103935D02*
Y717116D01*
X1018540Y460090D02*
Y472090D01*
X1031540Y469090D02*
Y472090D01*
X1005540D02*
X1031540D01*
X1005540Y469090D02*
Y472090D01*
X1031540Y460090D02*
Y463090D01*
X1005540Y460090D02*
Y463090D01*
Y460090D02*
X1031540D01*
X967480Y463470D02*
X998480D01*
X967480Y453470D02*
X998480D01*
Y463470D01*
X967480Y453470D02*
Y463470D01*
X920720Y416450D02*
X948720D01*
X920720Y434450D02*
X948720D01*
Y416450D02*
Y418700D01*
X920720Y416450D02*
Y418700D01*
X948720Y432200D02*
Y434450D01*
X920720Y432200D02*
Y434450D01*
X1165000Y837340D02*
X1179500D01*
X1161500Y839840D02*
Y917840D01*
X1124500D02*
X1161500D01*
X1124500Y839840D02*
Y917840D01*
Y839840D02*
X1161500D01*
X1064380Y1122480D02*
Y1131730D01*
X1076630Y1143980D01*
X1064380Y1088230D02*
X1076630Y1075980D01*
X1064380Y1088230D02*
Y1097480D01*
X1076630Y1143980D02*
X1132380D01*
Y1122480D02*
Y1143980D01*
Y1075980D02*
Y1097480D01*
X1076630Y1075980D02*
X1132380D01*
X877810Y701080D02*
Y705780D01*
Y624880D02*
Y629580D01*
X851060Y624880D02*
X877810D01*
X851060Y705780D02*
X877810D01*
X894530Y627750D02*
Y642250D01*
X897030Y645750D02*
X962030D01*
Y682750D01*
X897030D02*
X962030D01*
X897030Y645750D02*
Y682750D01*
X1086820Y644810D02*
X1112820D01*
Y641810D02*
Y644810D01*
X1086820Y641810D02*
Y644810D01*
X1112820Y632810D02*
Y635810D01*
X1086820Y632810D02*
X1112820D01*
X1086820D02*
Y635810D01*
X1099820Y632810D02*
Y644810D01*
X1409670Y1176420D02*
Y1178670D01*
X1437670Y1176420D02*
Y1178670D01*
X1409670Y1160670D02*
Y1162920D01*
X1437670Y1160670D02*
Y1162920D01*
X1409670Y1178670D02*
X1437670D01*
X1409670Y1160670D02*
X1437670D01*
X1093850Y607430D02*
Y621930D01*
X1077850D02*
X1093850D01*
X1077850Y607430D02*
X1093850D01*
X1409670Y1093870D02*
Y1096120D01*
X1437670Y1093870D02*
Y1096120D01*
X1409670Y1078120D02*
Y1080370D01*
X1437670Y1078120D02*
Y1080370D01*
X1409670Y1096120D02*
X1437670D01*
X1409670Y1078120D02*
X1437670D01*
X1343360Y1157320D02*
X1369360D01*
X1343360D02*
Y1160320D01*
X1369360Y1157320D02*
Y1160320D01*
X1343360Y1166320D02*
Y1169320D01*
X1369360D01*
Y1166320D02*
Y1169320D01*
X1356360Y1157320D02*
Y1169320D01*
X1524000Y1002460D02*
Y1024460D01*
X1547000Y1021460D02*
Y1024460D01*
X1501000D02*
X1547000D01*
X1501000Y1021460D02*
Y1024460D01*
Y1002460D02*
Y1005460D01*
Y1002460D02*
X1547000D01*
Y1005460D01*
X1386810Y923690D02*
Y925940D01*
X1414810Y923690D02*
Y925940D01*
X1386810Y907940D02*
Y910190D01*
X1414810Y907940D02*
Y910190D01*
X1386810Y925940D02*
X1414810D01*
X1386810Y907940D02*
X1414810D01*
X1338280Y905160D02*
X1364280D01*
Y902160D02*
Y905160D01*
X1338280Y902160D02*
Y905160D01*
X1364280Y893160D02*
Y896160D01*
X1338280Y893160D02*
X1364280D01*
X1338280D02*
Y896160D01*
X1351280Y893160D02*
Y905160D01*
X1384270Y820820D02*
Y823070D01*
X1412270Y820820D02*
Y823070D01*
X1384270Y805070D02*
Y807320D01*
X1412270Y805070D02*
Y807320D01*
X1384270Y823070D02*
X1412270D01*
X1384270Y805070D02*
X1412270D01*
X1524000Y723060D02*
Y745060D01*
X1547000Y742060D02*
Y745060D01*
X1501000D02*
X1547000D01*
X1501000Y742060D02*
Y745060D01*
Y723060D02*
Y726060D01*
Y723060D02*
X1547000D01*
Y726060D01*
X1328120Y608680D02*
X1354120D01*
X1328120D02*
Y611680D01*
X1354120Y608680D02*
Y611680D01*
X1328120Y617680D02*
Y620680D01*
X1354120D01*
Y617680D02*
Y620680D01*
X1341120Y608680D02*
Y620680D01*
X1375380Y637940D02*
Y640190D01*
X1403380Y637940D02*
Y640190D01*
X1375380Y622190D02*
Y624440D01*
X1403380Y622190D02*
Y624440D01*
X1375380Y640190D02*
X1403380D01*
X1375380Y622190D02*
X1403380D01*
X1374262Y543828D02*
Y546078D01*
X1402262Y543828D02*
Y546078D01*
X1374262Y528078D02*
Y530328D01*
X1402262Y528078D02*
Y530328D01*
X1374262Y546078D02*
X1402262D01*
X1374262Y528078D02*
X1402262D01*
X1524000Y430960D02*
Y452960D01*
X1547000Y449960D02*
Y452960D01*
X1501000D02*
X1547000D01*
X1501000Y449960D02*
Y452960D01*
Y430960D02*
Y433960D01*
Y430960D02*
X1547000D01*
Y433960D01*
X1097360Y521710D02*
X1107360D01*
X1097360Y552710D02*
X1107360D01*
Y521710D02*
Y552710D01*
X1097360Y521710D02*
Y552710D01*
X1052480Y522940D02*
Y548940D01*
X1049480Y522940D02*
X1052480D01*
X1049480Y548940D02*
X1052480D01*
X1040480Y522940D02*
X1043480D01*
X1040480D02*
Y548940D01*
X1043480D01*
X1040480Y535940D02*
X1052480D01*
X1154130Y394050D02*
X1180130D01*
X1154130D02*
Y397050D01*
X1180130Y394050D02*
Y397050D01*
X1154130Y403050D02*
Y406050D01*
X1180130D01*
Y403050D02*
Y406050D01*
X1167130Y394050D02*
Y406050D01*
X1254460Y371760D02*
X1280460D01*
Y368760D02*
Y371760D01*
X1254460Y368760D02*
Y371760D01*
X1280460Y359760D02*
Y362760D01*
X1254460Y359760D02*
X1280460D01*
X1254460D02*
Y362760D01*
X1267460Y359760D02*
Y371760D01*
X1314420Y315360D02*
Y317610D01*
X1342420Y315360D02*
Y317610D01*
X1314420Y299610D02*
Y301860D01*
X1342420Y299610D02*
Y301860D01*
X1314420Y317610D02*
X1342420D01*
X1314420Y299610D02*
X1342420D01*
X1291330Y339170D02*
Y349170D01*
X1322330Y339170D02*
Y349170D01*
X1291330Y339170D02*
X1322330D01*
X1291330Y349170D02*
X1322330D01*
X1328120Y345790D02*
X1354120D01*
X1328120D02*
Y348790D01*
X1354120Y345790D02*
Y348790D01*
X1328120Y354790D02*
Y357790D01*
X1354120D01*
Y354790D02*
Y357790D01*
X1341120Y345790D02*
Y357790D01*
X950930Y489870D02*
X976930D01*
Y486870D02*
Y489870D01*
X950930Y486870D02*
Y489870D01*
X976930Y477870D02*
Y480870D01*
X950930Y477870D02*
X976930D01*
X950930D02*
Y480870D01*
X963930Y477870D02*
Y489870D01*
X1501520Y1242440D02*
X1547520D01*
X1501520Y1138440D02*
X1547520D01*
X1501520D02*
Y1242440D01*
X1547520Y1138440D02*
Y1242440D01*
X1542520Y1138440D02*
Y1242440D01*
X1501520Y1133120D02*
X1547520D01*
X1501520Y1029120D02*
X1547520D01*
X1501520D02*
Y1133120D01*
X1547520Y1029120D02*
Y1133120D01*
X1542520Y1029120D02*
Y1133120D01*
X1501520Y961670D02*
X1547520D01*
X1501520Y857670D02*
X1547520D01*
X1501520D02*
Y961670D01*
X1547520Y857670D02*
Y961670D01*
X1542520Y857670D02*
Y961670D01*
X1501520Y852250D02*
X1547520D01*
X1501520Y748250D02*
X1547520D01*
X1501520D02*
Y852250D01*
X1547520Y748250D02*
Y852250D01*
X1542520Y748250D02*
Y852250D01*
X1501520Y669570D02*
X1547520D01*
X1501520Y565570D02*
X1547520D01*
X1501520D02*
Y669570D01*
X1547520Y565570D02*
Y669570D01*
X1542520Y565570D02*
Y669570D01*
X1501520Y560350D02*
X1547520D01*
X1501520Y456350D02*
X1547520D01*
X1501520D02*
Y560350D01*
X1547520Y456350D02*
Y560350D01*
X1542520Y456350D02*
Y560350D01*
D14*
X1111950Y572960D02*
Y574960D01*
X1135950D01*
Y572960D02*
Y574960D01*
Y562960D02*
Y564960D01*
X1111950Y562960D02*
X1135950D01*
X1111950D02*
Y564960D01*
X1123950Y562960D02*
Y574960D01*
X1108010Y562960D02*
Y564960D01*
X1084010Y562960D02*
X1108010D01*
X1084010D02*
Y564960D01*
Y572960D02*
Y574960D01*
X1108010D01*
Y572960D02*
Y574960D01*
X1096010Y562960D02*
Y574960D01*
X1141030Y411830D02*
Y413830D01*
X1117030Y411830D02*
X1141030D01*
X1117030D02*
Y413830D01*
Y421830D02*
Y423830D01*
X1141030D01*
Y421830D02*
Y423830D01*
X1129030Y411830D02*
Y423830D01*
X1006540Y457390D02*
Y459390D01*
X1030540D01*
Y457390D02*
Y459390D01*
Y447390D02*
Y449390D01*
X1006540Y447390D02*
X1030540D01*
X1006540D02*
Y449390D01*
X1018540Y447390D02*
Y459390D01*
X1028000Y475330D02*
Y477330D01*
X1004000Y475330D02*
X1028000D01*
X1004000D02*
Y477330D01*
Y485330D02*
Y487330D01*
X1028000D01*
Y485330D02*
Y487330D01*
X1016000Y475330D02*
Y487330D01*
X959040Y467930D02*
X961040D01*
Y443930D02*
Y467930D01*
X959040Y443930D02*
X961040D01*
X949040D02*
X951040D01*
X949040D02*
Y467930D01*
X951040D01*
X949040Y455930D02*
X961040D01*
X1061020Y439770D02*
Y441770D01*
X1037020Y439770D02*
X1061020D01*
X1037020D02*
Y441770D01*
Y449770D02*
Y451770D01*
X1061020D01*
Y449770D02*
Y451770D01*
X1049020Y439770D02*
Y451770D01*
X1023970Y412180D02*
X1025970D01*
X1023970D02*
Y436180D01*
X1025970D01*
X1033970D02*
X1035970D01*
Y412180D02*
Y436180D01*
X1033970Y412180D02*
X1035970D01*
X1023970Y424180D02*
X1035970D01*
X1209610Y378810D02*
Y380810D01*
X1185610Y378810D02*
X1209610D01*
X1185610D02*
Y380810D01*
Y388810D02*
Y390810D01*
X1209610D01*
Y388810D02*
Y390810D01*
X1197610Y378810D02*
Y390810D01*
X1384870Y330550D02*
Y332550D01*
X1360870Y330550D02*
X1384870D01*
X1360870D02*
Y332550D01*
Y340550D02*
Y342550D01*
X1384870D01*
Y340550D02*
Y342550D01*
X1372870Y330550D02*
Y342550D01*
X1279040Y701660D02*
Y715660D01*
X1266340Y713740D02*
Y715660D01*
X1291740D01*
Y713740D02*
Y715660D01*
Y701660D02*
Y703580D01*
X1266340Y701660D02*
X1291740D01*
X1266340D02*
Y703580D01*
X1256030Y996300D02*
Y1010300D01*
X1268730Y996300D02*
Y998220D01*
X1243330Y996300D02*
X1268730D01*
X1243330D02*
Y998220D01*
Y1008380D02*
Y1010300D01*
X1268730D01*
Y1008380D02*
Y1010300D01*
X1280160Y977250D02*
Y991250D01*
X1267460Y989330D02*
Y991250D01*
X1292860D01*
Y989330D02*
Y991250D01*
Y977250D02*
Y979170D01*
X1267460Y977250D02*
X1292860D01*
X1267460D02*
Y979170D01*
X1079500Y632460D02*
X1081420D01*
Y657860D01*
X1079500D02*
X1081420D01*
X1067420D02*
X1069340D01*
X1067420Y632460D02*
Y657860D01*
Y632460D02*
X1069340D01*
X1067420Y645160D02*
X1081420D01*
X1064260Y632460D02*
X1066180D01*
Y657860D01*
X1064260D02*
X1066180D01*
X1052180D02*
X1054100D01*
X1052180Y632460D02*
Y657860D01*
Y632460D02*
X1054100D01*
X1052180Y645160D02*
X1066180D01*
X1049020Y632460D02*
X1050940D01*
Y657860D01*
X1049020D02*
X1050940D01*
X1036940D02*
X1038860D01*
X1036940Y632460D02*
Y657860D01*
Y632460D02*
X1038860D01*
X1036940Y645160D02*
X1050940D01*
X1410970Y1143620D02*
Y1145540D01*
Y1143620D02*
X1436370D01*
Y1145540D01*
Y1155700D02*
Y1157620D01*
X1410970D02*
X1436370D01*
X1410970Y1155700D02*
Y1157620D01*
X1423670Y1143620D02*
Y1157620D01*
X1411120Y1061070D02*
Y1062990D01*
Y1061070D02*
X1436520D01*
Y1062990D01*
Y1073150D02*
Y1075070D01*
X1411120D02*
X1436520D01*
X1411120Y1073150D02*
Y1075070D01*
X1423820Y1061070D02*
Y1075070D01*
X1388110Y890890D02*
Y892810D01*
Y890890D02*
X1413510D01*
Y892810D01*
Y902970D02*
Y904890D01*
X1388110D02*
X1413510D01*
X1388110Y902970D02*
Y904890D01*
X1400810Y890890D02*
Y904890D01*
X1031240Y949960D02*
Y951880D01*
X1005840D02*
X1031240D01*
X1005840Y949960D02*
Y951880D01*
Y937880D02*
Y939800D01*
Y937880D02*
X1031240D01*
Y939800D01*
X1018540Y937880D02*
Y951880D01*
X1031240Y934720D02*
Y936640D01*
X1005840D02*
X1031240D01*
X1005840Y934720D02*
Y936640D01*
Y922640D02*
Y924560D01*
Y922640D02*
X1031240D01*
Y924560D01*
X1018540Y922640D02*
Y936640D01*
X1031240Y919480D02*
Y921400D01*
X1005840D02*
X1031240D01*
X1005840Y919480D02*
Y921400D01*
Y907400D02*
Y909320D01*
Y907400D02*
X1031240D01*
Y909320D01*
X1018540Y907400D02*
Y921400D01*
X1031240Y904240D02*
Y906160D01*
X1005840D02*
X1031240D01*
X1005840Y904240D02*
Y906160D01*
Y892160D02*
Y894080D01*
Y892160D02*
X1031240D01*
Y894080D01*
X1018540Y892160D02*
Y906160D01*
X1031240Y889000D02*
Y890920D01*
X1005840D02*
X1031240D01*
X1005840Y889000D02*
Y890920D01*
Y876920D02*
Y878840D01*
Y876920D02*
X1031240D01*
Y878840D01*
X1018540Y876920D02*
Y890920D01*
X1031240Y873760D02*
Y875680D01*
X1005840D02*
X1031240D01*
X1005840Y873760D02*
Y875680D01*
Y861680D02*
Y863600D01*
Y861680D02*
X1031240D01*
Y863600D01*
X1018540Y861680D02*
Y875680D01*
X1031240Y858520D02*
Y860440D01*
X1005840D02*
X1031240D01*
X1005840Y858520D02*
Y860440D01*
Y846440D02*
Y848360D01*
Y846440D02*
X1031240D01*
Y848360D01*
X1018540Y846440D02*
Y860440D01*
X1031240Y843280D02*
Y845200D01*
X1005840D02*
X1031240D01*
X1005840Y843280D02*
Y845200D01*
Y831200D02*
Y833120D01*
Y831200D02*
X1031240D01*
Y833120D01*
X1018540Y831200D02*
Y845200D01*
X1386840Y788020D02*
Y789940D01*
Y788020D02*
X1412240D01*
Y789940D01*
Y800100D02*
Y802020D01*
X1386840D02*
X1412240D01*
X1386840Y800100D02*
Y802020D01*
X1399540Y788020D02*
Y802020D01*
X1037440Y937880D02*
Y939800D01*
Y937880D02*
X1062840D01*
Y939800D01*
Y949960D02*
Y951880D01*
X1037440D02*
X1062840D01*
X1037440Y949960D02*
Y951880D01*
X1050140Y937880D02*
Y951880D01*
X1037440Y922640D02*
Y924560D01*
Y922640D02*
X1062840D01*
Y924560D01*
Y934720D02*
Y936640D01*
X1037440D02*
X1062840D01*
X1037440Y934720D02*
Y936640D01*
X1050140Y922640D02*
Y936640D01*
X1037440Y907400D02*
Y909320D01*
Y907400D02*
X1062840D01*
Y909320D01*
Y919480D02*
Y921400D01*
X1037440D02*
X1062840D01*
X1037440Y919480D02*
Y921400D01*
X1050140Y907400D02*
Y921400D01*
X1037440Y892160D02*
Y894080D01*
Y892160D02*
X1062840D01*
Y894080D01*
Y904240D02*
Y906160D01*
X1037440D02*
X1062840D01*
X1037440Y904240D02*
Y906160D01*
X1050140Y892160D02*
Y906160D01*
X1037440Y876920D02*
Y878840D01*
Y876920D02*
X1062840D01*
Y878840D01*
Y889000D02*
Y890920D01*
X1037440D02*
X1062840D01*
X1037440Y889000D02*
Y890920D01*
X1050140Y876920D02*
Y890920D01*
X1037440Y861680D02*
Y863600D01*
Y861680D02*
X1062840D01*
Y863600D01*
Y873760D02*
Y875680D01*
X1037440D02*
X1062840D01*
X1037440Y873760D02*
Y875680D01*
X1050140Y861680D02*
Y875680D01*
X1037440Y846440D02*
Y848360D01*
Y846440D02*
X1062840D01*
Y848360D01*
Y858520D02*
Y860440D01*
X1037440D02*
X1062840D01*
X1037440Y858520D02*
Y860440D01*
X1050140Y846440D02*
Y860440D01*
X1037440Y831200D02*
Y833120D01*
Y831200D02*
X1062840D01*
Y833120D01*
Y843280D02*
Y845200D01*
X1037440D02*
X1062840D01*
X1037440Y843280D02*
Y845200D01*
X1050140Y831200D02*
Y845200D01*
X1211580Y990600D02*
X1213500D01*
Y1016000D01*
X1211580D02*
X1213500D01*
X1199500D02*
X1201420D01*
X1199500Y990600D02*
Y1016000D01*
Y990600D02*
X1201420D01*
X1199500Y1003300D02*
X1213500D01*
X1226820Y990600D02*
X1228740D01*
Y1016000D01*
X1226820D02*
X1228740D01*
X1214740D02*
X1216660D01*
X1214740Y990600D02*
Y1016000D01*
Y990600D02*
X1216660D01*
X1214740Y1003300D02*
X1228740D01*
X1286510Y891540D02*
X1288430D01*
Y916940D01*
X1286510D02*
X1288430D01*
X1274430D02*
X1276350D01*
X1274430Y891540D02*
Y916940D01*
Y891540D02*
X1276350D01*
X1274430Y904240D02*
X1288430D01*
X1271890Y869950D02*
X1273810D01*
X1271890Y844550D02*
Y869950D01*
Y844550D02*
X1273810D01*
X1283970D02*
X1285890D01*
Y869950D01*
X1283970D02*
X1285890D01*
X1271890Y857250D02*
X1285890D01*
X1263650Y713740D02*
Y715660D01*
X1238250D02*
X1263650D01*
X1238250Y713740D02*
Y715660D01*
Y701660D02*
Y703580D01*
Y701660D02*
X1263650D01*
Y703580D01*
X1250950Y701660D02*
Y715660D01*
X1376680Y605140D02*
Y607060D01*
Y605140D02*
X1402080D01*
Y607060D01*
Y617220D02*
Y619140D01*
X1376680D02*
X1402080D01*
X1376680Y617220D02*
Y619140D01*
X1389380Y605140D02*
Y619140D01*
X1376680Y511160D02*
Y513080D01*
Y511160D02*
X1402080D01*
Y513080D01*
Y523240D02*
Y525160D01*
X1376680D02*
X1402080D01*
X1376680Y523240D02*
Y525160D01*
X1389380Y511160D02*
Y525160D01*
X1164590Y537560D02*
Y549560D01*
X1176590Y547560D02*
Y549560D01*
X1152590D02*
X1176590D01*
X1152590Y547560D02*
Y549560D01*
Y537560D02*
Y539560D01*
Y537560D02*
X1176590D01*
Y539560D01*
X1164590Y524860D02*
Y536860D01*
X1176590Y534860D02*
Y536860D01*
X1152590D02*
X1176590D01*
X1152590Y534860D02*
Y536860D01*
Y524860D02*
Y526860D01*
Y524860D02*
X1176590D01*
Y526860D01*
X1070610Y543910D02*
Y555910D01*
X1082610Y553910D02*
Y555910D01*
X1058610D02*
X1082610D01*
X1058610Y553910D02*
Y555910D01*
Y543910D02*
Y545910D01*
Y543910D02*
X1082610D01*
Y545910D01*
X1164590Y512160D02*
Y524160D01*
X1176590Y522160D02*
Y524160D01*
X1152590D02*
X1176590D01*
X1152590Y522160D02*
Y524160D01*
Y512160D02*
Y514160D01*
Y512160D02*
X1176590D01*
Y514160D01*
X1167130Y380080D02*
Y392080D01*
X1155130Y380080D02*
Y382080D01*
Y380080D02*
X1179130D01*
Y382080D01*
Y390080D02*
Y392080D01*
X1155130D02*
X1179130D01*
X1155130Y390080D02*
Y392080D01*
X1164590Y409290D02*
Y421290D01*
X1176590Y419290D02*
Y421290D01*
X1152590D02*
X1176590D01*
X1152590Y419290D02*
Y421290D01*
Y409290D02*
Y411290D01*
Y409290D02*
X1176590D01*
Y411290D01*
X1341120Y331820D02*
Y343820D01*
X1329120Y331820D02*
Y333820D01*
Y331820D02*
X1353120D01*
Y333820D01*
Y341820D02*
Y343820D01*
X1329120D02*
X1353120D01*
X1329120Y341820D02*
Y343820D01*
X1266540Y336550D02*
X1278540D01*
X1266540Y348550D02*
X1268540D01*
X1266540Y324550D02*
Y348550D01*
Y324550D02*
X1268540D01*
X1276540D02*
X1278540D01*
Y348550D01*
X1276540D02*
X1278540D01*
X1339850Y362300D02*
Y374300D01*
X1351850Y372300D02*
Y374300D01*
X1327850D02*
X1351850D01*
X1327850Y372300D02*
Y374300D01*
Y362300D02*
Y364300D01*
Y362300D02*
X1351850D01*
Y364300D01*
X1181450Y359410D02*
X1193450D01*
X1191450Y347410D02*
X1193450D01*
Y371410D01*
X1191450D02*
X1193450D01*
X1181450D02*
X1183450D01*
X1181450Y347410D02*
Y371410D01*
Y347410D02*
X1183450D01*
X1356710Y311150D02*
X1368710D01*
X1366710Y299150D02*
X1368710D01*
Y323150D01*
X1366710D02*
X1368710D01*
X1356710D02*
X1358710D01*
X1356710Y299150D02*
Y323150D01*
Y299150D02*
X1358710D01*
D15*
X899695Y611144D02*
X916665Y628115D01*
X909594Y601245D02*
X926565Y618215D01*
X878190Y636970D02*
Y660970D01*
X892190Y636970D02*
Y660970D01*
X912134Y728445D02*
X929105Y711475D01*
X902235Y718546D02*
X919205Y701575D01*
X1327331Y1150982D02*
X1357759D01*
Y1099458D02*
Y1150982D01*
X1327331Y1099458D02*
X1357759D01*
X1327331D02*
Y1150982D01*
X1327766Y883997D02*
X1358194D01*
Y832474D02*
Y883997D01*
X1327766Y832474D02*
X1358194D01*
X1327766D02*
Y883997D01*
X1315066Y599518D02*
X1345494D01*
Y547994D02*
Y599518D01*
X1315066Y547994D02*
X1345494D01*
X1315066D02*
Y599518D01*
D16*
X1091101Y614686D02*
D03*
M02*
