G04*
G04 #@! TF.GenerationSoftware,Altium Limited,Altium Designer,24.7.2 (38)*
G04*
G04 Layer_Color=8421504*
%FSLAX44Y44*%
%MOMM*%
G71*
G04*
G04 #@! TF.SameCoordinates,FD71C0C7-8574-4FF8-A0B1-75ED19D4754F*
G04*
G04*
G04 #@! TF.FilePolarity,Positive*
G04*
G01*
G75*
%ADD17R,0.7000X0.7000*%
%ADD18O,2.0000X0.3000*%
%ADD19R,0.7000X0.7000*%
%ADD20R,0.7500X0.8500*%
G04:AMPARAMS|DCode=21|XSize=0.55mm|YSize=0.8mm|CornerRadius=0.0495mm|HoleSize=0mm|Usage=FLASHONLY|Rotation=270.000|XOffset=0mm|YOffset=0mm|HoleType=Round|Shape=RoundedRectangle|*
%AMROUNDEDRECTD21*
21,1,0.5500,0.7010,0,0,270.0*
21,1,0.4510,0.8000,0,0,270.0*
1,1,0.0990,-0.3505,-0.2255*
1,1,0.0990,-0.3505,0.2255*
1,1,0.0990,0.3505,0.2255*
1,1,0.0990,0.3505,-0.2255*
%
%ADD21ROUNDEDRECTD21*%
%ADD22R,0.7500X1.0000*%
G04:AMPARAMS|DCode=23|XSize=1.0043mm|YSize=3.1821mm|CornerRadius=0.4369mm|HoleSize=0mm|Usage=FLASHONLY|Rotation=270.000|XOffset=0mm|YOffset=0mm|HoleType=Round|Shape=RoundedRectangle|*
%AMROUNDEDRECTD23*
21,1,1.0043,2.3084,0,0,270.0*
21,1,0.1306,3.1821,0,0,270.0*
1,1,0.8737,-1.1542,-0.0653*
1,1,0.8737,-1.1542,0.0653*
1,1,0.8737,1.1542,0.0653*
1,1,0.8737,1.1542,-0.0653*
%
%ADD23ROUNDEDRECTD23*%
G04:AMPARAMS|DCode=24|XSize=1.0043mm|YSize=0.8721mm|CornerRadius=0.4361mm|HoleSize=0mm|Usage=FLASHONLY|Rotation=270.000|XOffset=0mm|YOffset=0mm|HoleType=Round|Shape=RoundedRectangle|*
%AMROUNDEDRECTD24*
21,1,1.0043,0.0000,0,0,270.0*
21,1,0.1322,0.8721,0,0,270.0*
1,1,0.8721,0.0000,-0.0661*
1,1,0.8721,0.0000,0.0661*
1,1,0.8721,0.0000,0.0661*
1,1,0.8721,0.0000,-0.0661*
%
%ADD24ROUNDEDRECTD24*%
%ADD25R,0.8721X1.0043*%
%ADD26R,1.1000X0.8500*%
G04:AMPARAMS|DCode=27|XSize=0.55mm|YSize=0.8mm|CornerRadius=0.0495mm|HoleSize=0mm|Usage=FLASHONLY|Rotation=180.000|XOffset=0mm|YOffset=0mm|HoleType=Round|Shape=RoundedRectangle|*
%AMROUNDEDRECTD27*
21,1,0.5500,0.7010,0,0,180.0*
21,1,0.4510,0.8000,0,0,180.0*
1,1,0.0990,-0.2255,0.3505*
1,1,0.0990,0.2255,0.3505*
1,1,0.0990,0.2255,-0.3505*
1,1,0.0990,-0.2255,-0.3505*
%
%ADD27ROUNDEDRECTD27*%
%ADD28R,0.8500X0.7500*%
%ADD29R,1.0000X0.7500*%
%ADD30R,0.8500X0.9500*%
%ADD31O,1.8650X0.6300*%
%ADD32R,1.4500X0.4500*%
%ADD33R,3.5500X1.9000*%
%ADD34R,1.3000X1.6500*%
%ADD35R,1.9000X1.8000*%
%ADD36R,1.9000X1.0000*%
%ADD37R,1.5500X1.4250*%
%ADD38R,1.3800X0.4500*%
%ADD39R,1.3000X1.1500*%
%ADD40R,0.4500X1.4500*%
%ADD41P,1.2021X4X270.0*%
%ADD42R,0.8500X0.8500*%
%ADD43P,1.2021X4X180.0*%
%ADD44R,0.9500X0.8500*%
%ADD45R,1.0500X1.6500*%
%ADD46R,1.2000X1.6500*%
D17*
X863600Y1072850D02*
D03*
Y1085850D02*
D03*
Y1119020D02*
D03*
Y1106020D02*
D03*
X1074420Y518010D02*
D03*
Y531010D02*
D03*
X1099820Y385930D02*
D03*
Y398930D02*
D03*
X1046480Y542440D02*
D03*
Y529440D02*
D03*
D18*
X887050Y1109820D02*
D03*
Y1104820D02*
D03*
Y1099820D02*
D03*
Y1094820D02*
D03*
Y1089820D02*
D03*
X929050Y1109820D02*
D03*
Y1104820D02*
D03*
Y1094820D02*
D03*
Y1089820D02*
D03*
Y1099820D02*
D03*
D19*
X893930Y1057910D02*
D03*
X906930D02*
D03*
Y1071880D02*
D03*
X893930D02*
D03*
X1028550Y515620D02*
D03*
X1041550D02*
D03*
X1012040Y466090D02*
D03*
X1025040D02*
D03*
X1093320Y638810D02*
D03*
X1106320D02*
D03*
X1362860Y1163320D02*
D03*
X1349860D02*
D03*
X1344780Y899160D02*
D03*
X1357780D02*
D03*
X1347620Y614680D02*
D03*
X1334620D02*
D03*
X1173630Y400050D02*
D03*
X1160630D02*
D03*
X1260960Y365760D02*
D03*
X1273960D02*
D03*
X1347620Y351790D02*
D03*
X1334620D02*
D03*
X957430Y483870D02*
D03*
X970430D02*
D03*
D20*
X1117950Y568960D02*
D03*
X1129950D02*
D03*
X1102010D02*
D03*
X1090010D02*
D03*
X1135030Y417830D02*
D03*
X1123030D02*
D03*
X1012540Y453390D02*
D03*
X1024540D02*
D03*
X1022000Y481330D02*
D03*
X1010000D02*
D03*
X1055020Y445770D02*
D03*
X1043020D02*
D03*
X1203610Y384810D02*
D03*
X1191610D02*
D03*
X1378870Y336550D02*
D03*
X1366870D02*
D03*
X1158590Y543560D02*
D03*
X1170590D02*
D03*
X1158590Y530860D02*
D03*
X1170590D02*
D03*
X1064610Y549910D02*
D03*
X1076610D02*
D03*
X1158590Y518160D02*
D03*
X1170590D02*
D03*
X1173130Y386080D02*
D03*
X1161130D02*
D03*
X1158590Y415290D02*
D03*
X1170590D02*
D03*
X1347120Y337820D02*
D03*
X1335120D02*
D03*
X1333850Y368300D02*
D03*
X1345850D02*
D03*
D21*
X1118820Y384200D02*
D03*
Y403200D02*
D03*
X1144320D02*
D03*
Y393700D02*
D03*
Y384200D02*
D03*
X1115110Y527710D02*
D03*
Y537210D02*
D03*
Y546710D02*
D03*
X1089610D02*
D03*
Y527710D02*
D03*
D22*
X1160780Y355310D02*
D03*
Y321310D02*
D03*
D23*
X1156635Y672476D02*
D03*
D24*
X1133735Y738376D02*
D03*
X1156635D02*
D03*
D25*
X1179535D02*
D03*
D26*
X1202355Y711776D02*
D03*
Y693276D02*
D03*
X1112185Y710866D02*
D03*
Y692366D02*
D03*
D27*
X973480Y471220D02*
D03*
X992480D02*
D03*
Y445720D02*
D03*
X982980D02*
D03*
X973480D02*
D03*
X1297330Y331420D02*
D03*
X1306830D02*
D03*
X1316330D02*
D03*
Y356920D02*
D03*
X1297330D02*
D03*
D28*
X955040Y461930D02*
D03*
Y449930D02*
D03*
X1029970Y418180D02*
D03*
Y430180D02*
D03*
X1272540Y330550D02*
D03*
Y342550D02*
D03*
X1187450Y365410D02*
D03*
Y353410D02*
D03*
X1362710Y317150D02*
D03*
Y305150D02*
D03*
D29*
X951720Y425450D02*
D03*
X917720D02*
D03*
X1406670Y1169670D02*
D03*
X1440670D02*
D03*
X1406670Y1087120D02*
D03*
X1440670D02*
D03*
X1383810Y916940D02*
D03*
X1417810D02*
D03*
X1381270Y814070D02*
D03*
X1415270D02*
D03*
X1372380Y631190D02*
D03*
X1406380D02*
D03*
X1371262Y537078D02*
D03*
X1405262D02*
D03*
X1311420Y308610D02*
D03*
X1345420D02*
D03*
D30*
X1272540Y708660D02*
D03*
X1285540D02*
D03*
X1262530Y1003300D02*
D03*
X1249530D02*
D03*
X1273660Y984250D02*
D03*
X1286660D02*
D03*
X1430170Y1150620D02*
D03*
X1417170D02*
D03*
X1430320Y1068070D02*
D03*
X1417320D02*
D03*
X1407310Y897890D02*
D03*
X1394310D02*
D03*
X1012040Y944880D02*
D03*
X1025040D02*
D03*
X1012040Y929640D02*
D03*
X1025040D02*
D03*
X1012040Y914400D02*
D03*
X1025040D02*
D03*
X1012040Y899160D02*
D03*
X1025040D02*
D03*
X1012040Y883920D02*
D03*
X1025040D02*
D03*
X1012040Y868680D02*
D03*
X1025040D02*
D03*
X1012040Y853440D02*
D03*
X1025040D02*
D03*
X1012040Y838200D02*
D03*
X1025040D02*
D03*
X1406040Y795020D02*
D03*
X1393040D02*
D03*
X1056640Y944880D02*
D03*
X1043640D02*
D03*
X1056640Y929640D02*
D03*
X1043640D02*
D03*
X1056640Y914400D02*
D03*
X1043640D02*
D03*
X1056640Y899160D02*
D03*
X1043640D02*
D03*
X1056640Y883920D02*
D03*
X1043640D02*
D03*
X1056640Y868680D02*
D03*
X1043640D02*
D03*
X1056640Y853440D02*
D03*
X1043640D02*
D03*
X1056640Y838200D02*
D03*
X1043640D02*
D03*
X1244450Y708660D02*
D03*
X1257450D02*
D03*
X1395880Y612140D02*
D03*
X1382880D02*
D03*
X1395880Y518160D02*
D03*
X1382880D02*
D03*
D31*
X1316155Y851886D02*
D03*
X1315720Y1144270D02*
D03*
Y1131570D02*
D03*
Y1118870D02*
D03*
Y1106170D02*
D03*
X1369370Y1144270D02*
D03*
Y1131570D02*
D03*
Y1118870D02*
D03*
Y1106170D02*
D03*
X1316155Y877286D02*
D03*
Y864585D02*
D03*
Y839185D02*
D03*
X1369805Y877286D02*
D03*
Y864585D02*
D03*
Y851886D02*
D03*
Y839185D02*
D03*
X1303455Y592805D02*
D03*
Y580106D02*
D03*
Y567406D02*
D03*
Y554706D02*
D03*
X1357105Y592805D02*
D03*
Y580106D02*
D03*
Y567406D02*
D03*
Y554706D02*
D03*
D32*
X1113750Y843090D02*
D03*
Y849590D02*
D03*
Y856090D02*
D03*
Y862590D02*
D03*
Y869090D02*
D03*
Y875590D02*
D03*
Y882090D02*
D03*
Y888590D02*
D03*
Y895090D02*
D03*
Y901590D02*
D03*
Y908090D02*
D03*
Y914590D02*
D03*
X1172250D02*
D03*
Y908090D02*
D03*
Y901590D02*
D03*
Y895090D02*
D03*
Y888590D02*
D03*
Y882090D02*
D03*
Y875590D02*
D03*
Y869090D02*
D03*
Y856090D02*
D03*
Y849590D02*
D03*
Y843090D02*
D03*
Y862590D02*
D03*
D33*
X1071880Y1109980D02*
D03*
X1124880D02*
D03*
D34*
X840810Y699080D02*
D03*
Y631580D02*
D03*
D35*
Y676830D02*
D03*
D36*
Y649830D02*
D03*
D37*
X866560Y690205D02*
D03*
Y640455D02*
D03*
D38*
X867410Y678330D02*
D03*
Y671830D02*
D03*
Y665330D02*
D03*
Y658830D02*
D03*
Y652330D02*
D03*
D39*
X870980Y721360D02*
D03*
X840980D02*
D03*
X1331200Y1181100D02*
D03*
X1361200D02*
D03*
X1331200Y919480D02*
D03*
X1361200D02*
D03*
X1318500Y632460D02*
D03*
X1348500D02*
D03*
D40*
X900280Y693500D02*
D03*
X906780D02*
D03*
X913280D02*
D03*
X919780D02*
D03*
X926280D02*
D03*
X932780D02*
D03*
X939280D02*
D03*
X945780D02*
D03*
X952280D02*
D03*
X958780D02*
D03*
Y635000D02*
D03*
X952280D02*
D03*
X945780D02*
D03*
X939280D02*
D03*
X932780D02*
D03*
X926280D02*
D03*
X919780D02*
D03*
X913280D02*
D03*
X906780D02*
D03*
X900280D02*
D03*
D41*
X918610Y620160D02*
D03*
X907650Y609200D02*
D03*
D42*
X885190Y656720D02*
D03*
Y641220D02*
D03*
D43*
X921150Y709530D02*
D03*
X910190Y720490D02*
D03*
D44*
X1074420Y651660D02*
D03*
Y638660D02*
D03*
X1059180Y651660D02*
D03*
Y638660D02*
D03*
X1043940Y651660D02*
D03*
Y638660D02*
D03*
X1206500Y1009800D02*
D03*
Y996800D02*
D03*
X1221740Y1009800D02*
D03*
Y996800D02*
D03*
X1281430Y910740D02*
D03*
Y897740D02*
D03*
X1278890Y850750D02*
D03*
Y863750D02*
D03*
D45*
X1068600Y614680D02*
D03*
X1103100D02*
D03*
D46*
X1510000Y1013460D02*
D03*
X1538000D02*
D03*
X1510000Y734060D02*
D03*
X1538000D02*
D03*
X1510000Y441960D02*
D03*
X1538000D02*
D03*
M02*
