M48
;Layer_Color=9474304
;FILE_FORMAT=4:4
METRIC,LZ
;TYPE=PLATED
T01F00S00C0.3810
T02F00S00C0.6350
T03F00S00C0.7620
T04F00S00C0.8890
T05F00S00C1.1000
%
T01
X00901446Y007874
X00920463Y00775807
X00924493Y00766697
X0094234Y0077978
X0094615Y0079121
X0096266Y0077089
X0094742Y0075438
T02
X00798321Y00305147
X00836421
X00874521
X00912621
X00950721
X00988821
X01026921
X01065021
X01103121
X01141221
X01179321
X01026921Y00381347
X00988821
X00980949Y00345093
X00931671Y00343247
X00893571
X00855471
X00817371
X00836421Y00381347
X00874521
X00798321
X00953009Y00373033
X0122682Y0036449
X0123952Y0035433
X01217421Y00305147
X01287019Y00319693
X01326389Y00328583
X01331721Y00305147
X01407921
X01446021
X01484121
X01522221
X01560321
X01579371Y00343247
X01541271
X01503171
X01465071
X01426971
X01446021Y00381347
X01484121
X01522221
X01560321
X01407921
X01369821
X01598421
X01636521
X01655571Y00343247
X01617471
X01636521Y00305147
X01598421
X01617471Y00419447
X01655571
X01636521Y00457547
X01598421
X01617471Y00495647
X01655571
X01598421Y00533747
Y00609947
X01636521
X01655571Y00648047
X01617471
X01636521Y00686147
X01598421
X01617471Y00724247
X01655571
X01636521Y00762347
X01598421
X01560321
X01579371Y00724247
X01560321Y00686147
X01522221
X01541271Y00648047
X01579371
X01560321Y00609947
X01484121
X01503171Y00571847
X01465071
X01484121Y00457547
X01503171Y00419447
X01541271
X01579371
X01560321Y00457547
X01579371Y00495647
X0142113Y0047752
X01426971Y00419447
X01465071
X01350771
X01312671
X01274571
X01236471
X01198371
X01217421Y00457547
X01255521
X01293621
X01331721
X01369821
X01312671Y00495647
X01274571
X01236471
X01198371
Y00571847
X01236471
X01217421Y00609947
X01236471Y00648047
X01198371
X01217421Y00686147
X01236471Y00724247
X01217421Y00762347
X01293621
X01312671Y00724247
X01350771
X01388871
X01407921Y00762347
X0142875Y007747
X01369821Y00762347
Y00686147
X01407921
X01350771Y00648047
X01312671
X01293621Y00686147
Y00609947
X01369821
X01331721Y00533747
X01160271Y00571847
X01179321Y00609947
X01141221
X01160271Y00648047
X01122171
X01179321Y00686147
Y00762347
X01141221
X01103121
X01065021
X01045971Y00724247
X01026921Y00686147
Y00609947
X01045971Y00571847
X01103121Y00533747
X01122171Y00495647
X01160271
X01179321Y00457547
X01141221
X01103121
X01005079Y00444153
X01007871Y00419447
X00930149Y00397163
X00893571Y00419447
X00855471
X00817371
X00836421Y00457547
X00874521
X00912621
Y00533747
X00950721
X00969771Y00495647
X00855471
X00817371
X00836421Y00533747
X00874521
X00798321
Y00457547
X00908685Y00601927
X0089087Y0062611
X0092202Y0065151
X0091948Y0067818
X0090424Y0067564
X0094234
X00969771Y00724247
X00909873Y00726266
X0088265Y0073152
X00855471Y00724247
X00874521Y00762347
X00893571Y00800447
X00931671
X00950721Y00838547
X00931671Y00876647
X00893571
X00855471
X00817371
X00836421Y00914747
X00874521
X00893571Y00952847
X00931671
X00950721Y00990947
X00988821
X01026921
X01065021
X01103121
X01141221
X01179321
X0117475Y0094615
X011176
X01141221Y00914747
X01143986Y00876498
X01160271Y01029047
X01122171
X01084071
X01045971
X01065021Y01067147
X01103121
X01141221
X01179321
X01160271Y01105247
X01179321Y01143347
X01103121
X01065021
X01026921
X01045971Y01181447
X01084071
X01122171
X01007871
X00969771
X00931671
X00893571
X00855471
X00817371
X00798321Y01143347
X008509Y0113665
X00926147Y01136839
X009398Y0112395
X009525Y0113665
X0090805Y011176
X008763Y0106045
X008636Y0104775
X008509Y0106045
X00798321Y01067147
Y00990947
X00836421
X00874521
X00855471Y00952847
X00817371
X00798321Y00914747
Y00838547
X00836421
X00874521
X00855471Y00800447
X00817371
X00950721Y00914747
X00931671Y01029047
X01026921Y01067147
X01045971Y01105247
X01007871
X01198371
X01236471
X01255521Y01143347
X01217421
X01236471Y01181447
X01274571
X01312671
X01388871
X01426971
Y01105247
X0145415Y010668
X014351Y01016
X01407921Y00990947
X01369821
X01388871Y01029047
X01350771
X01312671
X01293621Y01067147
X01255521
X01217421
X01236471Y01029047
X01198371
Y01181447
X01350771Y01105247
X01369821Y01067147
X01388871Y00952847
X01350771
X01255521Y00914747
X01217421Y00838547
X01303529Y00830233
X01312671Y00800447
X01350771
X01407921Y00838547
X0145415Y008001
X01579371Y00800447
Y00876647
X01560321Y00914747
X01579371Y00952847
X01541271
X01503171
X01522221Y00990947
X01560321
X01579371Y01029047
X01560321Y01067147
X01579371Y01181447
X01541271
X01617471
X01655571
X01598421Y01143347
Y01067147
X01636521
X01655571Y01029047
X01617471
X01636521Y00990947
X01598421
X01617471Y00952847
X01655571
X01636521Y00914747
X01598421
X01617471Y00800447
X01655571
X01636521Y01219547
X01598421
X01560321
X01103121
X00988821
X00950721
X00912621
X00874521
X00836421
X00798321
T03
X0106553Y0039116
X0140462Y0054102
X0138938Y0057404
Y0064008
X0130683Y0078486
X01163936Y00706736
X0107823Y007112
X0109982Y0066675
X010668Y0057023
X0107442Y0048768
X0091694Y0055245
X00904875Y0065786
X009652Y0080645
X0107823Y0081915
X0139954Y0081788
Y0086614
X0141224Y009144
X0130429Y0096266
X0124206Y0100076
X0145542Y011049
X0144272Y011303
X0145288Y0118872
T04
X00973328Y0063627
X0098552
Y0065024
X00973328
Y0066421
X0098552
Y0067818
X00973328
Y0069215
X0098552
T05
X0151892Y004826
Y005081
Y005336
Y0059182
Y0061732
Y0064282
Y007745
Y008
Y008255
Y0088392
Y0090942
Y0093492
Y0105537
Y0108087
Y0110637
Y0116469
Y0119019
Y0121569
M30
